<mxfile host="65bd71144e">
    <diagram id="C5RBs43oDa-KdzZeNtuy" name="Page-1">
        <mxGraphModel dx="1137" dy="531" grid="1" gridSize="10" guides="1" tooltips="1" connect="1" arrows="1" fold="1" page="1" pageScale="1" pageWidth="827" pageHeight="1169" math="0" shadow="0">
            <root>
                <mxCell id="WIyWlLk6GJQsqaUBKTNV-0"/>
                <mxCell id="WIyWlLk6GJQsqaUBKTNV-1" parent="WIyWlLk6GJQsqaUBKTNV-0"/>
                <mxCell id="siei6v41lwWBUSuXyyNT-0" value="react Native open harmony 工程说明" style="rounded=0;whiteSpace=wrap;html=1;fillColor=#0050ef;strokeColor=#001DBC;fontSize=20;fontStyle=1;fontColor=#ffffff;" parent="WIyWlLk6GJQsqaUBKTNV-1" vertex="1">
                    <mxGeometry x="40" y="40" width="400" height="60" as="geometry"/>
                </mxCell>
                <mxCell id="siei6v41lwWBUSuXyyNT-2" value="简单理解为：鸿蒙基于 react Native 封装，扩展 react Native 开发功能，达到基于react Native 开发的 App 应用，最终产出的 App 支持 ios、android、harmony 三个平台。&lt;br&gt;&lt;br&gt;开发环境：react Native + harmony 扩展。&lt;br&gt;&lt;span style=&quot;white-space: pre;&quot;&gt;&#9;&lt;/span&gt;harmony 扩展：这里可以理解为 华为提供的一套针对 js 的包，通过 ArcTs 提供的方法（组件）识别 js 后，处理渲染出view 在 鸿蒙应用内展示。&lt;br&gt;产出目的：鸿蒙系统可安装的 App" style="rounded=0;whiteSpace=wrap;html=1;align=left;verticalAlign=middle;" parent="WIyWlLk6GJQsqaUBKTNV-1" vertex="1">
                    <mxGeometry x="40" y="110" width="920" height="90" as="geometry"/>
                </mxCell>
                <mxCell id="siei6v41lwWBUSuXyyNT-3" value="react Native + harmony 扩展" style="whiteSpace=wrap;html=1;fillColor=#dae8fc;strokeColor=#6c8ebf;fontStyle=1;fontSize=14;" parent="WIyWlLk6GJQsqaUBKTNV-1" vertex="1">
                    <mxGeometry x="40" y="280" width="210" height="30" as="geometry"/>
                </mxCell>
                <mxCell id="siei6v41lwWBUSuXyyNT-6" value="目录 C:\rnoh\tester 【tester 为 react Native 工程】&amp;nbsp;" style="swimlane;whiteSpace=wrap;html=1;align=left;spacingLeft=6;fillColor=#f0a30a;strokeColor=#BD7000;fontColor=#000000;startSize=40;" parent="WIyWlLk6GJQsqaUBKTNV-1" vertex="1">
                    <mxGeometry x="440" y="280" width="660" height="250" as="geometry"/>
                </mxCell>
                <mxCell id="siei6v41lwWBUSuXyyNT-9" value="鸿蒙应用 C:\rnoh\tester\harmony&lt;br&gt;首页 C:\rnoh\tester\harmony\entry\src\main\ets\pages\Index.ets 使用到的组件&amp;nbsp;RNApp" style="whiteSpace=wrap;html=1;align=left;spacingLeft=6;" parent="siei6v41lwWBUSuXyyNT-6" vertex="1">
                    <mxGeometry x="10" y="50" width="620" height="50" as="geometry"/>
                </mxCell>
                <mxCell id="siei6v41lwWBUSuXyyNT-12" value="&lt;span style=&quot;color: rgb(0, 0, 0); font-family: Helvetica; font-size: 12px; font-style: normal; font-variant-ligatures: normal; font-variant-caps: normal; font-weight: 700; letter-spacing: normal; orphans: 2; text-align: center; text-indent: 0px; text-transform: none; widows: 2; word-spacing: 0px; -webkit-text-stroke-width: 0px; background-color: rgb(255, 255, 255); text-decoration-thickness: initial; text-decoration-style: initial; text-decoration-color: initial; float: none; display: inline !important;&quot;&gt;通过目录结构说明&lt;/span&gt;" style="edgeStyle=orthogonalEdgeStyle;orthogonalLoop=1;jettySize=auto;html=1;entryX=-0.002;entryY=0.063;entryDx=0;entryDy=0;entryPerimeter=0;" parent="WIyWlLk6GJQsqaUBKTNV-1" source="siei6v41lwWBUSuXyyNT-3" target="siei6v41lwWBUSuXyyNT-6" edge="1">
                    <mxGeometry x="0.0157" relative="1" as="geometry">
                        <mxPoint as="offset"/>
                    </mxGeometry>
                </mxCell>
                <mxCell id="siei6v41lwWBUSuXyyNT-21" value="" style="edgeStyle=orthogonalEdgeStyle;orthogonalLoop=1;jettySize=auto;html=1;entryX=0;entryY=0.25;entryDx=0;entryDy=0;" parent="WIyWlLk6GJQsqaUBKTNV-1" source="siei6v41lwWBUSuXyyNT-9" target="siei6v41lwWBUSuXyyNT-13" edge="1">
                    <mxGeometry relative="1" as="geometry">
                        <mxPoint x="1340" y="355" as="targetPoint"/>
                    </mxGeometry>
                </mxCell>
                <mxCell id="siei6v41lwWBUSuXyyNT-23" value="" style="group" parent="WIyWlLk6GJQsqaUBKTNV-1" vertex="1" connectable="0">
                    <mxGeometry x="1200" y="160" width="1130" height="631" as="geometry"/>
                </mxCell>
                <mxCell id="siei6v41lwWBUSuXyyNT-17" value="" style="group" parent="siei6v41lwWBUSuXyyNT-23" vertex="1" connectable="0">
                    <mxGeometry width="1130" height="401" as="geometry"/>
                </mxCell>
                <mxCell id="siei6v41lwWBUSuXyyNT-13" value="" style="shape=image;verticalLabelPosition=bottom;labelBackgroundColor=default;verticalAlign=top;aspect=fixed;imageAspect=0;image=data:image/png,iVBORw0KGgoAAAANSUhEUgAAA4kAAAGRCAYAAADINPaKAAAgAElEQVR4Aey9h1cU1//H/ftvnt9zv+zC/ug8KAJ6BJTelUO1K64FO8RGVOwaE2JHLKjR2NAYQ5oVg4li+YrGEGNIrBFU2orm/ZyZ3dkdYBuwKOCbc/bMsHdu+3xed/a+596593/+85//QP3x9fVt9786jOftbUV70B5kgAyQATJABsgAGSADZIAMDDQG/qdjhSgSCXlHJvg/mSADZIAMkAEyQAbIABkgAx8OAxSJHUZSCf+HAz99TV+TATJABsgAGSADZIAMkIHODFAkUiRyejEZIANkgAyQATJABsgAGSADZMDMAEWiEzAINw2m6X1x97MA/K7Xmo3Hpw6dnzrQJrQJGSADZIAMkAEyQAbIABno3wxQJJpEort3JD7OXIhVIaKTCHSP9caLzb7YEKlBlI9bp3A2gv7dCOg/+o8MkAEyQAbIABkgA2SADFgY6DWRKMRQDP/yPsZe+UP+5FyoRur21fAPNIowIUYg/MR9jKn4HH5uxu+8F59H1qbx7USYcM9FXOV9jDlaBE/RWcC5wpneg8fgqznrcDg5CbG6znkMSveFocgTIb2UvyvqwDQsUNMWtAUZIANkgAyQATJABsgAGeg+A70uEhPnREAXPBRekeMQvu8WsnbmwV0IGEXiXWRfrMbIJI0sDK2KxOTNyCg/h1GV5Qj26Szgeup8oQ1Dcd6nOBQZAI0NEahJ8EHrei/E2wjvaRkYv/sA03a0HRkgA2SADJABMkAGyAAZcC0DvS4S4ybpzCODIrMU2d9vhb9ZJF5HQukPyFidDiEErIlE74XnkLkmD8MO3UF0luV9QGWkMmHRbEQfqUbW+WqkfDYXXu5GIekoXAHJK2wObs2YhFg7AlCM8MKzYi+MtXONkh6PrgWU9qQ9yQAZIANkgAyQATJABsjAu2XgnYlE4TkcQ4qvIKfsI3iYRWINomZ+jNRvt8Bf01kkCuGP0H2/Ina8J3yX/YT0omSL4DRNZ804tBnBidHwSV2ChO9qkZQXKl+jiERb4Qpo8SmrcSsrxpyu8r1yFG4C4Zm+aFzthZEUiTbtpNiLx3fbgGlv2psMkAEyQAbIABkgA2TA1Qz0ukjMuXwPOZX3kFP1O7LK9yE4zMMk4qR3En9FdIb07mI1IpO1nUYShftkxF74GkMDBdzSdyHr8DLoTEJNEYHJc4yiUDKM7/Iq5Hw+BW6yCDW+E2krXDFkRvpGXEkL7yR+hFaH73YEonFnIAxb/bE1zPVTXZUy8MiGTQbIABkgA2SADJABMkAGyEBfYaDXRWLivFh4jZiLuPM3EZ1uFIhS5Y3vJN5DdKaA57xvkbE2Ez6L2i9cIxKLkVG+Ft6S6PPOQ0LlMQR7d5hOmuttFnhe+d9jzK5Z8ruFiohMsBGuOCAz/RPrItFNYFiQBjHBWsyc5oeXy3QI5Uii2daK/XjkzYwMkAEyQAbIABkgA2SADAwsBnpdJErvJAqhReDG68jaPs28OIxaJIrgpUj5bjtCF51rt7qp10dnMeane8i6cAdZF+4ip6oGURnG9xIdiUBH4QrIaWkb8XNahF3xI0Z440mxN8ZRJNq1k2JTHgfWTYL+pD/JABkgA2SADJABMvBhMfBORKIElVtiMdIvf4XQdltgGEcShQjFsEPXkbDrW7NIFMIPIbtrkTQ/Bl7DwuVP0KZqpC1PkoWKIgI7TSctniwvguMoXAE9KqkINeOSzNNYle/VR7d4HzRv8EISRSJFomlfTTUfPP+wbpr0N/1NBsgAGSADZIAMDHQG3plIFCIWEafuI7VghEnkSe8kGkWiZGTd3ArjiKFpn0ShnYDYC5cQFmF5F1A76RByDhXKgk4RgZmHPkdwgu2Fa2yFK47VBE9F1bz5mOphyUcJU44BaT4wFOkwlCKRIpEikQyQATJABsgAGSADZIAMDHAG3plIlASX10fnMObrT+HrpuyTaBGJImgRUqruW0YS4z5F+vlSBGos4k0MW45Rl49iiJcU37gwTfxHeYj60rQFRvFceHfYAsNWuCIApRHLuRM/RdXYUQjXWvJSwqWjLtkHrZu8MdXHjQ1igDcItd95zqeEZIAMkAEyQAbIABkgAx8iA70mEnvbmGaRmOtlVbg5CleXT7gHY+GE9bietwSLBnUWisJdiw2F/mguCcADvWWvRnUaPOcNhAyQATJABsgAGSADZIAMkIGBwEC/F4nq1UvVDlFEoq1w9bXSubS4TnBQIrL8OotEY7gbvH00iOBoolVR3tGe/J83SDJABsgAGSADZIAMkAEy0D8ZoEjk9EmKPjJABsgAGSADZIAMkAEyQAbIgJmBfisS+VSifz6VoN/oNzJABsgAGSADZIAMkAEy0LcZoEjkEwPzEwM21r7dWOkf+ocMkAEyQAbIABkgA2TgXTBAkUiRSJFIBsgAGSADZIAMkAEyQAbIABkwM+Bykejr62tO/F2oXObBpylkgAyQATJABsgAGSADZIAMkAHXMUCRyCcGFPVkgAyQATJABsgAGSADZIAMkAEzAxSJhMEMA5++uO7pC21JW5IBMkAGyAAZIANkgAz0VwYoEikSKRLJABkgA2SADJABMkAGyAAZIANmBigSCYMZhv76pMNRuYWbBtP0vrj7WQB+12sHfH0d2YPhPX+qKYQbij4OxJONfihP18BLCHLFeykZIANkgAyQATIwYBigSCTMvQqzEO7IKq7E1ZMfIew9daTdY73xYrMvNkRqEOXj1qv1pQDruQDrDzaURGJggBaZKd74facfVgVQJPYHv7GMH0b7pJ/pZzJABshAzxkY0CJx1hkDOv5dXz/cpSJBTD6KxueHMeY9CSB7jUD4pqCo/Dr+bmhG0z/3UblnBsI0ru3MChGAiSW/4GFTm9HUzaegV9lCCB/knXiE+tvFSFJ9b6/crg4blO4LQ5EnQt5T/j2pT3f5EiICxTUW+ttanuO3s9sxMdjofyFisb0WwJNDyHYzfpe4vRbNp6bL7aNT/Kan+O18CXKHuWYkVogQrL8OXCkKcml77ImtuxNXeghSvt0fO4e6tl11pyyM0/MfRNqQNiQDZIAMkAEyYGRgQItE76BwRETE4JOfgQcHcxEREYEQP9d0chWAutuJV+L31lEIDbL3P4Th18OYn5mAxHEr8P2jVvy8MsylnXIxpAhX8QCHZ8RjREQEIsKC+tzUO02CD1rXeyH+AxSJVetjZO6jU/TY/ssLNJ1fjEFCwCgSW9Ha+gxfjNXITFgTiUr8qOSpKP6pHq1XV7tkRHjAiEQPHc7v8sM6jiS69L7SW/dFpsvOHxkgA2SADJAB5xjo0yJx/OHnaPiqGJ9drkNT8wvUVe1FbogyEmIcKTm/pRBf36tHc+MT3CovQKS2/RN9ITyx9CJQuz2xXSdGGSmxF18ETcTOyvuob3mDt60NeFC1F3rTiIHQl6PZMlBjObu+3jxiJQLSsPbUdfxZ34Sm+ge4XDYTYaZRG6fy90lE4fFrqJNGAuv/wOWyWQhX1U/4JKPo5C08bjKgtf4+Lu7SI9ScfiQ2/wqcX+Rtrndk0Q+o2ZsLrUksSSONK0/exMMXzWh8+hvObpuEYCXMNBJlzz5SIxNRxbiHi1jo2d7uUli7kdx7mxHVQaQJv3R8evZ31Dc14s8LG7Dm6BM0HJ1sLq+cvncEdlxYiZtHk7stTsQILzwr9sLYDvk7ukkIB/a3x6dcdjv+kcPt8eEMX3bSV/g6t9DTbE8x/RQM9V9inFkk1qOy8g6eHhoPNyFgTSS2ix+3Bb/jCpaZBJE9vo31t81vR5Eojcglb65BS+1upOlMbdyOfeT0HfBjr33I8e20byncmY/w98T1XT5YbCqzM3F4jXO2pZ1oJzJABsgAGSAD74+BPi8SW55UYtv0VCSMnoWy281o+DoPPnIn1ygS62/ux9LsRCTnfo5fXhpwcemQdp07RyLRXvzRpXVouV6CyQmRiE7NxdbKp/hz31g5feETgpjYWMQWVqCp/gwKpHPpExYoizAhdJh5+iUafi7B3DHJSMhegjN1TbiwxFg+pRNvK38htMjcVwfDvaPIz0xAwtiPUfFXK66tiTDmL7TIOfAIL37ZDn1qHBLHL0PFX824VBhsCk/B7ro3ODOrs3iTGpzUKc/e/zda7xzC3PQEJE/5BJfrG/FD/mBTfPv2FRmlqDMYYHjdhn/xFm3SufRpOIEpJjFmHMmNQMz6KqCDSJTe6RpV+gBvHpzCosxkpM0rw5XHrzqLxMBYHL2+DrVnsxDbRZEn19NNIDzTF42rvTCyC/Ed2V9KWxKJtvl05B8HfDjky1H6Rv8pIs/NeyQKzjxC29XVGGoWiU04sepT3H12GGM1TojEiE9Qg2qsGiKNRDoov0N+20839Ujdjnsttdg52sPEn6P07fMj+c9e+5D8Z699S+HOfITOA99u88fuMAFNF/hyJm1e45wPaCfaiQyQATJABsiA6xno8yLxdcVc88iX+6wzMDwuQ7pKJFavHWruzE059gL1X040/y8B40gk2os/9cQrPD02BTo7nb+uTDfNOfDYLIIUkWgrfyGiseXeW5wtsIwEDZ+9G6fWZMqdUSESUPJHM8r1FhEYt+UeXn8z29TJdiQSY7D1t7f4sUBntlfG3r/RWK43xTeKDJvl8xyCSEkU55bhD1zFpmSTSI4JlUW8urF6LjxnRSQOw8ZbwM8rFdGsQ/4Pr832Ucd39/fFIK+uLTgjtDp8tyMQjTsDYdjqj61hFjup07Z17sj+UjxJJNrm075/rOWr5kMJt8WXY/8b/fe2zSje2/79F433v8HHcUZ/G6ebGnBymnTdcxwer7U7kujmGY5Z5X+i7fcdSLTRHtTld2Q/9Uii0I1GaW0L7m5LhbuNtCV7tE/fPj+O7COl50z7Vvxg7zhitA8elwSiZWcgGld5ItpOHeylwzDX/8DRprQpGSADZIAMkIHuMdDnRaJ6+qEYOh7LV06Wpx0qIksZKZEAyCx7ZF54QwHCkUi0F99nfBkeGFrx5E4VKo6UYJU+Bt4dOoC2OvFS/iGTd+Ji7VM0tho76q/fwFw+R+UXIhMHn7QXgUqdpKMxHHhjEgHSKN7rtn+BcwvljrYQjkRi5/SjpJVOzPHbj0RJeVq1r53ppkp5rYvEZJR2GOkcc7DzdFMlja4ehZvAsCANYoK1mDnNDy+X6RDawXf20nRkfymuPN1UNT22PZ+SfW37R4pvjw+lbLb4cux/o/+ubEpGbOIynG1sQLne8kBAEYmnpguM2PRf/PPlRCRv67xwjVlkvgVa685iVapl+rK98juynyIS5fSlhvHyJKa6txfy9tO3z48j+0j2daZ9K36wdRRaDxwv9seZDHckDdEgJlADjy5wZitdft+9HzTajXYjA2SADJABMuAaBvqVSFQ73ZHIUq7tiUiU0vAOy8LclZ+j7OTPeGhoRfW6KPPImxRusxPvnovyF424sjkXKXHGUbYF5U9dLBJf4cxi0wieMt11mJ+TI4nvWyR2FrGuFImK/2UfjfDGk2Jv+V089ff2zh2JHCluR5GoTs8Y345/HPChpGWTL/khgp30Te+USg9BpKnF+vJ6NJ8tgK9JwKhFogjfiJrnR1G07V4nPmWRGRuDqGH+7Ub5hIPyO7KfIhJvbstEbOpKXGx8gYo5Aea25Th9+/w4sr9iX0ftW7nO1lEE6HBjlw8WebQXuLau5/eu+eGiHWlHMkAGyAAZIAO9ywBFomphD/VImbQ6qM43AD6q0Y3o4jvA5WXmjrYEp5h0BK+sbIEhwjbiNqpQ6GfsPErv4OUef9GpE25rJFMI43TQswVe5o5zeP4h/PBJjmq6aRu+nWd8h0sqi3doHJLD/E0isfPCNVGrzuLXsqmmdyadm25qq3xKw7S3cI1yjfWRRONIV2WhImo1yPu6xep0UzedB7xUC/Yo6Tp7dIv3QfMGry5tweHI/lLe9kWiNN3Ujn8c8KHUzSZf8nRjO+mrRKKUlmbMQTxpu4oi88JP0hYYBkgjiUKE4ZNb9bh06bZdPpUySUfHfDvi1/JOotQ24j6vQduDvRhtam+O07fPj3G6qT37ONe+1XW2di69k3hplx9W+1MkWrMPv+vdH3Dal/YlA2SADJCB3mJgQItEe1tgOBqJFMIXSy604cnZ9ZicEoWR8ePw6eUXaDg2RV4JUnGIiN2M2rd3sS83WV64JibUxyjS3PU49aoZN3bPRGpcIsYtOoTLDxvsdsLbi1QtMsssC9dIW1h897AVV1eFm0SgcWGOljtfYG56HOKzF+LkAwOurVHCTVtg3DuM+Rnx5i0wflll3AJDWtgju+wveeGaOaqFa75f0H7hmu6KRGlhk0HDI+TtF+SFa+6XYby0RUbEcATqJGGixYTDz2C4uR3pgR7wTVyLs4+bOolE4R+NL66uxW8V6d1+1ysgzQeGIp28YIviN0dHeeEaO/aX4tsXiQ7844APpXw2+TItzGLb/+2nCxunHwN3P48x8WMRiVJeYRtvoqm52S6fSpmko3BQfkf2U0YSlX0ShfcklD814GeFTyfSt8ePlL+0cI1t+zjXvtV1tnYujdKe2uGP7aHWRaK0T2hOQSZW54V2mqpuLT1+xx97MkAGyAAZIANkoC8wMKBFYrstGEybVFxfP9zUSW7fiZacoRZp0v/uUQtw5FodXhre4k1LPR5U7TNvgaE4T4gg6Muq8bTlrZyDshm5FD5MvwdX6hrQ0lKP2rPrUbj/gd1OeMf8hW8ylpdX46+GFtMWGh22wPBNwarTt/GkyYDm+vuo3JuHMI2lsyptcVF08gYevpDiS1to5LXfQkPaAuPUTTx82YymZ7U4Z2ULjO6LROM7eZa9QZSzJyjLNI2uDstD+f1W4N9/0VpXjrKKZ51Fos8I7Lq4EreOpyCim+966ZJ90LrJG1N9urj4jQP72xOJkv8l+9vzjz0+nOHLXvrWHoLEbr4H/F2GNDdln0TjSKJc1uHrcOtf++/MKmVSjo7Kb4/fjiJRSnPY8p/QWn8ael8jHw7Td8CPPftI+TnTvpW6WjsKIeAT7InqEj98FmRpd+prhU88TtSsw/kVxocv6jCesxNABsgAGSADZIAM9FUG+rRI7KtGY7lc16CFmw5Bw0Ph6y7kkbnnh8fLIt6VNhbuWmwo9EdzSQAe6LUuT9+VZWVaXWPrXfBjzSfSFNmiZQFoLQlAzQwPBNl4gKHJnoyamnwsNe2vai0tftc1n9NetBcZIANkgAyQgd5ngCLRyf3QCKPrYZSnpIYZp6SOiJ2EfXdf4+qqYb0i4qROvbePBhFdHE2k313vd1fZ9F3y07HMEk+B/hqEelofQVSuj125GLXHkzHYhohUruOx73JG39A3ZIAMkAEy8CEyQJFIkdgrosyZxiTEGBx+bpyG+tZQj9of1yLVy36n25l0ec2HcTPv6/wI4YWCY6txZIZlr1Oy+WGwST/Tz2SADJABMtDfGaBIpEh8byKxvzcelp8/AGSADJABMkAGyAAZIAMDkQGKRIpEikQyQAbIABkgA2SADJABMkAGyICZAYpEwmCGYSA+BWGd+HSPDJABMkAGyAAZIANkgAx0jQGKRIpEikQyQAbIABkgA2SADJABMkAGyICZAYpEwmCGgU9YuvaEhfaivcgAGSADZIAMkAEyQAYGIgMUiRSJFIlkgAyQATJABsgAGSADZIAMkAEzAxSJhMEMw0B8CsI68ekeGSADZIAMkAEyQAbIABnoGgMUiRSJvS4ShZsG0/S+uPtZAH7Xa3s9P94EunYT6I69pM3kiz4OxJONfihP18CLm8WTa95LyQAZIANkgAyQgQHDQJ8XiUK4I6u4EldPfoSwbnRE33f87nTAB1oc91hvvNjsiw2RGkT5uA2YxjPQ/NSV+kgiMTBAi8wUb/y+0w+rAgT9OgB/GIUQiI/xQNloDYZ04/7bFab64rUfev37ok9Ypt5/CEgb08ZkgAxIDPQDkeiDvBOPUH+7GEnd6KQIYT++mHwUjc8PY4yNtB3Ft9WQ9OWNsPxdxELP9p1oISJQXGO5oq3pKX47X4LcYQNvpG1Qui8MRZ4IsWFjWzYU7otRlP8QeYMFfKJ+woFpOxDaIQ0hAhCVVIUtc1txsOANDswtR1yHa2yl7+h7Z/J3lIa9cHvpCxGOSblt+DjCs9fEl7387ZVbHSY9hCnf7o+dQ9vzrb7mfZxLIjZ/og5X5v6f/Lmcp8PxLC1SdH2rnGrbJCZ74PxojUv9LYZocX66OxK72SYkO2aP1uH7iVqM6GYa6jq+6/MPvf7v2t7Mjx1LMkAGyMDAYaDPi8Tehs2RSOxu/l6DwxAREYGI8XtwH7ZFYtX6GPm6qOSpKP6pHq1XV3drxLS75XwX8TQJPmhd74X4LnYyhaYAy/PrMH2QgOfICzig39JpNEN4rsCq/N8xZ1gcBvmEY5B3EDy6mI8tGziTv624znxvL/13IhKdsK+jeggPHc7v8sO6PjaSqIjE3VFuCPZ2wzB/Nywe54Hz2Rr4uYgPR7bpanhfFIldrUNfu76nIrGv1YflGTidL/qSviQDZKCvM9CnReKsMwbLUNu9zYhSde6UkbjzWwrx9b16NDc+wa3yAkRqLSMFduPry9FsSd1ydn29ecTLXnzJsSIgDWtPXcef9U1oqn+Ay2UzEeZmyV++JqoY9+yIxHMLLSNFIm4LfscVLDN1uMcffo6Gr4rx2eU6NDW/QF3VXuSGWNIXvilYefImHr5oRuPT33B22yQEm2yk2OfStkKU33mO5qZ/UHN6GeJUIykiaCJ2Vt5HfcsbvG1twIOqvdB3GBES3hHYcWElbh5N7rZ4FSO88KzYC2NV/nOmYQgxA4vm38FkPwG3sAocmLIe/h3SEL6fYlP+eYzWWOyipC3ck5GTUY0ts1+hNO8uChMnwlcV32G4M/n3wD726mcWiQkLkT/1KXbPfYR1GQUIUvElPEZjbOY1FM9+id2zf0dR6gwEquoXmfYEJZmfYdL4B9g99zk+n7AbsaoRbXv5KzZ0dBT+nri+yweLVVw5iqOEi8FhWLk3H79cW4W7V5bg660JiPWy+NE7PhllXxXivzfXovb6clw4lIOxwc5NV1ZE4o4wS3oi1B2XpmvNMxKE1g0zRrvjmzwdLk73wK4ENwxS2U8KnzrKHV9N98D56R4oTdYgWG1/Ob4HzszwwHm9B7bHubWzf3KqDj+kabEgxwPn8zxwaqwWaWr76zRYNsYDZ/N0OJmjwaxU+yOJ3uEjsWLmUGhMZRQ6NyzJ8cD3eTr8lOeBk2O1SDfZT4S448Icy0iqMqJaNV5rLqOj8uWkW+JXTdZimNo2ppHanbEaFE/ywIWZHjg0WoOhavu4u2F+lgd+mKnDqWwt8lI98EOq60ZK+3P9hQjE1EXxSAh0nT2UdsUjO55kgAyQATLgCgb6tEj0DgqXR9li1lcBNkRi/c39WJqdiOTcz/HLSwMuLh1inq5lN75PCGJiYxFbWIGm+jMokM6lT1ggtKbOkN34QoeZp1+i4ecSzB2TjITsJThT14QLSyz5Sw4SXRGJEZ+gBtVYNcTYsZVEYsuTSmybnoqE0bNQdrsZDV/nwUcISNP8svf/jdY7hzA3PQHJUz7B5fpG/JA/WK6/IhLrbx9C4ZhEJE/agEvP23BtTZjZPqNL69ByvQSTEyIRnZqLrZVP8ee+seZwufyBsTh6fR1qz2YhVtVJdBY+4SYQnumLxtVeGNnF+EKMw9zZV5HjKSBCj2H3hGXwNKUhBu/C5vnN2De/FfvzDSiTz5uxb/YxxJjsE5Fahz1TDyJ5UDyGhmxA0ewGLA1X7OMOe+Fy3e3kr9Rf9MA+dutnmm66c8o+pAclmMrfjKLIoSb/6pCYVY+SiTuQHJSEkKDFWDj9JZaPsPAnicQ9eRcwdWgKQgblYWbuK5RkzYROsaET9VPqaesodB74dps/docJs3ixda36eyG8MOfQKvxxsxBfl07Grv0foebOWlxZHwI32X8BKKpYhz+uL8KRzeOxrXQ+rt1eh7v749oJfXWa6vOOItFN64aJ6TpcHqfBYDl9gYRkHX4cp0VGgBtGBGnw+VQP7Iowtj3pXbS4JA9cmqTFhEFuiJDDddgfaRSpUvrxSR64OMkdYwPdMDJYg9LpOmwLs4hYSYRd0LtjUagbIgLdUDTRAz+ka2SGpfTTR+vk9McEuiEyVIsSvc7qdFPv8BFYUZKPG1c+wr6Zg2X7SHWNTvTAhfFajPJzw7AADRaO8cCpJKPoEFqB4b5uCItwl6ebTpTOpY+XxU/2yiel76kT8ijs8Ch32BKJ30/QIneQVH8t9s3QYVeEYh+BqAQP/JTrjsmD3BAzTIu9ep1LRWJ/rr8QvphSvAA3qpfgyNo4isUB+D6v+n7Ec3bYyQAZ6I8M9GmRqBjUc+E5myKxeq2x0yxdO+XYC9R/ObGdyJG+txZfSduZ6ab24ivpSMecA4/RcHRyu/ydFYlunuGYVf4n2n7fYX5/SBKJryvmmkWr+6wzMDwuQ7rcyY3B1t/e4scCnTm/jL1/o7FcbxIRxnceb2ywiML0PX/hdcUcc2d+6olXeHpsilk0qOuiPnf398UgL0vnVx1m61xodfhuRyAadwbCsNUfW1UjOrbidOV7oRmCwX4xGBK6F8X5VzAxIAZDpP/9QuX6CBGNXL0BhREW+4Sn1KE0Y6rJPvbDu1KW7tjHUfrKSOLq6FCzf8NS/sSerBnm/zumMWLU3yhJm2QOl0TivmyLvzXDv8K+mXu7PSLcMT/l/xGjffC4JBAtOwPRuMoT0U48DBDCE9GZIzAu1tvkj0Cs/m4d/vhqtPzeqRCh+PzyOvxxNBkBMu9aDE8ZgQlpgfJDEiVvW0dFJP40W4fKWTpcnqPD+Sla6P0UEeiGpbke+CTYMtIYFuuBynSTyBJuWDhJh+3DLeFBQ7XYFKmR24+U/sLJkii0hMcmSSOBlnYiifEL+TAAACAASURBVLDKDOP1Ujm1Q91RqdfKD1uk+EumWOJLojErrf1IoiwOd+bjelUB9hRGYoS3JW0pvbTROlSM0sDdjr3tTbe0Vz61XT3CbItERTRL148e5YHvUxWR6Ia5E3TYN1L5X2BCpmtF4kCov9fwCBRum4/qq4tlsRjPkUXz/UvNIM/ZwSYDZIAMvHsG+r1IVE/XzCx7hOZT0zv9yNgTeT0RiSGTd+Ji7VM0thpgMBjw+g065e9IJL5tM8Ztewu01p3FqlRjp1lqDPJ0U5XoFEPHY/nKyXInX4hMHHzSjHK9pZMaJa2Ec26h3GlURhIvLvU120MOv7jUPBrnM74MDwyteHKnChVHSrBKHwNvOx3OrjRQaQRxWJAGMcFazJzmh5fLdJ0WnelKerautTXdVIgMzMp7hQWhFvsExf8XB8Z+ZOrk2w+3ld+7+l4RieqFa9Tll8rhF7Idy/WPUDpPGlFtxr4FbdidOc3sb3m6qUo0Cq9xyIqaZJ5u6Iq6CK0Hjhf740yGO5KGaBATqHHqnVBJJA0dNwbHv1+OO7fX4cHd9fLnj+8y5RFnITRIWpaPu3fW4Ma3s/HFtrH4WB+CQCvTiq3VQxGJe6PdEOavwfaZHtionqot3LBSr4MiIiUhKX2qsjTyQxkp/kp9+zjqfKyFD4vxMMeXrpVEmHp6pfDSQD/SuEqotfjqdxIlkVx8qQgV6yMRrpqCqy6DZ5A7Ts7SoWKSOz5P1WJmsJu5bSvXORKJtsqnxJeO9kSiejpvXLIOF9IsIvvjXB2KVdPXpfqp81Pn0Z3zgVR/z9AwrChbitqyWPNDwe7YhHHefSeKNqfNyQAZGKgMUCQ6WN1Ucrw1kSncc1H+ohFXNuciJc44VXVB+dMui8Qrm5IRGxuDqGH+nUYEOopENYSuEIlSet5hWZi78nOUnfwZDw2tqF4XZRYZ6vx6ci5GeONJsTfGuUiAqsvyoYpEoZmC/NkNWJkwBUPlEdQYpGY8sisS1XZz1bkI0OHGLh8s8rCIcWfSFgFxOHZzHWqr8vHF5vEo/mQyvrmyDopIlNIQQouQpCgUfJyDraXzUX17La5tH9nl6abGqZ0euJBl2c/RKNJ0KA43TcNUTcc05u16kai2i2OR6I2xq2bhyrWPcbo4BRkh1lc99vRyw9iRWhSN9sCZWTociGo/2tgVkagun/q8uyJx2dTeFYlSGQdC/eV3TUvyUf3TApROG2SeTqz2Ac/ZCSUDZIAMkIF3zQBF4qQjeGVnCwzJIVZFYthG3EYVClXT13KPv+gsEiM/w69OLlzT0fn2RWL3ppsavplteudLA51vAHzcLZ376OI7wOVlnTrhbjoPeKkWBOpYTkf/u8X7oHmDl3nBEEfXdyXctki0P53U0XTUrpShp/axlpcykmhruqnwXo8N+ZXIMPlPEh2x6c/fvUjUeeDSLj+s9rdwZK0+Hb8TSWNRfWcdTs83TTd1G4JN5y0iUegCMUYfi8lxXvJDC2lkMbd0Nf6onowcJx42SPaQtsBQRro0g7WomOWOGaaFY6Rwabrp5mGWcnt6umGksvCLaTqperppcJg7tkW7dWm6qa2RM2P+9qebSjbTDg7BvI2zcKV6Gc5sTkV2qLvJHgLuWgFP1UIxw2I9UJVjEcJSfEkknrOxBUbHkc6OPlL+765IlOxfqnrHMzu9/ciqkn53jpLw78/1l/zvGxmJlaUf4UbVApQuHoHhqkWNumMTxmEHkgyQATJABlzJQJ8ViULoMGh4hGXhmvtlGC9tKRExHIE6aeEW4zt3tqabOoqvGFHEbkbt27vYlyuN6MUiJtTH1AlzkL+7HqdeNePG7plIjUvEuEWHcPlhQ2eR6FOA823P8c2iRIyQyz8U/u7Wy6+USTnaF4laZJf9JS9cM0e1cM33C5SFWYz2qb91CIU5iUiSFq75x7JwjbRwwpILbXhydj0mp0RhZPw4fHr5BRqOTWn3JFv4R+OLq2vxW0W6U++aKWVXHwPSfGAo0mGoE517dTxnzm2LRC0iUv+0s3CN/XBn8paucYV9rOWliMSS3INID1IW3mlBUZRp4Rq3qSiY8wrrUmZgmF8CIiMOomjGP+9eJAp3nNrhj+2qab3W6tPxOzE4Cadvr8PvVz7C4e2TsK98Aa78pBKJ2jDskkYWf/kIh7ZOwJateai8sQ73v81wagEkqROuFonS/8tydTgaa3lHTlq45sIkrbzwTPggDTblSgvTGEWjJELikj1QaVq4RlrYZoteh7KRlnBl4Rpp4Rll4Zqtwy0jefZEmHF0s/3CNaU2Fq6RbKcdHIr5n8zCz6XG6YhSfXKzdajI0mKUvxtC/TSYn+OBH0Zp2rdfXy1OzPbAimDjiOlwT+fL5+dl3D5EXrhmijuSvY3/+2qk+1d7+0plbD/dVCAlxQOXJmgR6yHg5a/Fdn3n6abSPrQ5BZlYnRfapanu/b3+0nTiT7/JR+mSEfJiQh3bh/J/d+2jxOeRHUYyQAbIABnoLgN9WCRK79xZdqawnD1BWaZ1kaV+J9E4HdMSy3JmjK8YTIgg6Muq8bTlrXyJ8k6jM/GH6ffgSl0DWlrqUXt2PQr3P+gsEoU7kou+R22DAf/KOdRic6z18itlUo72RKJ0jbwFxqmbePiyGU3PanHOyhYYFzYvxoka0xYYXy9DvGqrAveoBThyrQ4vDW/xpqUeD6r2dd4Cw2cEdl1ciVvHUxDRTZGnS/ZB6yZvTPWxdFCVOvb0aEskyvaRtsDIrMaWOa+wO+9XfGxtCww74c6UTbjAPtbyUUTi8sRCLNQ/xZ65j7E+YxGGqEaOAkJLsXL6P9gz7xk+HbsWGam/v1ORKAkdn2BPVJf44bMgy4ictfp0/E4aGYzOm4ofLq/Er9VLUb48CkXHLSJRuj4gdTS+qFiGu7fXovZmEa6czMWCWA+npkNbEzHSwjRVend59VspfeHuhplpHqiYqcMFaYuLJE07+0rh+tEeOD1dZ3sLjDTTFhjTPLDD2hYYdrZ8EKotME6P0WLu6PYL13S0mfS/1t2yZYLWV4O14zxwdpZpC4wx7uYtMJS4kh3Skz1QkWfczkJ5Z1AKty9ije9sKltnKMeqOR4oGuRYJErpS+9gfjJFh6o5Olyc6o6idCsi0SceJ2rW4fwK48MtpdzOHPtz/SX+3VWzOGzVV/TAPrbS5PfsMJIBMkAGyIAzDPRZkehM4XmNbciVkdYLS4wjo+/TVsJdiw2F/mguCcADvfV3q95n+Zi3bY5s2UYSH0XLAtBaEoCaGR4I6uYDBFvp8/uu+6Qv2kx6kODv5QYvjZBF6Xem1U+VsmqyJ6OmJh9LVQvcKGED4eio/o7qONDt46j+DB8Y9wH6kX4kA/2TAYrEAbo/kyIS1aubvs9GKokKbx8NInphNPF91utDzVvyZ6C/BqF8j8qpkc0PkRNJIPmZpqiG+LphxSRpum772QSxKxej9niyvHflQLORM/V3VOeBbB9HdWd4/+xU0m/0GxkYOAxQJFIkspM7QBngjXrg3Kj7oy+lBwlrphunuf40ywPHs7SIVC2AJYQXCo6txpEZngPyHuSo/o58OtDt46j+DOf9iwyQATLwfhmgSKRAGJAdNN5Y3u+Nhfan/ckAGSADZIAMkAEy0H8ZoEikSKRIJANkgAyQATJABsgAGSADZIAMmBmgSCQMZhj4tKf/Pu2h7+g7MkAGyAAZIANkgAyQAVcxQJFIkUiRSAbIABkgA2SADJABMkAGyAAZMDNAkUgYzDC46skD0+FTLDJABsgAGSADZIAMkAEy0H8ZoEikSKRIJANkgAyQATJABsgAGSADZIAMmBmgSCQMZhj4tKf/Pu2h7+g7MkAGyAAZIANkgAyQAVcxQJFIkUiRSAbIABkgA2SADJABMkAGyAAZMDNAkUgYzDC46skD0+FTLDJABsgAGSADZIAMkAEy0H8Z+GBFohARKK4Bzi30NIukkI8r0fLoC2S7C/N37xNu4b4YRfkPkTdYwCfqJxyYtgOhom+U7X3aRcmb9um/Nx7FhzzSh2SADJABMkAGyAAZ6HsMUCSaRKLQjcXhxy2oLAzpEwJRaixCU4Dl+XWYPkjAc+QFHNBvwRCKRLN/aJ++d0PhTZ4+IQNkgAyQATJABshA/2egT4tEEZCGtaeu48/6JjTVP8DlspkIczOOpCkjgZe2FaL8znM0N/2DmtPLEKfrWrgykhixrhqv6/YhTTWKKHySUXTyFh43GdBafx8Xd+kRquSfuB1/vK3GqlDLyJ7b2C/wrPlbzPKyfCe8I7DjwkrcPJqMsC4KPCFmYNH8O5jsJ+AWVoEDU9bDX5WG8BiNsZnXUDz7JXbP/h1FqTMQaAoXIhyTctuwInEJ8qc+we65j7ExqxDBGsU+9sMdNW4l/WUJS7BQ/wy75z7E+ox8DDbZR4pvt3yD92Kb/gimj3uCUv02RIYexOa5T7EmfjQ0Sh3ck5CTcR1b5zZjz+xaLE+aCj91/R3Yx1EdGN7/b2D0IX1IBsgAGSADZIAMkAHXM9BnRaIQOsw8/RINP5dg7phkJGQvwZm6JlxYMkQeSVJEYv3tQygck4jkSRtw6Xkbrq0J61K4JBKFjx5f1Tfh7EdBllEqoUXOgUd48ct26FPjkDh+GSr+asalwmBT+jHYVvsvrq0ZZo6TVfYIzd/Og5dayATG4uj1dag9m4VY1ffOwCzEOMydfRU5ngIi9Bh2T1gGT0VACR0Ss+pRMnEHkoOSEBK0GAunv8TyEYp9jCKwJPcLZAQlYGjwOqyY1YrV0Yp97Ic7Kp8iEkum7DOmH1qMVXOasHykkr+D8kkice4FjBmcA33uS3w6ahaGRXyFkrknECMEhNBixKg67Jq4FXGBsQgNLsTiGa+wYqTR/lL57NnHUfkZ7vqbCW1Km5IBMkAGyAAZIANkYGAw0GdFojXAcg48RsPRye1E4I0NRtEjXZ++5y+8rpgjj0QpItJR+Ns2Awyv3wD1RzHeNMompSVEAkr+aEa53jIqGLflHl5/M9ssCmM+v4u319djqCxqUrGnrhXfzvMxhyt1cPf3xSAvt07fK+GuOo4Y9TdK0iaZ7GMUgetiLfYJS/kT+7Jnw00ur/1wR2VSROKamKHmesWkP8fOtAnm/zum0a58kkicXirbbuSoh1g+0hfCoxAr879HqpskEuOhn/YK+aqR2uCEO9iXNctm+h3z4/8D4yZFP9KPZIAMkAEyQAbIABl4twz0aZEYMnknLtY+RWOrAQaDAZKWaz413SSCjAvPXFzqaxYNUdJKNBeXyqNtikh0FH5lUzJic7biv2/+xt4MrTktITJx8AnwRhKRBlP+bf9KK93AXRnNG7EJd97exNrhAiJ5Jx60/oh5PhZR2dsw+4Vsx3L9I5TOa8a++c3Yt6ANuzOnmexjFIGS+FLKERT/XxwYt1guvyLybIUrcWwdlfgfR1gW/glPrTPnL8WzWz6bIvEHjNJIIjEDs/LaULbAVDepfvNf48DYj8zTUW2Vjd+/25sI7U17kwEyQAbIABkgA2RgYDHQZ0WicM9F+YtGXNmci5S4WMTGxmJB+VOXi0R5uqnwxdyKV2j8Id/8zptRJL7CmcXGvKX85c8wP7PoEiIMn9x6C2m0Mn7rb2j9sQA+XZxS2t0GJTRTkD+7ASsTpmCoXwyG+MUgNeORWaQpIs6WCHQU7qhcSnxbItFh+ZwSifVYOMJYN6l+8sfLYn9HZWT4wLpZ0Z/0JxkgA2SADJABMkAG3g0DfVckhm3EbVSh0E9ZaMUNucdfdBKJHaeTGr5RplMaRxodhSsL12hGl6Lu7R1silLyk6abtuHbeR5mUegdGofkMH/z/xKkw9dV4+3VfSi7bcCPBZZROzXAbjoPeGldO8IovNdjQ34lMkwL7Qjhhtj0551EYqfpplmz7E83NYWry2/t3KFIdFQ+hyJRmm7aisVhFvt7eMViqHd7+1srG797NzcP2pl2JgNkgAyQATJABsjAwGSg74pEdz1OvWrGjd0zkRqXiHGLDuHyw4ZOIrH+1iEU5iQiSVq45h8rC9c4CFdEohChWHX1NZ4cmQQP08Ip0sI1LXe+wNz0OMRnL8TJBwZcWxPeTiSK0FWobm1Fa8t5FPh2FoLCPxpfXF2L3yrSEe3CUUbhNhUFc15hXcoMDPNLQGTEQRTN+KeTSCyZctD+wjU2wh01eIci0VH5HIpE48I1e6YeQPKgWIQEfYT8aU1YHd3e/o7L6YOcgkyszguFtwvt7yhfhg/MGyb9Sr+SATJABsgAGSADHwIDfVYkSsYfpt+DK3UNaGmpR+3Z9Sjc/6CTSLyweTFO1Ji2wPh6GeI7bIHhKFwRiVJ+3vpyNBh+QuEQ02iibwpWnb6NJ00GNNffR+XePISpFreR4ggxBKuu/gvD+UXwtSJChM8I7Lq4EreOpyDCSnhPIAsILcXK6f9gz7xn+HTsWmSk/t5JJC5PWIQFuZYtMEI6bIFhK9xRuRyJRCm+3fI5EImybd2TMSbrJrbNbcbuWbVYkTITAaotNhyVUU7DJx4natbh/IrB7cS9M3F5DX8EyAAZIANkgAyQATJABj5EBvq0SLTnEGVhmgtLOq8mKsVzFG4v7a6ECZGEXQ9e4/yivjUNUhFxy0fYso9pYRtb4YN3YbO8WIx64RjpvAIpXRRqXbGnq6/VZE9GTU0+lg7tPMrr6ryYHn9EyAAZIANkgAyQATJABgYCA/1eJKpXL1U7RBGJtsLV1/bkXF7V9PUlLPLvWyLELBJVq5uq6+kwXDMEg5XFYtodh0Hn4hFRdblcfR67cjFqjydjcD8qs6ttwPT4Y0UGyAAZIANkgAyQATLQFQYoEv/TM2CSd97H60uF8O9jIsShCBSdt8joCjj94VohvFBwbDWOzLBs09Efys0y9qxN0n60HxkgA2SADJABMkAGesZAvxWJdHzPHE/70X5kgAyQATJABsgAGSADZIAMWGOAIrGHI4nWjMrv2NjIABkgA2SADJABMkAGyAAZ6K8MUCRSJHLVTzJABsgAGSADZIAMkAEyQAbIgJkBikTCYIahvz7pYLn5lI4MkAEyQAbIABkgA2SADLiOAYpEikSKRDJABsgAGSADZIAMkAEyQAbIgJkBikTCYIaBT19c9/SFtqQtyQAZIANkgAyQATJABvorAxSJFIkUiWSADJABMkAGyAAZIANkgAyQATMDFImEwQxDf33SwXLzKR0ZIANkgAyQATJABsgAGXAdAwNeJArhjqziSlw9+RHC+tiG9wTZdSDTlrRlf2SA9ydy2x+5ZZnJLRkgA2Rg4DPQZ0WiEBEorgHOLfTs0UiXED7IO/EI9beLkaQSifryRlj+LmKhp3CYz5iDT9BYrjdfJ3xTUFR+HX83NKPpn/uo3DMDYRrH6XSlYYnJR9H4/DDGqMrelfj2rn0X5beXf18I6+/27e/l7wsM2CuDLfsq9yfjPeQNWur/xM9fFiDGvWvtvzfvT/bqxbCB/+NOH9PHZIAMkAEy0BMGBrxItGUcr8FhiIiIQMT4PbiProtEITTI3v8Qhl8PY35mAhLHrcD3j1rx88ows4i0lXdXvrfVSe1KGtaufVflt5Z3X/quv9u3v5e/L7FgrSy27KuIxKr1MYiIiETC+CL88KgNNzeOdEn77+n9yVpd+B07C2SADJABMkAGyICzDPR9kfj5IpTfqUdz41PcKv8IUaYn9ULEYnst8EO+u7lTlln2CM2nppv/n3XGYBksvLcZUVZG40RUMe7ZEIkieDJ2V9XhZXMjHlzciLVHH5tHEoWIxOZfgfOLvM35RRb9gJq9udAKAWfKJ4ImYmflfdS3vMHb1gY8qNoL/VDjSITQl6PZUnrL2fX1CDHVQxoJXHnyJh6+aEbj099wdtskBCthmWV4cu8Ydl98jpe/7sB4/SHUNdajujgN7nL57JdfAqhn6RtHgi9tK0T5nedobvoHNaeXIU5nGWmxm75pJPn8lkJ8fU/y/xPcKi9ApFYV3ycZRSdv4XGTAa3193Fxlx6hbib7OYjvjH1lG3hHYMeFlbh5NLlL05XJhyP++jcfikhUz3RI212H1tMz5fuBM+2/N+9PMrt22ocUPv7wczR8VYzPLtehqfkF6qr2IjfE0r6ka/ihDcgAGSADZIAMfJgM9HmR+PzmfizJTkTylE9wud6AqhVDne6EeQeFy6OFMeurgC6KRCF00JfXw3DnC8xJS0DqjJ248PCVSiSmYHfdG5yZZb1T5UwncXRpHVqul2ByQiSiU3OxtfIp/tw31lg/nxDExMYitrACTfVnUCCdS5+wQJMIdUf2/r/ReucQ5qYnmOzTiB/yBxvjSyKxsRKrM8ZgV00Tag/ORurCM6hvLMcUWSQ6Kn9P0zeKgPrbh1A4JhHJkzbg0vM2XFtjHGmV3sWyW36TyKu/uR9LJf/nfo5fXhpwcekQk/+1yDnwCC9+2Q59ahwSxy9DxV/NuFQYbAo35W8rvgP7KjdEERiLo9fXofZsFmKtPGRQrut4FMKRfR0/5CAfdvh+z3x0FIkeoROw/9cmXF2l8O3Yv717f7LfPiReJZHY8qQS26anImH0LJTdbkbD13nw6QLnHbnn/x9mR4J+p9/JABkgAwOPgT4vEq+tCZU7/RJ86Xv+QksXntQrwHouPNcNkRiPnfff4scCnUl0aDDjqyaXisSpJ17h6bEp0NnplNme7haDrb9ZyifVNWPv35bySSKxbjdShID0LuXFpb4QActwBWexQCuNdDoSMT1N3yjSbmywTL+V/Pe6Yg40skh1kL5JBFSvNT4UkOo35dgL1H850eSPBJT80YxyvUWkx225h9ffzG4nEm3FV9iwZV8lXDq6+/tikJebmUN1mK1zx/Z1LCLIhx2+3zMfikh822aAwdCGt/gXzy8tw0jzSLZj/yrs9M79yX77kPKWROLrirnyQyfpf/dZZ2B4XIZ0O/cjpcw8DrzOAH1Kn5IBMkAGyICagT4vEtXTuaKMK9mYpkv2dicsEweftBch6oVrXCECfMaX4YGhFU/uVKHiSAlW6WPg3aGDZkvECNG5fO3sY1MknkO+uzMisafpG0WiJE4V4OTyXVwKT1kkOkjfJALU/ldPJzbWH3gjd9KljroBr9v+lVY6MvFhzN9WfKVMtuyrhHf3SD5sPaRQ+OvffCgi8cqmZMTGJmC0fi1+fCSNJEaaHlK87/uT1L5stw+Ja3m66dHJ5vYpho7H8pWTuzSturvtg/HYESEDZIAMkAEy0LcZoEi08U6iNRHmapEoNQ7vsCzMXfk5yk7+jIeGVlSvizJ32qRwWyLGWvk+PJH4CmcWm6bhKtNxh/mZOun9XySSj/YPadrx7dRDhN7jQxGJ6ocQ/oWX8O/dzzFSfgjSF0Si7fpLbHUUidJ3/NAGZIAMkAEyQAbIgMRAnxeJtqebDsHaauCXVco7ahpMO9mIR2WZnTo6dqdzRX6GX60sXCOENF3LMt1NWg20/XTTzgu/RK06i1/LppreGbRfPik9nW8AfFRL5kcX3wEuL4OvajRRTDqCV1a2wBDCwXRNhyOJjsrf0/SNIq3jdFPDN7Ph1oXppupOePuRRMk/bfh2nofZ396hcUgO8++aSLRhX/UN0k3nAS/VgjnqMFvn1hauIR/SdOf2I4n9lQ9rIlE3/zu01W5DjMy3/fav5qZ37k/224eUP0UiOwFqDnlOHsgAGSADZEDNQJ8XiQ23D2FJtrIwy2tUFVneUUvYfA+v/yhHQWYiUqeX4EbTPziea1xtVFp4ZtDwCMvCNffLMF7a8iJiOALVK2z6FOB823N8sygRI+TwofCXp2N2XLimBJWP1e8kmrbAuHcY8zPizVtg/GJauEIysv3y+WLJhTY8Obsek1OiMDJ+HD69/AINx6bIIkpxkojdjNq3d7EvV5rWFouYUB+TCNIiu+wveeGaOaqFa75foFq4xuo7iUon3X75hehp+kaRWH/rEApzEpEkLVzzj3rhGgfpOxwpMi7M0XLnC8xNj0N89kKcfGDAtTXhXROJNuxrtr9/NL64uha/VaQjWiXelXBbR/MWI+SjwzuxCn/9mw9FJBq3wBiJ+JyFOFH7Go8OjpWnO0tc2G//vX1/st8+pPI5IxKlfRxzCjKxOi+001R4W+zze3YyyAAZIANkgAz0fwb6vEi8sG2ZvAVCS9Mz/Ld8cbvNqoVnLBYfq8bf0hYQT+6iYmM2Ak0deeWdNcveEcrZE5RlWhY7kVbZTC76HrUNBvwrX1KLzbHGcPMWGC2N+OunYmw88cS8MIwEv7wZ/ckbePiiBU31f+ByWR7CVSNO9sonxXePWoAj1+rw0vAWb1rq8aBqn3kLDKVxCREEfVk1nra8lUun3uJD3kLi1E08fNmMpme1ONdxCww7ItGp8ktbbHQzfaUTfWHzYpyoMW2B8fUyxKsFur30HYhEpfyrTt/GkyYDmuvvo3JvHsI0Jt85EV9Ow4595XCfEdh1cSVuHU9BRBdEolK+IvJhVyT2Vz4Uvo13lX/x+uVj3Dq9CqP8VPeWPnB/stU+JD6dEok+8ThRsw7nVxgfPknx+KENyAAZIANkgAwMfAb6rEgkfP0bPqUTfWGJceST/uzf/nS1/8hH/+BBkz0ZNTX5WGrav9XVHDC9/sEB/UQ/kQEyQAY+PAYoEvlkvFdGBhQRoF7dlDeYD+8GY8vn5KN/sBC7cjFqjydjcBdH0W35nd/3D7/TT/QTGSADZIAMUCRSJFIkkoFeYcDeDwxFYt//8RHCCwXHVuPIDM93zoc9dhjW99mhj+gjMkAGyED/Z4AikQKBHUAyQAbIABkgA2SADJABMkAGyICZAYpEwmCGgU99+v9TH/qQPiQDZIAMkAEyQAbIABnoKQMUiRSJFIlkgAyQATJABsgAGSADZIAMkAEzA//zf//3f1B/fH192/2vDnPmvKfxncmD17T3Ge3xvcUzTAAAIABJREFU4dnj/4uNhL0PmfjwmKDP6XMyQAbIABkgA2TAVQxQJHYQya4yLNNhI+1NBuwJRCmsN/Nm2mSbDJABMkAGyAAZIAMDmwGKRIpECop+yABF4sC+MfOHl/4lA2SADJABMkAG3icDFIn9UCC8T2CYd9+4YVEk9g0/sD3QD2SADJABMkAGyMBAZIAikSKRI4n9kAG1SAyIGYGY2UHYttcPh9YMk99VHIg3K9aJP8JkgAyQATJABsgAGXg3DFAk9kOBYK1x+ATGYUXOYqwdrqPoc5FPo+Jm40DaaCT49D2bqkXisIU+ePbP/wPU/y8MXw+hSHSR/621M373bn6YaGfamQyQATJABsjA+2VgQItEXWAaVp66jr9ftKC5vg4/f7mwyx1+nf4EGp8fwURde6Gg0yWh5Hfg7CJvsygbe+ARWk7PMv//ruAODBmP03PX48ioUUjybV/OnpRhXoUBHf9ufDLSpfWzZd+elNtVcf0GxeLjMUWonjkLuf6eLq13T8uoFokzjgrguRb7pkdgUMxIikSKxD7Fak9ZZ/z320mg/Wl/MkAGyMCHycCAFok5ZX/B8NtxLBqbitSJy1FRZ0DN50ld6kDZEjF9RSTqvEdic96n+DJ2CLw6CNmeNurAodGIjk5E8S/An4emITo6GuFBFlHc0/Sl+Lbs64q0XZGGTuePcVlrUT0xDUNdbN+elE8tEqcfkUSiDkVJRoEohfUkbcb9MH8M6Hf6nQyQATJABsgAGVAY6NMiUTc4HWtO38Kjly1ofFaL8zv1CDN11HW6aGy+A1zcvgLf/NaAlsan+O/JxYjzNo6k6XTDsKEa+KloiLnDHD6nFN9smgBvJY3ANKw+fRuPmwxobfgDlbtnItzTFH/GSbR0HEaT/r/xCcJ1OjgSiUr5KneuwKm7z9HS9A/unClCsl/7kT5dYDRKLq7CrWOjEdkNEeI/ch5uzcxFkpW4U448x4uvt+Dzqr/Q1PISdT/vx7RwxT727acAIomkZZXA7yWjzHaUwpT62bK/fM3QqSj96Q/Ut7zB29YX+PPn/ZgZ4Zx95fjB2dhw+gbq6pvRXP8nqg7MQaTiHwf+l+MHjsLy8mr8JY8kP0DVgXmINvFhDLftfylc+ej8M1CevwKFg9r7TgnvzlGnC8b0wmSkBnuZ8+lKOmqRmFGqBZ67Y8s4isSu2JDXWhinLWgLMkAGyAAZIANkQM1AnxWJOp03xn/xEK13DyM/JxVp+mJU1Tfi7KJQuVOtiJT6W19g2fhRSJu2FVdfGlC5bJgp3BvTyhvw/HwR4vw7d+6l9CcceoSXV0uQl5GMUZOL8N3fLahcHmaMHxiOxKQkJC3/Dk0NFVgsnUufqBBZZDorEhtqvsSKiaOQpt+EyudvUL0hqp0o0AUn4viNdag9N8aq0FM7y9p5yug1uJWT0C5N5TpJJLY8/Qk7Z2UgNWs+Dta04MU3cxEoi1yjSLRlPyUNRyLRXvysvXVouVEKfWocEjKmYcflZ6jbP9FJ+/phzpmXePFLKfInpiF1/DJU/NWMS2b/2i+/5N8x++tg+O2EaSS5CN/+3YrqDdHG/B34X6m/dJQeOKyd8Tn2jHB+yqlONxzF51fjt1sdPvsSTPwMgn5zPm5WL8WxDUldFotqkZi4xR14rsFePUWi2m88548dGSADZIAMkAEyQAa6x0AfFomJ2FH7FucW+ZkFUM7+h2g8NdPUyTeKhOsbIszh+hMvUX9sqvl/XcQclP/egtanNTh7aBPyEgZZwnSpKH3QglMzLQIyeftveP3tfPM1ElS2pkM6KxJvbrJM/csp+xuvv13QaVqoT9AghHbznbcxWZ/gSkZ74ak0Bkkkvv4u3zxy6j2vAobHB5GjEon27CfX38FIor3408tf4dkJPfysjHIqZbRlXyVcfZxw6AlenNDL/lEeEtjKX6dLwPbf3uLcYn+zP0fO34fTG8bI9tc56X+jDQajcOoWfBljYVFdLmvnkkgNHRmM2OgOn2G+5vJI8fxHRmPFzgWovrpEFospTo4sBowKRfFhXxz50gc3av8Xhlt+mJxAkWjNF/yuez8OtBvtRgbIABkgA2Tgw2WgD4vEsTj0tAUnZ1hEXLw0v/T8UtNIjFEknl9qEQHWFo7ReYcibc467KmoQX3zbygdG2ASGVL6wJs2AwwG4+f1m3/N6SuNwpaIcVYkVi6zCFO5/JXL4G9HNCn5Onsck7XJrkhURJWUni5iMlau0cvTWhWR5dB+DkSivfiBUw7gT0Mrnt69gu+Ol2LtzER5FFNdN1v2la4J15eisvYZGlsV/8C8MJCj8ut0nflpl68c7tj/st10RpF4JNbCmjotV5z7h4/EygOFqD2QaBb19tINGDMINc+NK5rimcAvO0MRZlq0hu8kfrg3dHvMMIxckAEyQAbIABkgA84yMOBFomIIaWQnZcc9tFUuxxB5JE0SEa9Q8bFpGqkynXREULuRHlsipq+IxOzMjfgl0ziFUqmrcpTfSTSNvCnfKUdHIstynf13Eu2JRCmNwKhxyF+zFQdO/4JHhlZc3xjvnH29p+Grl434eds0pCcbfbTwq2cuFomO/S/VQacbgmX6LTgU3X4UULGRtaOj6abqOIFRMVhZWoDqqnzsyQuBpxMPEZTppgFxEZhzTCOvbrqZ7yS2Y0ttY57zR5EMkAEyQAbIABkgA84z0IdFonPTTW2JFJ3XJJT8XIEVcZaRSJ+PfsCbe9sQJ4tEabrpG3xfYOn4B4YnIy3KstCNBJJOfxyvrG6BEYFPbwFVK0PMHdNp5S/xz+FJ8v+KCOs43dTw7fxOIsDTzwcBXpZydgXg+NQi1EwYZXVK5/sUiTqdF/wGByNQtcdgwpa7QFURBqlEkE37Rn2KGlzBiiCjXXQ6T0j2VbYYUexr0/86Ez+LjSPHkk2jFx3G2eIJqummjv0vM6AbieLZxdgZ0ZV3Eu1PN5XqMzguFmt2L8QNSRwWRmOklXdnbbGgiETpmLRVeidRi9JcTje1ZS9+7/yPAm1FW5EBMkAGyAAZIAN9WCR6Y/zBv+WFaxaoFq75cWH7hWtsi4QRWP1zC/75aSvyspKROn4xjv/WikeHJppEgnHhmhZ5YZxkpIxfitN/GswLmyiNQ5e0Db+//RX7p6XJC9ckhgeaRWH2PmlhlCPIz06RF8755WUjvi8IbicS628fxooJozBaWrjmHysL1wTF49DVtfjt2ywkqMSTkr+jo9cwParm5WO6lf0ReyoS7W2B4VikDcKyS214eu4T6NPjEZsyCcVVL+V3CtUjZbbsq/OZgdOvWnBz3xxkJI/CpMLDqHr0ogsi0RtjD0hboBgXrhk1aRV+eNSKa+vaL1zjyP+S/b1Dp+LSgo8w04qNHfnHVrhOF4biigLs+TgakV0Qh0p6apE4+aA0kuiBDekUiYp9eOSPGxkgA2SADJABMkAGus9AnxWJklPVW2A0/WN9CwxbIlGK7xmhx44f7+Dxyxa0NPyF6vIipAVaRux0g9Kx9kwNnjYb0FL/By7vn4uoDiN6Ot1QzDhwHc9a3sobYigjWcbyZWDtmdt4/KoFzc//QOWeGYgwCT1FRF3a9jHK75i2wPimCCkdt8AYFI3Si6vw3xOjEd0NkajTBWHB5E9RNT4DUartHaTy9VQkzqswdNoE5MYnI9uJYHv2945fiOPVf+Gl4S3etDTgzyuWLTCk8sk2tGPfEXll+LnuBVpaGlB77hOs+OJPp0WinPagNKw8eR1/y1tgSFtodNgCwwn/e/nHYcv0z/DdqAj4dMM/Sj07HqWRVh/VKGvHcEf/q0Xi7BP/L/DcE8u5cI35AY4j+zG8+z8atB1tRwbIABkgA2Rg4DPQp0VifwbQLBKXWUYee6s+Ou/hWDJxA27MWorCEIsI7q38PpR0h0Xm4fzcT/FNWgyCXSgQXWE/tUgctV2Lt8//F39f8MHhNcMghbkiD6Yx8H8A6GP6mAyQATJABsgAGbDGAEWiatN0awbq7neKSFSvbtrdtJyJJy3MM3xoKsYOpkh0xl7OXBM6NAkTBvt1eofUmbi9fY1aJAYkD8Wmb9zxz6P/heHrIRSJvdSme9unTJ8/0mSADJABMkAGyEBfYYAisZc6lO9aJPYVoFiOd3NzU4tEa+f0w7vxA+1MO5MBMkAGyAAZIAMDkQGKxF4SiQMRFtap79wErQlD9Xf0Vd/xFX1BX5ABMkAGyAAZIAP9jQGKRIpEvr/WDxlQC0Jr5/3tRsTy8seTDJABMkAGyAAZIAN9hwGKxH4oENiA+k4Del++sCYM1d+9r3IxX7JJBsgAGSADZIAMkIH+z8D//Oc//4H64+vr2+5/dZgz5+87vjNl5DXtfU570B5kgAyQATJABsgAGSADZIAMKAxQJHYQyYpheGQjIQNkgAyQATJABsgAGSADZOBDZIAikSKxRyPHH2KjYZ35Y0EGyAAZIANkgAyQATIwkBmgSKRIpEgkA2SADJABMkAGyAAZIANkgAyYGaBIJAxmGAby0xDWjU/7yAAZIANkgAyQATJABsiAcwxQJFIkUiSSgV5nwN07Eh9nLsSqENHrefHm79zNn3ainewxEB6dh/2pyYh2Z5u1ZyeGsR2RATIwUBmgSLQjEGadMaDj3/X1w13ayRWTj6Lx+WGMEfwhVjcyIYZi+Jf3ETdJZ9XegRtvY+yVP+TPmKqjGOLRNfsJEYShB++b0zCndWI1vFzoCzFqO7K+2wJ/F6aptpOtc0f166n9bOVr7XvvwWPw1Zx1OJychFidxU/CfTGK8h8ib7CAT9RPODBtB0JNdhLCExnj2nCw4E27z4HJa+EnBISIwVR9Gw7kHUSEKU5o4j3szpzWjhehmYOl89twQF+MwSofCBGOSbnG9A/kG7Bn1n2sSsvHEDdV+YZ/hbLppRiqiqfUz1H5lOtsHdX5S3Usm/cEm8ZsRZSnMX9n62crfen7pKzmdraT8lkbY7x/OZO+cE9CVsZVbJ79Crtn3cfK0fPN9hGhx7E734p/8q8gR+1jm/Z37D/hnozsjGvYIudfixUp0xFo8k9P7S/Zx176crgL/G+bP8f1t+dbxX9Lw93NvIen1pn578TX3EfYNHYHYr205uvttT8pb51vJJZkF6F6xkxM9HIzx7NXLoaxs0wGyAAZGDgMUCTaEYneQeGIiIjBJz8DDw7mIiIiAiF+lh9ZVzQEikTrjcmRSNT4h0IXPBS65E8wugciMWlepDEdKS3pM9gPblZEQXd9/b5Foq369dR+ztpDaMNQnPcpDkUGQNPBrkJTgOX5dZg+SMBz5AUc0G/BENM1igjYlJSDQT7hlo+nn5yOsZPciD3zHmP2EI3cgbUqEoO/wE79HWyaX4kM1YMEpRNdFBONQT4jETJkBZbObMW62BHmzrBwQiTYKp8j+7TPPxxDAvSYOvE5do9dBG+zCHZcP3v5eOgku0VjwsQ2FI+aItvQz914/3LGfuEpD7BXfxijBscjJGgJFk5rxoa4GNk+QjsYAbJfRmL8hDYUp040+SgEOrXQtml/SSTZrp8QGkSk1mGv/hBSB8cjdMgyLJ3ZiFVRYcb8TQ8Rum9/++lLdnWF/0U362/Pr3LZTA9JHIlEI9/hCArIxeTxT7Fn4koEKG3MTvtT8pfaYXbGGlRPSGn3kEUJ59H67xftQruQATIwEBgY0CJx/OHnaPiqGJ9drkNT8wvUVe1Frmm6mxARKK4Bzm8pxNf36tHc+AS3ygsQqbWMJEgOln4kl14EarcnmjuPxu8dxxdBE7Gz8j7qW97gbWsDHlTthX6oaaRAX47mjsOU0v/X1yNE+REPSMPaU9fxZ30Tmuof4HLZTISZn6Q7kb9PIgqPX0NdQzOa6v/A5bJZCFfVT/gko+jkLTxuMqC1/j4u7tIjVNXBcwS48IxB6KYKpJ+/h+wfLiKhcCw8zOUzjgTGL5yNmGM3kHX+KlI2ToOnxmJf4ZOIoZvOYPT3Ncj6vhIJRRPNHUyzSCyYiagj15F1/hqSN06Hl6r8sh+GLccoGyLRfvmMI4kJud7t/Kqus734ct72yp9egqwqKyOVBxfDQxYBIxB+4j7iJlgeOvgWXUHWpvHm8vivqUbmpyswvPQnZF+4hdF7NiEwUGU/u/Z3XD+H9rNTPzmudxKGbb+AjPO3MbpkCULXXUXmuixz+aVrvMLm4NaMSYjtIBDl+GIGFs2/g8l+Am5hFTgwZb15xFURietiw9ulJ8UzxpVExlOsGH8b20ePk4W9NZEYknAXO9MWYeKUVygYZhl1UUTaxxGe5vTDUh5gT9YM8//OiARb5VPKaetoLX8xtBx7Zx1CpFkkOq6frfSV7xU7fpaYYK6XFGYUibbTF2IIxk5qw4qR/uZ4fsN2YGFsdjuxL4Q7Ro9tw6YEo3hU8lWOtu1v339CjMQUfRs+jrC0z8FR32JDyhTTQwLjSHP37W8/fdlGTjwkcJR/d+uv2M/W0dmRRDXfwu9zfJb/EzJND0uEnfanzld4jsaJ/OVY7Gu596jDec7OMBkgA2RgYDIw4EViy5NKbJueioTRs1B2uxkNX+fBR+6EGUVW/c39WJqdiOTcz/HLSwMuLh1i7hRJ0DsSifbijy6tQ8v1EkxOiER0ai62Vj7Fn/vGyukLnxDExMYitrACTfVnUCCdS5+wQGjl8ukw8/RLNPxcgrljkpGQvQRn6ppwYYmxfIrItZW/EFpk7quD4d5R5GcmIGHsx6j4qxXX1kQY8xda5Bx4hBe/bIc+NQ6J45eh4q9mXCoMbld/Ww1fSt+v6Aoy961GYORIeCfPRezpO0iYOtiUvlEkZn7xGYLjo+GTVoSks78iIXeQKdwDgz67hcx96zA4MRbe8bMQ81UN4s3hHeKPLkTC9/eQOK2Df2yIRMflsy+iHMd3UH7PIHiFjYDX/8/em3i3VZz//39Ov5/5WF6+tmTZP8WrcrzbsrwvR7Ysx7st75YtyYKSAmFJICyhhVKWQoCmLYEAhaZlp4GkQFhjStNA6act/X5Yyhpo+/6duffO1ZV8F9myE9s8OcfnKrq6c595ntfMnffM3JmJw+h76h4U88/8r6RAEjSMpSYS+44fRWWvF/aGUdQcWUHvoRGFDyv/m+dPxJUZ+s8ifywDjr0nEHjkLpR4G5E/cBNajr+1SiQ2tV+DN/36AoKxAYTmX0Egl4GVH8XdQ5cjV3SQKCNFRo1wuZH8T4QbbsANs0dQm8GQLBIZ24XA8Bf4fmUeuAC8taNHZTtZpGXmDWI2+E9co4xUSWV/A0SC8HPyMfn+GZk16PR/gMPDV0lCOZX8Jaep939zkWjsP85/o+//4Sf9l6FI07GTfA8zkWjufy4Sze7fhqmp84hV6AsTkS8jPpLtTP4/Y+bp89+n20mQTv6T7U3+/7pEouN6HIy8jH5lOrBZ+dPej3cYXD11C+6qoCmnWr/Q553ZKKa4UlyJgTgDO14kfnM8JDWqedCz5p7A+b8fhk8jEk/vd6sNx7Gjn+LjXwyr/+fXWIlEs+snHv4M/zg6hhydURQB4Vqmmwbu/zs+eXBUEVmyyDW6P2MN+NG7/8Yz0fhIScX83Xj02l6lJ74Zd7z3JY4F440w74/exTe/nk/Iv7Az+chYPaqPraDBF78+L/YMAoeEfbLIa52Li7rC695Ez/5ew/Sd+15WRYYYSWydLVZ/n3/FSfTdnBQfQ5FjZZ8sogIvvovAifhfW0SebmiVv2R/8P9r7RfnjaabpioSA7eMq9NfMwL3IPDrm5Av8Zte/lT7DPwnzmuP2vwxVgr3kXNonY6L/pLb/qjGT1zX4zuIU936o4HiN3pHIQLuW/oK9y59qfx9hshumTe5kfwFIm7+buGHCJVkrhaJtllcuvgy+nMZbOUP467xG+FSRaj8TuJ9YZ7217gv8g1+Mrg3YUpdKiLByD69PGm/EyJRvv+XOBz5BndN/gq9Tvkd3FTyp03P6LPwo/5IooX/8qYRDn6Gn86+jss6D6DJma+WRXE/U5Fo6n8uEo3vbyXiRL7W7/+NEYlm92dp5F/41+i4VpGYYatCa885HA7epr73a5R28veMOXHJ2I9wpFb//fDk39P/4w0s8gX5ghggBrYzAzteJApRxYPE3IO44qpRVGpE4rOxuIjqPfw3fPnoVEJDyEokml3vGDyM989/jQ9XTuL4L+/A1UGP9L6RFhgzkVg2+hO8cPYf+Pzr8zh//jy++RdU+8RIotH9GevFAx8misCE+0rngX99K6ctpf/tf4BnY8gyEbUiDd6Iqz1+Dgki68U/of/2aWWkTBaJ2oVnkqdTZnfuR/NDr8L/giLSXjqnTrcUIlF7fV7kSTV91Q4DkWNtnywS2y5pk0f4lJG+nAJ5SqLV9fz+Zvar9hksXJOqSNRO32RFPpRN+6VOByv7xMI1RvlT7TPwn1X+eCO1+tGz8ATinQQFV62ebtrruyEtkXhj+zBKnB7lrwFOZaVFuZH8JaJuhl3e13F79xDcLX9QF+7g9rPi+3D75I+l6dss6xJcufQ8fOr1ski8ytuKEmcTKsqvwd4ZPpJYq5b/VESikX3Cv0ZHIRKl+xfuxd7Q/yJcHm+Ep5I/o7S13wsxpS8Szf3H02EZRXDv3ofJvtdxR2gFwaI81T/SeZPppub+5yLR+P6c71RGEtfvf/P0pbylMJJsdv908q+Nod7nVEWi2gkR/hY/nXoSAVd8+q5eunrfCZH487r4s1Lvd/QdNYaJAWKAGNhZDHynRKIWXiuRJX6bjkjkadgr/QhddQsOP/J7/PX81zh9oD6xkWWwuinLGsexTz/HqR+Oo90rT0UNH/vHBovEz/DEpco0VzHddbczwT7hh+SjLFLegmdMmUYpplMWO6Tr9USeViSyzADqn34bLcsBOJRri294dYNFopl9skhsmXbp5tcyfxb2C3+lO5KoFYkiTX60tE9ZvdUofyItw+mmFvljrBHVj1mLxO7ug/h9tzzFWdwzlaMQN0bTCbUiitmvw/Vzv0CgZSVBJJY0n8H94S9xd+gz3B36HIcj/0SkXCzcIotE7TtbubXP4b6J+CqoqYhEI/us8ihEIr8/H43z9vwDd++JqLMOUsmf1T34eeFHM5Fo5D9t+nz6aVnzGRwe/L46JVhO3/idRHP/x0Wi3v1TFYnr9//GiESz+6eTf63v9T6nKhLlTpAGFOcVJLxLqpem0XeMFeCyCT6SmK1bVxpdR9/vrMYixZPiSQx89xggkbhJI4l8db6c/EI4NHtMNRxaAV68XJouKAobG/klPtPZAoNVHsTbOIm9TjG9LgPjD326BpHowa1/5NNN4z3/VZEjeOqGgGa66bf4zWL8wW8v96KtMr5QhbAxqyAfu3IT30eRp2OeReNAfDEQ265aOErkKWmWIrHkMrSfPIZSezx/ruvfXCUSLaebui9Hh87CNdb2WYlEPp3TJH8W9gvfsY7bdLfA4O8rue87h9YZMV3TBteNZ+Db16Y2xKSFa5IWglHTlab7mtiXqkg08p9F/kR8mydEp4ANRYdWVk03rW/dhzMDrar4EfZbHYW4MWqEJ4goVomhMb4IyxuqSGSsEP6h87ja24ri/Drpr6Pn7/hhe7fSibFaJGZWHsdh7QqrKYwkGdlnnb/E+2cU34fblk5J72fya63yZ5W+OC/8aCoS9fyXsQcTw4+hR7NYiU3yT1xEy3bqi0Rr/2tEot79dRauKW54Ejd2jG/awjXa9KW8pRH/dPMv4md05OVvaOxb7KuLd3I1+j7C7V3KO+/KFi/aThCjtKy+Z6wCN80dwm3uxGeA1XV0/rvXoKSYU8yJgZ3FAIlEE5FotgWG1UgkY/n4/vPf4sNnrsNoez1qmwZw04uf4pOjY+o7ZrwwscYf4uy/38G9423SwjWecqXRnRXEo599idfvnkGHtwUDlxzBi3/9ZA0iMRO9h+ML17QMXInf/vVrvHK1/H4YHxngC9d8tfIzhHxeNPXF8Mj75/HqtYnvjzGXF0dfP4Czz/gTVqgUC7v0/fIWFDXWwt40jYZH/oDWWfkdTyEitNNFE0cS96Dh2RW0XT4MR2UDCkZvQfMTb6wSib1HbkFpUz0c0sI1f0TLVPwdR8l/uZNoevE0GkcbkCttY1GCzEy+j568sIuxfVYi0eL6THP7RUXJKveh86WnUdPtkae17oqLdvvyswgcuxPF3gY4evej7bnTqO+OnzcXiRb2pSoSjfxnkT/uX25f38+uQX5+Fmw1MTQdP7NKJNpKJ3BycQkTmu0nhG/MjkLcGG1xoBVRPJ3CxtPyiKGyTyKzTeGS0FlMFMSnw+ZUP4XDY9dLWwCIkTx5i4AalBUvIxz8Crd29qsjLtJI4syDaFWnu/Jpr9Vw2Dhf8uqaRvaZ5Y2fE/cXjXh55Oxb3NDcoIjYuIjSy59V+vy89RYY8nRPvfQZ243A8Ge4ffAQmnY1oqw4glDwc9zaGUisvwymm1r73zx/iVtgeONbYDRsxhYYq9PnPkkn/unmP5X4Vra/h3uDR9C2ywt3+SFcvfApLq0sNOwESSVNvd9kFo3hhXAEwTWWYb206Lud1YCkeFI8iYGdzQCJRBOROPfE+VWbVLx2ndiMWl44xuidQF5wsurD+OWrH+Cf5/+Nf331Md4/ea+6BYYoWPzdseDh0/jHV/+W7qV9J3J38Kc49cEn+Oqrj3H2meuw9773UxaJPH2W34Yrjp3GXz75StlCI2kLjPx2XP2rt/HhF+fx5cfncOKeWVQmrWTIHDW483dX4c2H2tVNy1Xb8xrhvvk30hYY/idfQPOVI8hRrrcSiTyNnJ4b0PLoG+h7/nV0/vhSlO47sUokNl0Sgufoa+h77jTabphdvQUGy4Rj+gF0PvUu+k+eQ//J51BRqYxOmtpnLhIl/5lcb2W/6iPmgmvf4+h5/iz2nHpPzZ+UfnYNSq97HN1Pr8B//Gk0hjoS3gc1E4kNKakNAAAgAElEQVRW9ol3Ei2nm5r4zyw+0v2LR1B/7B30n/wT+h67E7W3nF4lEvn7TKHhm3ByT2fC9ivCP0ZHIcL4BvDav/tH98MpvVOcKDKY/VpcF/k2PpJYdA9uCx1Do2ZLF5Z/E25ceg5dWVzkySN5PO37I9/g3oW/4Dr/PlRoRv4lkZC0Yfz9kXcx5oyLRK1tUlqKfUb5Et+L+wuRyL8vaV7B/dP3KO9Mm+dPpGN2bPV/meA7bt9+j6i/rNPPyBvGeOAt3LrwOe6efx/X9OyFW+Mffm+jhWuYpf+t7883uw/0nMaP5vn9z2Jfxwxc6hY7skhfr/8l203Sl87zkcR1xn8j8m8WW9n+dvT7X8NtPD5zZ3Fl24RmC5nEkWqrtIzO23LrcWjyJvymzZ1QNxn9nr7f2Q1Gii/Flxj4bjGwo0UiwfzdgpnifeHjzTKykV1cDFsmk0YWe6/1qdNlRTxYViliQ9fhtdnv45Jd8ZE9cX4nHlnRnfihuiqrWJ2VH4+jXSNc15v3zU5/vXZtleu2u3+2gv0lVdN4NnQTnuisVVcF3irxJTsufF1PPiefEwPfPQZIJCqbcxP83z34KebpxZyxbGSVuJFT6kZupR81D/4RrTP6+2zy6amlxS3wK+/Y7nTfM1sJihKmqYoVWnev+f1MPV9tdvp699xO3213/2wF+3cVexFw5iRML95ODJCt6dXv5D/yHzFADJBIJJG4auSHKgaqGFJhgLEu1P32nDSNNvC719F5WwwOZaPuVK6n3xBnxAAxQAwQA8QAMUAMbE0GSCSSSCSRSAwQA8QAMUAMEAPEADFADBADxIDKAIlEgkGFgXpytmZPDsWF4kIMEAPEADFADBADxAAxcCEZIJFIIpFEIjFADBADxAAxQAwQA8QAMUAMEAMqAyQSCQYVhgvZO0H3ot4wYoAYIAaIAWKAGCAGiAFiYGsyQCKRRCKJRGKAGCAGiAFigBggBogBYoAYIAZUBkgkEgwqDNSTszV7ciguFBdigBggBogBYoAYIAaIgQvJAIlEEokkEokBYoAYIAaIAWKAGCAGiAFigBhQGSCRSDCoMFzI3gm6F/WGEQPEADFADBADxAAxcPEZyC31oLW2CJmM6bYJrc5TDC9+DDcjBiQSSSTqVggbBRtjGShuHsaYvwZ2g8pno+5F6ezMSmorx5X4To05m92NFv8I2sr1GyBbOcZkW2ox3ol+ovL93Y095/lixt/pCWCwsxau7M2vMxnLhWdsGVMtTt32oNX5nVj2KU9y2SeRaCISKwNRXHLJJQl/4167biFaL1CsvAdLIR9KtpmAYsyB5mAMgzU2U38wloWK3nmEgi1wpZnHku55LPnd6v1YlgsN/nHMLYYRDk1juLMCjozNr1DXG+vNuM6IH8acaJuKITbvQ7Hi98K2KYT7dqv+2wx7RJrM7Uc4FksoO7wsxWJjaMi1jpHgS74miqW5IPyeImSlyZCwb6OO6fJtFL907UvX/+neX3t9VnELgovzGG6vgStHjr02vjzG0UgIkwNtKFPYSIXf5PI/1OGGfYPL/2bFR+sfvc/CP0N1WWp5LfWFsNhTrv5f77p0vtPWr27/klp2Y7Eh1Nisy+xa7i3yJ56vyfFfS1pmvzWKHyvuxHy4D24NL8zVjpnoEGqy4nlNt3yb2WZ2LhX++fXMVoWBaAyxyVbka+pGZqvG4PIywnuqpZEhxnaha2YZy1MtcDIGxmyoG9Kpn8e9yNWkY2aj1TmWVYfh2Dy6ihhyG0YRm2lDoZI2xf+/YeYf7tvMfDeaAlNYmu1DZV6cSSu/r+c8y/NgfHkKzU79+1idT76nVXxT4dusfhfpp1M/8g4AR1UvpiIxxLZhGzzZ55v1fxKJJiIxM9cOh8MJ72gM093lcDgcyM3K2NCHtNFDbLMCvlHpikJqJRI36n48HW0jRurh65pDdNKHquJCFJbWY898BKOejRXxG2n/ZqRlxI9cCUcQiSygu1Rm9oKKxMwc2B0OOBz58I7EMN1VJpUfhyMXWZqGmZFPBF8jXicc+QUoru5CMBKC3525oeXP6P4X6nuj+KV7f5am/9O9v7ieZZbCN7+E4XoHMjSNz4T4OhxwutxoG1tEeLAWOVIjlndyGPO7uvx7MDAXwUj9xpb/zYqP8I/RUfgnnUaQUdpG32vr18wc/uxzwFHaielNFIlS+daJv5GNa/3eKH4sowL9kTm074o3iiUhM+HdEjNeUq2/WakPoekpTEVHUKcZcZJE4vwkJuf6UWljYIVtmJqcxHSSSJxsL1HqZV5XO+DIzUoop2v1t/b3zFaDodgcOnYxZNcNIzbVKglU/hvB93c5/mb+EX5kLBvu3jmEh+s2TLyLtLVHe+M4loPNcGjq6LWc1/6Wf7aKrxXfVvW7SH+99SPv/CluHkMoPAWfb2hbDtQk+3yz/r+jRaLU89rXgubhWYTDi5gZ6US52lOtjIS11CEwGUI4PI+gvxr5SQ1Y0eM21VaY0DgVkA6aXM9yy9A+PI1QZBnLEfn+bqVHyLCnX9OTx7KL0Ng3jpkQHymbwXBXhVqIU7p/ViHqescwK4208esrE3raWVYhGvwTmAtHEQlNY6jdjTyDSiIZwPj9a+APcv8tYMJfA6fGf9qR2JjycBLpxK839j/LLUfHyAyWwkuYHvKisSc+kshYPlon+UhmXDTkNwwg2FmuPuR4T5SH54/nf2ESA61lakXLirowP9WLjqEQlibbUOr2YXYphLGWIul6Yd9wa52SvxCCgXoUaHrUTdMXI61mfJj4X9zfiC8rfuRKOITh4SAWfKVgjCFZJJryZeEfHsdU+OHlp2YwpjuNJSX/KSPV/KHh7l3EYm98JMXq/mblT9hvVj7M6g9+fSp8G/FjFT/ZPmN++Xkr+6Q0DPzPG40zy2PwaHqoWWk3FsJ7UJHJRxrk+tHIftk+6/ojq2oPIrOdq2YRiPS1nUxsdx+iIR9KVZFozK9e+Xd6RzDjc2vKv7l9ZnxYxUcuXzEMVMdnUhR1zSeM1FvFx4xf4R+zRpBp+U2l/jGpX3l8pRg7mzFlIBLN7OfXmuVf5M8o/jJf5vyb1h9GMxmU5ytjOWgYjWG8Ue5U4PVLRSCM2c4i9TlvVr5l+4z5KmiZxEzHLvBpeo1jMcx3FkujdzUDi+hJYcp1KvU3t6GgdRIhXy2aJsLoq4h3YEsiMToAf2AOfbttcLYEMeb3YzZJJE54HWp+eXob+cdYBQLRSbQ4GTKq9iA20aS2Lyj+XEgZ+0cbB5bbgLHlIJry4x0a2vPpfmbMDm9wGRNN+ixYnde7v1V8rfi2qt9F+mb1o55d4jt+f2+/HzXOTPCOlsU1jiQyWxG6ZqIINjulthUX85WBEJYGa9Q2prjXdj/ueJEYmR9G624XCndVoDMYxmKgQpqyJiALTXShrrgQrvIWjC1FMVSXm1BRWolEs+t3dcwgMt6O8sJ8OF3laB1ewExXqZQ+y8pFgdMJZ10/wqEAqvln/mfPVkSKDRWBJSyOtqOqxIXC4loEZsMYqpXts7Jf7omZQXSyB9VFfKStDv2zEYx55IqAny/pmsfiWBvcrgJpJK5/NozhpPwbAa69f63kPy+GQ1GM1Oep/pNHYh3gjTcjkWjkP+53tz+EaLAblUWFcFW0Y2huSZ1uypgLHbPLCFTqV5z8+uKuOUSCPlTx68u5fUsYqM6R/c9F0NIwPMUlaA+GMdVdCVdNAKElP8qlRqrcSA4FfagrKYSrTM7fmDJSaZm+0kgzzp+5/7X+1ePTmh8+EhNGr6cJkws+lGYkikRuvylflv4xt19ww++jJxJT9Z+2Eelqm8Fyf5UcvxT4NS1//F3ZLuPywe3njVyj+oOfT4lvI35SKP9m/KZiH/+Nsf+daJ2KQfDMf1vcOY/wniplepoV/6nFv6hjFpFAhVon8PvIdimddKITIDMfNYF5LI95pIak3Igw49eq/FvbZ8qHZXzk6dxWItGIH6v6V5R/o0aQZfm1rH/M61c1TgYi0cp+fr1Z+RH5E+WbrYq/Rf1tVb9bxI/bxwVWdKAaNqm+34XOuTD87rjQMi/f5nxxURTpr0IGK4ZvbBozgzWwSR2bQTTZ9Z9Zwuf8aMW//JsceEaj2FOVCV7O5rviAlcSibFhNNT2Y763Bt6xILx1PVi6oCKxFD2hcXhyGZi7F+GRevV1AYo/j7GxfxJZKET7zDL6K+Nsas+n+5nZvQguT8BrwKXVeb37W8fXqn1iVb/Lzw+j+lHPJu13vP7KUAY01iMSeVpZ7l4shIdRm8tgK+7EbGQMHod12dbasR0+73iRGJUqajlwtsoAovOdKNKIgLHGuKgp711EyFeW0KDhD2M+d99oJNHsenfvEhZ6y6WHkBEMRtNh9H4viTrlnRRRCI3uzx8yLZPLGNT0dNsrO9DnKVZEKK94+EMxDjXv/YwGKhPyr2cH/069vyfuv6JO/QahrWbQUCQa21+A9ullDIhGJO/p7QuvQSQWoHUyfj23ubhzDmHlnUZpJHG2Qxrh4NOseGXDsusxGhtAdUZ8JEXb08rzF+2vVPxnkb7SSDPOn7n/Vf9a8WnwTqvcyIjCv5tXpiH4SjNWjSQmxzaBLy4STf1jbr9I21ikpOY/0Yjk6SWKROv7m5U/q/LB78cbuUb1h8gfP5rxbcSPuN6o/DNm7p9U7TPyP7+el/flca8iylzonI1gT5X8Dpzgz8h+xqz9z+9R1hNCyCd3jIk886NIf3k5img0imgshvB0AHUF8sicFb/WnUTW9pnxIWw1jk9qItGIHyv/qf7hvlH+lpdjpu8kJpRfy/rHvH5V828oEq39a1Z+1PwZxt+c/1TKh8SZQf0oneNTNcXIdS5/J2sYtZr3EYUP9Mu3ef75+42zfOpqZi0GB3zoHW1DASuHPxTA7hRm61jxL9lvq8Ae3jDNZcjgI6fBZnWqrCwSeaO1GgPTs5gJtsBR0YdokkiMafiKRsPwV8TbAyL/m3Gk+Kc+aiuN5E3EMFyXnVLbbK3xym8OYtlkmrXVeb37WceX15/G7RPr+l0Wicsafq3qRz07+XfrFYl8NkL1nkXM93rQOhFBsKVQncVidK/t+P2OF4naF/1ZXinqPeXSlE0BsbYRmjxdSALIQiSaXZ9V2oXpaATzwRH097TD4y5YtbywUSOE3zu3vB1DUwtYiigNheWYOp3Jyn7GitA9nygCtYDK52NQG2lSYYshJvV4Wj8o9O7vbA7qXq//kE0cSeC2af2vZ7/2nRnrSmR1/rX2GYvEQVTzdziURpa2p0q6fqhO6Xm2SF+53ogPK/+L+xtdL2JpxI9oZPTtZnA0TUidH67WxIVrTPkyFInCPzz/1vwYiRS9+CbER8d/iSLR+v5m5U/v/sKn4sgbuUb1h/gNP5rxbcSPuN44fuZ88etTsc/I//x65miSepAb7Qy8UTsdGUCV0kgW/BnZb8WvyF95D+94MxaJo00uOAvrMRBehN8dn7ppxa+2/Ntq9qhCKjpcj2ypEzA9PoT9xvFJTSQa8WPlP+H/sZZd8gwTpxO1gUQeTcuvTvlZS/2q5t9QJFr714xPkT/j+Jvzr1d+tfWHar+ZSJQWfZlESwGDrbIfUY3IEtfzo375Ns8/X5RkhAtQV7u0oJp3pB8VfNrgZCsK1iASzepvVtKN0HS7lB7LqsVwNC5yZZEYhNeehfJmP7qq88Eq+9XOWl4vSJ3fnWUqX3wmU56OSNb6YqM+U/zXIRLrN14k8mmdfDBBO6NEG2Or89rfaj9bx1cWiUZ8W9fvcvvRrH7U2mP2eb0ikafJ7PUYDcewPNOFIs2rSGb3227nvlMiURscAbFlI1xUpkbvJGpW99Q+hMW9Mu3FqPK0oMs/irloBOONiUsMGzZCbOXwLy5htKUcrgJ5Kmq1f2GDReISArXKNFd1umt8NT2RB72jnv/0HtL8Wv2HLInE7nlj/+v5V48vQ36k1U2j4JWwNF0k1IMGjUhkVnylJBKN7RfMGIkUq0aeXv65SOQjuTxt+Xrr+xuVP737C5vFMbmRK75PPprxbSSyRBrG8TNvJPPrU7HPyP/8eu5j78QyJrx2aepdZKBm1XQwI/tT9T+3MXl2hri3WB2ZT/3hU8vDg9Wa+8cbEbr8aqabsyy71NAtbQ8iNtqgEYnr58M6PmsXiSJNOf88vsb2Cf61/tfG27L8XhCRaGw/z6PWXm3e5fzH63/9+Jvzr1d+9Z4/RuVLtiEXjePL0ggNn2qtna6ptVe/fFvFrwS+0DDqavoxWJ+Nir5ReCs6MDtQndJog7aTRI9/bp+zdRKx5SjC4TDC4Qiisfh0WVUkaqa/sarVIlE7U0Cb583+LPjm7S+Kv7lg5COJvK4c1qx0vFHxYc4WTCa9m65N2+q89rfaz9bxTbd+l+sPo/pRa4vV53REYoarHVO8/IX2oEJZudvqftvtPIlEC5Gn9ritUSTyis+WlZ2wkiN/eTw2HJ+Xz2FhZfpbYDB7E4KxEdSpPfsMfDqs2MJAWwgFdFoRIabjDFbHF3axV/sw4C3RTDfl7zPEe+8z8wrgsq/urbLl2JGbmTi6KO4/luZ0UyORLk/Hik8X5f5MnG66euEap2cAk53ywhUi/2K6KvdRatNNxUiZXAlpH6LSdNNApfKistV0qHgjSD8+fLqSsf+Ff438I9I05EcrEiUxIC8CovJjxZelSDS3X7XP8J3EtflPakjwhWvU6dbm97cqf4IPo/LB7Tdr5Ir88aN+I9KcH3G9cfzM/ZOqfWYikachrWo31oWuYBQDNfEOIsGfMf/m/hf544slLQ/WrJ5BkSRiMkq6MR+Nb4+S0EjW41dn4Spp+qwyE0KuP8zKV5r1s7IgyZhHvCOegd3+cILQMOPH2j7zRlD6zwceP+P6VcSP5TdjUmfhGiv7rfgUfIn6bXX8zfkX5deoflftN3i+ivO842nJXwdv0sIv4jw/6pdvc/75gjXe8Wn4/UPwlTIUtIyh17cH0+27Vk0Z1H++ahrRuvxno35kGWNNhepIYLU/pC68s51EIvfxdzn+Wtb0PjP+XutCJOHVIL3frec7/l4ufw/caNsTq/NG97Qu31Z8r27fJdbv5vWjkV1631uJRL3yydNhGU60BCOYbC1D7eAS5v1utZNT7z7b9TsSiSYi0WwLjORCwAFIFGlZqB1axvygF+UuJ/ILStE0LK/OyFeaFMDwnpqp5Ul0lcuVfUGe8k5Qhht9S2FMdFTAVVCI0hofhufWIhIzUNQ1q1m4ph575vjCNfHV3Pg7LJFgN6qKClBQXAP/TFQ9r9qXW4PhCB9Oj+9xxM+J/C8GfUhYuKZBfkeRN05z7PKy2tLCNdNdKJW2RLAjWzOdUzQSVvtv9cIKw3PadxL5wiNziE7xLTDkhXf4Fhja/BXzdySDPnnhG2Xhmj3ahWt037lLFImhCaOFazJgmn5SI3h1/uSFD4z8L/xr5B81Pkb8aEQi/629aULucVb2SWRWfFmKRHP7VfsMRWJq/jPaAoOLQDN++RLXZuWPX29WPrj95o381Pg24kf1j2H8zP1jZZ+avoH/1fN5HoxF+FYTg0n7w8kPYSP7rfwv0s/g732FB1GtWZ6fn0vmW5peNBPDZEuBMlIcb0Tw36/iV1p4SFv++cJcUYw35ivXp8eHsN+ofubnC1umEJ3xo5ov3LW7DRPhEHrL451y5vxY2WfeCLIsv5b1j3n9quY/i++3F0J/TaGyVUIesqV3ts3t59eb51/On6jfVsffnH/On1n9q9pvUL7E+YzyXixNBREMJ20hYfn8ss7/bv88pqcH0ZjHYKsewNT0tPTuu7g3PzLD56sF/7YK9Idn0FoYb0tk1Qyq75alKhKttsBgLA/ljW1oqyve0Aawdfk3j+9Oib+WBaPPGUVdmOP7dybVoUa/T/V73tHSNr2MkfrExRrF9Vbnxe/0jtbxteDbsn43rx/1bNJ+x9unuQ5lFl1tAEvq4pH2BM6NyidPy+EZQ2TOhxLennU2YSI6i66S+KCL9n7b+TOJRBORqF0CW2z6O+4VIivxIcch0IpE/n+bsxo9Y7NYivItMEKYGemC2AJDQMN7HN1d41iILEubF4uRHn7e7u7E6MwiIpEQpga9qOuaSXkkkV/Plwiv949jdjGibKGRvAWGC55AEPPhqLoZffJm1Cx7N/zzYSyONap7HElpK42QodZ6aQuRiLQFRi0KxIpR0juROpv1KpvrJlciPM1k/8lbYMxiKRLG7EgLvL3xLTBE/qQtPNT8VSRt8eGCp28Cc0t8C4wpDCZvgZGCSBxqqUWvtMWHwRYYRulbNNKE/Ub+T8U/chz0+dGOxEi/szciyBcHUUQi/86ULwuRaGU/Py/9xkSkSEvYW/iPl7tYbBnh+SACjYkNFel6E36typ9V+TBv5PLpZtZ8m/Ej+0c/fqp/DfzDz5vZx8/L6euvLhs/nwvPWAzRwfhUU/k65SFsxb+J/+V07GgYWcLCYD2cmtkIenw7W6YQm+tSFhZLbEQwHX55/LTlf6SrEg7NeyHp8iHbbxIfmxO1vWPyFjvzk+j3FktTXYVvreJjZp/wj9l0KtPym0r9I22BYVy/yvnPgKthD6YWo4jFYojFpqQtDaRzfIshk/ib5V/kT4hEnp42/mr6JvxL/jM5L9tvHD/5HjUY0tuM3uL5pdpnkn8+8hGLBODm78gWd2IutoCu4riok9IwfL6a8y+9Ux/2w63Zcorx90e5mMhiSFUkinaNOMY0W3DJeazD8HIMU62JW4Dxc+n8UfxT819Grhu+qTAm24tMF0BcTyyYqw0zfH9Ng2mSVufN7mkV31TaJ2b1u0jfrH40t4+XL73ntzxIIK41bP/m1mBoKYRAhTzzTup07pjG8lQbXJoyKdLZzscdLRK3c2DI9tQq0c3yk1oJ1can4G3WvSjdixvrzfD/duGHj+Dwac+DNYnTzDfSfv6w9w4vIDw/Dq9m8/LN8DulufPKEsX04sU0w92LpVgQXs27jRSPCxMPe7UfM0tLCHaVG04HTScWrvYZRIfrEjq2tOlZndf+lj5fGCYuhp9JJKbZI3Yxgkb33PwCqTaSN+FlcYrf5sfvYvt4u/AjrWoaHV41lWmj7efTe+wlNSh3Jo6kXOw40f13flmkGK8/xoVcSJi8s0a+Xb9vrXyXW1IJtzNbWgPB6rdrPS9WDx2qTewcFOlYnRe/o+PmxX+r+JZEIonEtKaNbBWQN9qOjW4kb7R9lN7Wrpy3Cz+u9mnd3uTtYj+Vg61dDig+2zc+fB84z1gUQ7U51EagduKaGfi/BblojXWBH3k9cKH/T3XPxtQ9JBKp8K+58FPh25jCR34kPxIDxAAxQAwQA8TATmKgoKJQEogX67iTfHmx80IikUQiiURigBggBogBYoAYIAaIAWIgbQYu5giiGLm82OJqp9yfRCJVCGlXCDulMFA+qDeXGCAGiAFigBggBogBYoAY+G+QSCSRSCKRGCAGiAFigBggBogBYoAYIAaIAZUBEokEgwoD9ZpQzxkxQAwQA8QAMUAMEAPEADFADJBIJJFIIpEYIAaIAWKAGCAGiAFigBggBogBlQESiQSDCgP1GlGvETFADBADxAAxQAwQA8QAMUAMkEgkkUgikRggBogBYoAYIAaIAWKAGNBlILfUg9baImQytq7zJDi3p+AkkUgVgm6BpwK9PQs0xY3iRgysnQGb3Y0W/wjayvUbQOTTtfuUfEY+M2PA6QlgsLMWruz1lznGMlDcPIwxfw3sBuLFzIbtck6vftoI/6Waf8Zy4RlbxlSLU7e9aHU+1fvQ77ZenUEi0UQkVgaiuOSSSxL+xr123UKyXrhZeQ+WQj6U7OAKzsw3Rvlnbj/CsViC73ksYrExNOSu/6EibGHMgeZgDIM1tnXFk9mqMbi8jPCeaqlnjbFd6JpZxvJUC5zrjGVJ9zyW/O6U7HH7l1TfxGJDqLGl7xPhG34U/hH8RyMhTA60oUzxPWNOtE3FEJv3oVjJb2HbFMJ9u1X7WZYLDf5xzC2GEQ5NY6jDDXvGBtt5kcqP8M9QXZaa31JfCIs95er/tf7ciM9aPjY9/jucb208sopbEFycx3B7DVw5Mp8ivsS/fqNF+If41/ePli/xWVt+xXdGx00v3ynU39w2ZqvCQDSG2GQr8jXPNavnH2M21A3pPL/HvchV0snMd6MpMIWl2T5U5q3vucBYFip65xEKtsClsc/Ir2v93qh9YpWOVfyszmvT16uf+PmN8J/2PmafWZ4H48tTaHbqx8nqfHLaov7YrPpVpJ9O/cQ7IBxVvZiKxBD7DrfRSSSaiMTMXDscDie8ozFMd5fD4XAgNytjQxuB662Ekgvddv2/Uf5ZZg7sDgccjnx4R2KY7iqT/O9w5CJrA4SGqETSEonzk5ic60eljYEVtmFqchLTF0gkZuZwNh1wlHZiehNF4ojXKd3H6XKjbWwR4cFa5DAGWSRGEIksoLtULhNakSj18HbNITrpQ1VxIQpLPRiYi2Ckfmd0sgh+0nkIrbXMahuZmx5/LhJ3MN/C9yyzFL75JQzXO5ChaWSK+BL/+iJI+If41/eP4Et71JZf7fd6nze9fEsi0bj+FjaxUh9C01OYio6gTjPiJ4lEk/pBiMTJ9hLluc2f5Q44crOSylk23L1zCA/XqeJR3HsrHI3aJ1a2WcXP6rxI36h+Us+zC+M/e+M4loPNcGjqSGEDP1qd1/6Wfxb1x2bVryL99dZPvPOhuHkMofAUfL6h7/RAzo4WiVLPfl8LmodnEQ4vYmakE+XqSIgyktRSh8BkCOHwPIL+auQnCRBR2U21FSaIQwHhoMn1LLcM7cPTCEWWsRyR7+9WeswMR8o0PW0suwiNfeOYCfGRmBkMd1WohTSl+2cVoq53DLPSSA6/vjJhJIdlFaLBP4G5cBQRPtLT7kaeQSWQXMilgp5VhKaBadO4ug8AACAASURBVITCS5gZ8sLTM58wkmKWfir5lysTG2oGY6umOYiRrIHq+EhgUdd8wkhWavGvgT/I47+ACX8NnJr485EwD/cP99/CJAZay9QHmfSQjA7AH5hD324bnC1BjPn9mNWIRLPrpbzllqNjZAZL4SVMD3nR2BMfSUwlf1IazmZMGYhEM//za5P/sgoq0FJXIj3EVb40I61sdx+iIR9KVZEYwvBwEAu+UjDGkCgS89E6yUdqM9X7OL0jmPG51UaClX3plJ9U/GfGh+Rbk/Ih/GP2EEq7/JrwIWLH0oi/Wf63O988/lXeWuzKNe/Uy6rag8hs56pRCBFfbScS8R9/Pgj/EP/6zwep/jApv6nUT1IaaZRvUUfoHeX7G9ff4pqC1kmEfLVomgijryJelqzqB9FumvA61PpfpJl8ZLkNGFsOoilff5Qq+ffi/9qZXjHNc5efF3xerPaZsNGsfpbsNIkvP29UP4n0pTTW6T9tGmafGbPDG1zGRJN+LK3O66WtxmeT2hcifbP6Sc8u8R0vH95+P2qcmeAdJYtrHElktiJ0zUQRbHZKbSPGslEZCGFpsEZtQ4p7bfXjjheJkflhtO52oXBXBTqDYSwGKpAlNXJlkRia6EJdcSFc5S0YW4piqC43oVITlZ2RSDS7flfHDCLj7SgvzIfTVY7W4QXMdJVK6bOsXBQ4nXDW9SMcCqCaf+Z/9mylkW5DRWAJi6PtqCpxobC4FoHZMIZqZftEITC6vzySM4PoZA+qi/hITh36ZyMY88gFnZ8v6ZrH4lgb3K4CFJbWo382jOGk/BsBzEXBrvYZLE/3oabIhaKqTozOL6ki0Sp9q/yL+3L/pyMSU4l/rRR/L4ZDUYzU58nxYTYUd80hEvShqojzwc8vYaA6Rz7PR1piw2io7cd8bw28Y0F463qwpDysuN2m1zMb3P4QosFuVPL0K9oxNLekTjdNtxFh5X/hX37MKtiN5kAQodAk+usKlUotcTouy8xHTWAey2MeqSNBti+MXk8TJhd8KM1IFokudMwuI1Cp/+BPxb70yo88HdaqE8GYD/PyIcqf0UOIxz+98mvOh4ifUSMkFf9ykWiY/23ON2+4VPqCCC3NYKjDWCwWdcwiEqhIqPO5b0V8hUgk/hOfD8I/xL/B82EL1e+irtAerepvuQzkwDMaxZ6qTPByMt9VpJYTSSRaPP/4dNOURCIrRPvMMvor4yJUa6vRZ3mmlwO889FIJBq1j3ia6T1fzOt3YbNR/ZzqeaP6SVzPj2yd/tOmYfaZ2b0ILk/Aazd4lluc10tb1B+bV7/K7Rej+knPJu13/PmZoQwYrEck8rSy3L1YCA+jNpfBVtyJ2cgYPA59H2rvvdU+73iRGO2vUkcubJUBROc7UaQRiWONsijggSnvXUTIV6ZWhPw7K5Fodr27dwkLveWwmYzOrWU6gyTqlHeeRCEzuj9/CLRMLmNQM9Jmr+xAn6dYEaG8Yg7D745DW9AyiWigMiH/RsDKvUcxjHqEaLWheiCqEYmppW+V/3RFomX8PfH4F3XGG4yMFaB1chkDmp6u4s45hJV3BuWHJC/01RiYnsVMsAWOij5EVZFocT0rQPt0PH1eKVX0hTdQJFr7P8spxGEQgZYKFGTFWRB8LS9HEY1GEY3FEJ4OoK5AHrmVGxlR+HfzyjgEX2lG0kiilUi0ti+d8iPbF4OVSDTmw9w+1T/cN8rf8nJM5V+v3Kyt/JrzIdI3aoTIDQfz8s1FomH+JZG4vfnmPsrKd8Prn5DE4qCOWCzrCSHkkzvuhE/5UY0v8a8+D7TPB9U/xL/qn4Tnwxao37U8J3+2qr+lMmCrwB7esM1lyOBrBASb1cVhrJ9/8juJMQ0f0WgY/or4M0bYJLUlJmIYrstWfSnOpXK01QwaikSj9hFPN53ni55d2vpdnDeqn1M9b1Q/iev5MV3/adPS+5zfHMTyhFeNffJvrM4n/57/X60/Nq1+lUXisoY/q+eznp2SresYSZTzmIPqPYuY7/WgdSKCYEuhqkWM7rUVv9/xIlG7kATLK0W9p1yasikgFT0ZPDjJ0xXlQMuVndFIotn1WaVdmI5GMB8cQX9POzzuglXLB5uJpNzydgxNLWApojREl2PqdEor+xkrQvd8YiNRC6B8PgZVBEiFKYbYYI2pqBVp8EZox0ziSBF/50L4O9X0zfIv/J/OSKKwR0rLIv7O5qCafz3/JZyXGtFBeO1ZKG/2o6s6H6yyX31YWV6vEx/tOyupiBwpTwbTVaz8z1gxuuaXMNFVCadGHMbjK1eyo00uOAvrMRBehN8dn9orGhl9uxkcTRNS54qrNb5wDWNxkWir2aMKqehwPbKlThrOpzl/6ZSfVPwnTbfULDSTWD+Y2yfK31jLLnkGgNOJ2kDiwjUbXX61fKhxWmf8+fWm+d/mfAv/iGOmoxzNA3OIDtQkPKjLe3jHoLFIJP7jnSBRvoCJ8nwg/lc/XxOeDxe5fhfcGx2t6m9+HSvpRmi6HQW8vs6qxXB0GLXKs0IWiWbPP6Xd1Fmm1o98plSe7rPGDi8XifUbLxIvVvtM+D1dkWhUP4n0pTjx6aBp+E+bVvJnxvKlwYYxj/5aAlbnk9MT/xf1x+bVr3L7xez5LGyxOq53JJGny+z1GA3HsDzThaINXlzQyu6NOv+dEolapwlIzSoRKcjKKl3rEYn8+kx7Mao8Lejyj2IuGsF4Y+ISwkYiidnK4V9cwmhLOVwF8lTUav/CBovEJQRqlWmu6nTX+GqNWn8lf9aKAHFutUi0Tt8o/yLNdEcStSJRpMmPevG3esgnnBeNaM30AVa11USisf/5ktXu9hHMLc1jzOdBqT0uAJP9w0c5+dTY8GC1NFVbPs+nc0bBRaI0HSXUgwYDkciy7FJDobQ9iNhog0YkGtsnYrXu8qOs3mc1kmjMB28EGtsn+DGazrIZ5XftItHYfu7fZJEofC7Fd5vzrc1LlrMCLXw69UIQ/poCaTq1OM99kDx7RMq/ZvVj4l/zjLDLzwfifyuIRPPyLRjXO2pFol79za9xtk4ithxFOBxGOBxBNMY7neUpoapINHz+ySIxtemmdmml8WHNStF6Nht9ZzaSaNW+W/fzxaJ9JmxNVyQa1U8ifX7kI4l8pfb1+k+bVvJn5mzB5PIYPAarz1qdT05P/F/UHzw+m1O/yiLR6Pks7EjlmI5IzHC1Y4qXn9AeVCgrZ6dyz630GxKJmumEGzmSyMG3ZWUnrMTJFzeJDderDW0OAivT3wKD2ZsQjI2gTvTcMSZNhxVbDGgLmQBKa7+YLjlYHV84xF7tw4BXLEzCp9Px9w3i4iAzrwAu++rePFuOHbmZidNExP1FxcTzWxGIaEYSU0vfKP8iT8YiMReNYzGMqdNdM7DbH054b8K0Eaw0AsfSmm4ahNfwIWk13ZT7x2y6qXX+JH7ymzGps3CNPN3QOr4ZuUWo7+JicQHjvV6UO2ReRHzFQzajpBvz0fj2IwmNDOaAd0JeBCHO5+qFa/h0tWV1JMKcj7TLD7P2nzkfVvaZP4TSL7/mfKjlI434m+bfUiRubb75O9PZhZVo6Z9EKBSEv2k38pPqMO5DvtgSZzJ5g2jin/gfjG3/+p0zrv/81nTy6dbf2agfWcZYU6E6EljtD2G2U34vcWNFYjF8C5GEV19E/WZkf8J5k+mm4vnFf5/YPtrc9pmwjxnUz6meN6qfxPX8yGcFmflP+9u1fuYLF/F1CMS2JcnXW51P/r34/+bXr+bPZ2FHKkcrkahXvni6LMOJlmAEk61lqB1cwrzfndD2T+XeW+E3JBJNRKLZFhjJkPNgJlZCWagdWsb8oBflLifyC0rRNLyIxd7yhJ5s3hMztTyJrnK5Mi7IU3pqM9zoWwpjoqMCroJClNb4MDy3uIaRxAwUdc1qFq6px545vnCNPG2AN8L5HPpIsBtVRQUoKK6BfyaqnhdwstwaDEf4cHkbCjXvVvLrS30LiE60oSjbhqzCRgzOhzUiMcX0DfKv3t9g4Rp+vrBlCtEZP6r5wjO72zARDqG3PC6KTRvBikhcDPqQsHBNg1i4JgPF/B3FoE9eWEZZuGZPwsI1Zo0Ii+t1FjYYnou/k5hK/vhvWBbfrzGE/ppCZanxPGRn8C0qUvO/8HNGbjHqu0cw3y9PN07mWxo5nolhsqVAem9EKxJ5GvamCbnHWdknkd+fL9wTneJbYPCFkfjCSVGMN+Yr15vbx5egTqf8pOI/cz6s7DN/CLG0y+/qhWuS+Ug3/qb5txSJW5tvaTr1ZBB9XBzqTHFTuedL/IcHUa1Z3l/yq2YkUf6/Cx3Ev/p8EPWDUU898W9dfq2eX+mWb+l6w+d3XCTy362qv20V6A/PoLUw3jmcVTOovpuWqki02gKD3zujqAtz0SHUJJVBc/ttyLHL22pIC9dMd6FU2jLLjmy+JVVS+eVpXcj2Gb+fZL/B8znV8xkG9ZO4nh/N/Kf93Vo/84GGtulljNQnLuYo0rE6L36nd0yOz8a3L8yfz3o2ab/jgxO5DmUGRW0AS+rikvYEoWfUPuZpOTxjiMz5UMJ5dDZhIjqLrpL4oIz2flv5M4lEE5GoXWJZbPo57hUiS4bQqKeKB93mrEbP2CyWonwLjBBmRrogtsAQUEjT/rrGsRBZljZHFyMx/Lzd3YnRmUVEIiFMDXpR1zWTskjk1/MtGOr945hdjChbaCRvgeGCJxDEfDgqbXY+3FmRsEWGlEb2bvi5+BtrXLVJPLNXwD8dQSwWQ2TWj67+BVUkivtbps+nPRrkX0rDRCQymxO1vWPyFhXzk+j3FktTGfl1/M+0Eaw8RIZa66UtUCLSFhi1KEjeAqNvAnNLfAuMKQwmb4Fh0tOs5t/geum8tET6LJYiYcyOtMDbG98CQzpvkT/pNywDroY9mFqMSnGIxabQomx4K23BYRFfnob2L8MmV2LJlTj/jbNlCrG5LmXhp8RGBrM3IsgXt1FEomRblkveYkXhb6SrEg7NvHwr+9ItP+nwIew34lf4x6iRzK9Pu/xa8CHZmEb8TcuHhUhU/bNF+eadFDYNa9xevT8+VathZAkLg/VwakYaRXy19TvxH38+CP8Q//rPB6l8WJRfq/pJSiON8i1db/D8Tu7kS66/WVEX5sN+uLXPQ/7+MxdzWQypikTRbhLHmGaLL25fRq4bvqkwJtuLdNdCYIb2y++Mi3TFMRabR1eRtUjk9073+WJWv/P0Jf+bxC+18/r1k0jfyn/id+s5MlcbZvj+mAbTJK3Om91T1B+bVb+K9M3qJ3P7ePsmJrXJBVv8GIsNolrzXDHkM7cGQ0shBCrkmXn8eVTUMY3lqTa4NGXKzIatcm5Hi8St4uSdbIfU42LPQ5aNSaJMbxGInZx/ypt+45v8Qn7ZLgzwzgrv8ALC8+Pw7oqPnGwX+8lOKmvbkQF7tR8zS0sIdpUbTmfcjvnaaJuN6qfN9p+rfQbR4bqEjndt3qzOa39Ln7dvHUUi0aCHmaC2hpoLxBxpiocDDmcZuiZXT1clP1r7kXxEPiIGLi4DvC6zl9SgXBmFp3hc3HiQ/3e+/3NLKuF2Zie8fkNx14+7Xv20mf4TCxMO1a5eo4LHyOo8xVE/jtvRLyQSSSTqTsNKBWbGSuALyUPyy9EQpgYa4dJM2UolDfrNzqlMKJYUS2KAGCAGiAFigBiwYuD/FuSiNdYFfuS/vdD/t7KPzssMk0gkkbhukUiFiB4ExAAxQAwQA8QAMUAMEAOpMlBQUSgJxIt1TNVO+t1/g0QiiUQSicQAMUAMEAPEADFADBADxMCmM3AxRxDFyCUJwNQ6NUgkUoWw6RUCFcbUCiP5ifxEDBADxAAxQAwQA8QAMbAVGNhyIlE45f9rrIPZn/gdHakgEQPEADFADBADxAAxQAwQA8QAMbBxDJBIpJFEGkkkBogBYoAYIAaIAWKAGCAGiAFiQGWARCLBoMJAvS8b1/tCviRfEgPEADFADBADxAAxQAxsVwZIJJJIJJFIDBADxAAxQAwQA8QAMUAMEAPEgMrAlhWJhZ4qLN7hxP137kJopGbV+4nbVZWT3dSjRAwQA8QAMUAMEAPEADFADBADW5mBLSwSK3Dvme8BH/8f4G/ZOLCnNkEobmWnkm1U6IkBYoAYIAaIAWKAGCAGiAFiYLsysGVFIl/ZtNBTi6aDufjqo+/h5HXVJBJpCFwdAt+uBY7spocFMUAMEAPEADFADBADxMBWZ2BLi0RJKC7m45OPvocXD5BI3OowkX1U4REDxAAxQAwQA8QAMUAMEAPbn4EtLxJ37cvDvz/6L/zqEppuSgVu+xc4iiHFkBggBogBYoAYIAaIAWJgqzOw5UVi5fU5wEcMRxdJJG51mMg+qvCIAWKAGCAGiAFigBggBoiB7c/AlheJhUNFePWD7+Gz1/Lw8M/z8cuflqDNU0vvptH7icQAMUAMEAPEADFADBADxAAxQAxsAgNbXyQ2V+DqJ2w4/5Gy0ul7+QiSSKTCsAmFgXq9tn+vF8WQYkgMEAPEADFADBADxED6DGx5kVh2ZR7Of/R/cPKGSpR44lNOKfjpB598SD4kBogBYoAYIAaIAWKAGCAGiIFkBra8SHQfyJXeSXxoKS4Q+aqnyRmh/xPcxAAxQAwQA8QAMUAMEAPEADFADKTPwJYXiYWXOvD1R9/Ds/tqdPdJZMyBQLQX18yWw84YiUeahkkMEAPEADFADBADxAAxQAwQA8RAGgxsfZEYysfHH30PL9+gv08iczTh4TMH8NyVRQRCGiBQj0v6PS7kQ/IhMUAMEAPEADFADBADxMBOYGDLisRCTxUWf5KPZ1/7L+Cj/8KxqP5Ioq1vFGfORHCZm0YRdwKQlAeqWIkBYoAYIAaIAWKAGCAGiIGLy8AWFokVuPfM93D+zzacOlyGBs2iNdp3EhuvuhRnH2pDEU01pZFUGkklBogBYoAYIAaIAWKAGCAGiIG0GdiyIpELQbM/3rvAWB6iR6/BL6dz03YE9VZc3N4K8j/5nxggBogBYoAYIAaIAWKAGNgaDGxrkUgQbQ2IKA4UB2KAGCAGiAFigBggBogBYmDnMEAikYajaRSWGCAGiAFigBggBogBYoAYIAaIAZUBEokEgwoD9f7snN4fiiXFkhggBogBYoAYIAaIAWJgvQxsWZG43gzRdVQYiAFigBggBogBYoAYIAaIAWKAGFg/AyQSaSSRRhKJAWKAGCAGiAFigBggBogBYoAYUBkgkUgwqDBQb8v6e1vId+Q7YoAYIAaIAWKAGCAGiIGdwgCJRBKJJBKJAWKAGCAGiAFigBggBogBYoAYUBkgkUgwqDDslJ4Pygf14hEDxAAxQAwQA8QAMUAMEAPrZ2BbiETGsuA/dAKvPLKMSsZI1FxAYUu+X3/hooqJfGfFAGOZcEaOovXGKeRQ3bZl6/Ysex1+0BvD1WX0/LFims5TvUcMEAPEwM5gYJuIRAdmH/4bPn77EFpTbEgxVo1DZ6D8+xe++vjP+P0vovBkbd5Dvv+BD/H5saDU0Ake+1zcHMALiOWu7b6J9gPffvEP/PG5OzC+O/OCNqQYS9332vx/1ysI5rsD/pPnsOfUewl//ScfQ3nB2ljYTF9mTx9LsK9toUzli+U2ouyGx9H91Ar8T55AyzVB5GXKtjPmRsUv5Pz1nzyLvidPoHX/pHp+M2wuuOoV+A/ukexzHXxbtbv/5IMoyV6bT7X28xgFnnsVHT/ZD1fxhS5feSg6eAq9R66Ew6Ju0+Y/Xf9q899/8o/wP3EcDbOtyLSwId37bvT1rPPH8P/2RyjYRLvtRf14bOEAft7WisactXG20fml9HZGw4viSHEkBoiB7cDAthCJ63GkEFknr/OguroOzYP78NTfvsUbB2vVRvB60jW7RiuS8ooqUV1djerBn+JcGiJRtr8a9W0TOPTSx/j6lWu27GiqNv9mfvounGM5hcgpdSOntBLuu8+ha59f+X8xbLat09DMyCtS7GpE5QPnoBWJziteQt/R21DirYe9ZR6eR99Fe7hGKj9CZLQsVEt5tLeF4X3iLNpCFZtWvrQiyVZQLtvddgO60hCJsv1u5NX2o+Ku19B3eHnLjuhp859uGUqIX3ktnEOH0P78a2jw5W1a/NK1We/6zRaJLLMSh2ZvwpG6Qtg2UYjq5Y2+o0YkMUAMEAPEwMVkYMuKRMYa8eOzmsE4AP86HkpowLDiYfzkxDl8/NW/8O+vP8H7J+9B0C1GOuSRxGdjueo13Xd/gK9/NSP9X6T/VCRLPd97+G/48tEp5bx8/XM/2ovH3/0YX37+Id48FkWdMpLCg8ZKR3H3yQ/wzy8/x/svHMT+B/+ujiSKoLL6Q3jXQCQyRxv2PfIm/v7FeXz98Tm8cGcQ5RnG9jPvj/AnnMLlhfJvBn/+ET557BBufvEDfPHlp/jg5D0Y10yHYvntuOqRN/DXT7/E5//4I565bQSlSkOHddyJD84/gyVHXLBkBO7HP75+Egt58ndzT5yPB+DdH6I+qZFklX+z/HH/WNkv+dhejdufvwpvPNi2JnHMWD1+tnIAb97ajsg9l+Dt1/bhxJEedDrj+WUuN664K4JXT1+DP/z+Uhy7vh67MxkYsyH402uxcls1GNuF/U8dwNm76mFjTvzgsQN4eq9LZUbE2ejIpxOW3H4OncuyuNL+ruDa0+i96UpU3PUS+p5/E10/vREul8Y+RwvcNz6BrifPSCN5zfuGkaPwIfkmtwFl1/9KGen7HZr3jSJHI0BZrgflNx6H77l30ffUC2jeuwfZmuu1tjDmRPk9cZHI811+3zk0B/PVvGb37YdnoRMZjPtIHkn0juSo5/Mvfwl9Nw8r5acGVQ+fg3coPjKXv+8U/DcOKufl65ti8/AcfR3+515B+8FJ5Grtd/lRffeL6H3+bXTdeRncB15WRxKF7Wz3Feg0EIlm+dezn1XuQ+fJYyhTyoRlfPIaZf8+vQL/8WfhvcSPLFG+6g6g+3dHUKyZQcCaD6HnhQdQpIxGFR16Nz4aenQf8pLLl0X+zfLH/WNmf3L+OfOug2+i97o+NZ5W6TMr/kz8Y2UfP89M+DccqX/gUmSLGKR5f25DXuUC3pweQWNSbPg5+iMfEAPEADFADOxkBrawSMxCobtaHo2rrkbwyF9WicSuuz7AV6/dgdHmOjR0jOPWE//An++Vp6OJkUQhErPLh3DfH77AK1dXKo1UWYRaicSP37gPl/W1oG38Frz8z/N44bIS5focBI99jPMrP8NCdzM6pn+C5//6WcoikYuHwP1/w6cv/xjBDi9aBi/H8b98id/tLVXSXy1yWfUNOIPTuLpEFhJcZH314QncNtWB5q45HH77S3zy+Kw0bY2/S9h33//g65UjCPma0TZ2A178+HM8FSlS0vfh8N++xK/n4iK6664/4/yzMeQrDSJ7cZXkf891J4EkkciYef6t8scLlZn9otAxVyMefO0Azj7jX1NDTYjElZOX4vjhUfz0ob04u3IAp64vV0SOHXMPXIX33tyLX/1kGHfct4wzK9fi2ctl/7Ts/z7ee7ANBRm1uPfFK/Hm491ws9249dS1uH/UJvlQ2Gh2tBKJfcePorLXC3vDKGqOrKD30Ig05Y+xbOy6+U303nsARS2NsDfNwfPYGTSN71LilwnnlS+i7+iP5ZG+1gV4fvUOWmfd8fP7TqH33mvgqquFvS2Exl+toHlCzl+yzatFYiZc17+O3h8vIFdnKmeyyMjY1YOaB8+gdaZcuX9qIrH3ZzejtKkBju59aH3mD2hW85cN18HX0PfLW1DkqYfDvx9NT7yVskjkfnea5D/Zfu4PVroX7Scfh1vphOEiyzg+PP2Tsn2N9XB07UXzk2/DO1So5L8VNU+soDGgEdE/OIHA7dPqlE5bAR9pdiNv4Rj6k0Qij79Z/q3yx/Njbv9qke+47AQCt4ynxI90f0v+jP1jbZ8F/7nFyKusQd7EYfQ9dQ+K+Wf+V1KglG/z+Fjdn5/nf03t1+BNv0f6LL6jIzUKiQFigBggBr4LDGxZkZjs/PY73l8lEice/gz/ODqmOz1MiMR/f3se589/i3/jP/jod5ejVh2pS00knt4vN7q5PWNHP8XHvxAjJU34ybl/4+mo3AjkPfHTj32xBpHYjDve+xLHgvGRI++P3sU3v55XGmmJIjEjtwpzx/6Mb/90O1oUEcdF1jfHQ2qjM2vuCZz/+2H4pJEeD279Y9w+bn/PPf+j2sdYBgaOfIjPHp2SRj8Y8+C2s9/ihctWj5Llxp7VEYnm+WfMPH/cHjP7tfHPKsjHrryMNTXUhEg8d7QNhdwfNjduffEA3nusUxpNZTmNePDMAbysisY8XHLsAN477kMVYyiYn8N7zwXQWNaJ3x6dxi9fGEFPrhcPrVyG6xrjMdPaqffZSiTyRjkfmePXZgTuQeDXN6kiPTk9576X0XvAr/JRefQsmobjIiSn/yAaZtuURnI9qo+toMEXtzUv9gwCh0Z1/ZgsEvm9WdEw6h9eQd/x38B71ffh2m1XrxUiK/DiuwicOIvAyT+h984QctXylZpIbJ2TO134/QqvexM9+3uV/NWh6thZeIezlf/bsOumM2sQieb5F/aLkVCW7caugycQOHYt7Eo8uMgyig9jNah8KG4ft9955Un4bxCdVBkouOYVaeRUHnmtln7fPF6g+lDE1zZyREckmuef820VX3P7rUSiefq8fjXnz9w/PO9m9gnfaI9a/sX3RtNNreKT6v17fAdxqrtqVczE/elIDUVigBggBoiBncrAthaJjsHDeP/81/hw5SSO//IOXB30qA08IRJP3diGxsZmdAX34+m/8ZHEOqXRmZpIFCORHIDE6ai9eODDRJGn906e0XRTxvj1wL8kEcuF7Hl88+1/gGdjimiTRaIscs/j238DX3/wDK7uiDfUucj65MF4o5+5B3HFVaPSJonoQwAAIABJREFUtEw5/UT76vlKPkr6PD+Zw7/Axx8/hGE+xbLqBpz51+9xRXFcVAjo9UWief6t8sfTNrNf3Hu9RyES3/mxeIfOiSufOID3ftuLWi4ai9rw65UDeP+d6xL+3jsxgDZ+3jeEt94KYqRnCKdu68DVv5nHQmsPfrcyhwX7ah8Z2WklEoXo49ezIh/Kpv1qp0d25340P/Qq/C9wIfYuAi+d00zXbEPt8UQRqLWBMX7+HGQRp1z/4p/Qf/u0KkoTf5843VScY7ZC2PuiqD70G/Q+9wyqvfLIsxBZLYuNyKusR74vBu8TfCRRjNSnJhKFSOP3S5yOujp/eu/kGU03tcq/sF/1z0vn0PfYEZTXxd/J4yLGKD5y+on+z4s8meDfjPZb0fPU7SiwMXmU8qVHUKazaJG+SDTPv1X+uD/N7bcSieb86OVfMMOPeueT/WNmH0/DjH9xL2ORuNp/a70/v0ev7wYSiTS1ljoJiAFigBj4TjKwrUUif4jbK/0IXXULDj/ye/z1/Nc4faBeEYGJI3H8twV7f4f/vHOLLBKUdx6tppturkj8DE9c2ojGRs3fbmeC/bLI9aB+d4H6vpNoICWLLPE9P6YiElnWBB755//iZ3syUH7NK/jXq9eq7yxq01q/SDTOH0/fzH7t/dfzOVWR+Maj4zh0w0D8b18d3FwklnfiyZUlXLNvDs9eXozZ+7+P6y8fwx9ODaFbGWlKxa61iERteiwzgPqn30bLcgAOZSpd8Q2vrlEkvgXPmDINT0zHK3bIfGVkIsMWH53VG0lMsIdlws5HIu+cV6bDrhYZmRMPov/Bfcjl/mNbQSSa5F95p1IWudXIK85fJZ6TRUyiP6xFCMvsR8Mzp1HbmoHs2ccQuE/uANKmwz+vXyQa54+na27/6vjJ003HlPqH5884fT0RqM2X3nkrkZZwvQX/4rcbKRJFmtpjd/dB/L67WvKJ9nv6TCMHxAAxQAwQAzudgW0rEvn0zpz8Qjg0W1o0HFoBXrxcmq4nRhK1Ii9n6bf49uxt8EiN2BLsPw28fLV4x9CGyUc+x98Oi+luq0Vm4kgin04Zn85pON207mb8QWfhGnk65rf4zaI8nY6DZi/3oq1Sno6mZ38yjGYii08fNZtuytPi7y3OPv45/ueeMew9wVd+1Z9WpS8SzfNvlT9+fzP7tXnNyMle89YKliJRmW56+ubd0qqF/B2witbd8HnzpZE8ZqvDfW/txbGfX4ojE5novmkvjh6Zx3uPdKLkQojEksvQfvIYSpVRSz492HX9mxqRKE/naxqOv1OaM3QLvItiYRk+XfAsGgfiCzPZdtXCUSIvRJMx9DMEHr5GXSxFnj74J3hH5JE0ZutG1T33oFRZCIrHI2PwfgRUEbhaZEjnH7paSpMvfOO+7xxaZ8Q7lDa4bjwD3742RYSsvj5xJFG233K6qftydOgsXCNPxzTOvxhJ1I5kapnjn81FlvV0St5BUHToDLqv7EPpXXzl1/jUde299EWief6t8mdtf6L/1YVr1OnM5vyI6ZzG/Fn7x9S/FvwL/7GO23S3wBD2CX7477XTga38I9Kvb92HMwOt6ui++J6O1DgkBogBYoAY2OkMbGORmI/vP/8tPnzmOoy216O2aQA3vfgpPjk6pryTJYs8eQuJWjQFYnj47Df42wN71BG55h++i2/eO4Zobws6pu7A61/8Lx4al6dz6om0RJGYvHDLHTjxd513Eh1RPPftR/j1JS2o4VtiVLtRkMVHWuSFa75a+RlCPi+a+mJ45P3zePVaWajp3T8ZRjORxdPvO/wXaeGaBc3CNU+GExcuyQsdx1fvnsbpL97BTbXxaZR8YZpdFfLCQdLCNecOY1CyvwKuHG6/ef6t8sfzYma/yCsraMDPXtmPPx73oWFN4kxe3dRwuinLw8KRq/De2z/A43eM4M77lvHWyn6cPFCmiMZiXPfM1Xj91KW4uZWhPLaE105egXduX9sWKtwPpqubKo1ykV9xZJl70PDsCtouH4ajsgEFo7eg+Yk3NCIxE/n7XkJAXbhmCY1PvIPWmcSFa6SFXxprYW+aRsMjf4gvbLNrDs3PnUbT4h7YqxrhCv0SPc8/ijJlujFjpSi/ZwU9d+2Dq4FfP4m6o+/At69LKV+yyJC3kKiAvXka9Q/9Eb6r5PM8H/blZxE4dieKvQ1w9O5H23OnUd+tiFC91VETVj9NXrjlAJp/rfNOYu4kml48jcbRBuRKW46UIFNaoVZeuMYw/zr3F74XR1MRIy2MY74wC0/Htucw+o4+jtbnnsbucm35ykZWsWbhmmM3oVCyvwxZUv1gnn/OFV+Yxyh//N7m9mvip7MFhlX6/Lw1f+b+MbXPgn8RI2lF2peeRk23R164ZpfgK7WFa7TTiUWa2qOtdAInF5cwobN4k/Z39Jkai8QAMUAMEAM7jYFtJRK/Pb6QMO0nqz6MX776Af55/t/411cf4/2T967aAkPew+E/+Oaff8ebv7o6cQuE3EZcevQ0/odvEfHhOzh+sA8uRYjoiTStSOQgqFtAfPU5/vLSIRx8+EN1YRgBCh+ta9v3JM5+ch7/kYw5ix8qC5/wLSqu/tXb+PCL8/jy43M4cc8sKpUtAPTuL9IURyuRJW2B8egb+Os/v8QX/+8sntVsgSHSYPkRPMt3ulBGWNXvlXcm43tgiE8f4nCv3Ni1yr9Z/vh9rOznv2GOGtz5wlV486F2VG+gSJTSdlVg3z1RnH7tGrxz6lIcu6kRNcrINI/bwpEDeG9lEctFDLahCWl11Gcvl0fGhJ+sjusViTzdnJ4b0PLoG+h7/nV0/vhSlO47oYpEyf68RpQdjG92v2oLjLxGuG/+jbQFhv/JF9B85Yi6RQYfmczuvAreoy/D//wZ+I7+HFXdpWAaH7MiPypvfRK+Z1bgf+oltB4MwaFs6SBG4vhG9P0n/4TAM79H+81RODTva7LsGpRe9zi6pS0inkZjqEPtoBHXa0fytCOJUv6kLSBeQu/zZ9B915VwH3xl9cI1LBOO6QfQ+dS76D95Dv0nn0NFpcKnaf4TR9L04mgmYoT/pS1GnllB32+eS9gCQ6TH8ibh/d059CsjrOr3yjuj3H/av/6Tr6DWq9hvkX9mkj9+HzP7hf/l+J2F/9e/gWeuVV0ES+TPiB9x3oo/M/+Y2cfTt+JfsoG54Nr3OHqePyv5UWyxIuxL5/5y+k6Ehm/CyT2dqNJsf8TP0R/5gBggBogBYmAnM7AtRCKfChU89k/8/b74Hl47OSiUN6p0iAFigBjYGgywrFLEhq7Da7PfxyW74qPBFJ+tER+KA8WBGCAGiIHNYWDLikSWmY8yPr2xxoPu+Xvw1hd/x88G4u9fERCbAwT5lfxKDBADxEAiA3xGQGlxC/xOEonERiIb5A/yBzFADOxUBrauSCy7Bq/xGY7/+Qaf/s8bOHZlu+H+cTs1OJQvqniIAWKAGCAGiAFigBggBogBYuBCM7BlReKFdgTdjwofMUAMEAPEADFADBADxAAxQAwQA/8NEom0AAEtwEAMEAPEADFADBADxAAxQAwQA8SAygCJRIJBhYF6TajnjBggBogBYoAYIAaIAWKAGCAGtpxIzM+XN/smOAlOYoAYIAaIAWKAGCAGiAFigBggBi48AyQSaSSRRhKJAWKAGCAGiAFigBggBogBYoAYUBkgkUgwqDBQL82F76Uhn5PPiQFigBggBogBYoAYIAa2GgMkEkkkkkgkBogBYoAYIAaIAWKAGCAGiAFiQGWARCLBoMKw1XowyJ70e9VYxSzeCh+S/4IDqGW0GThxlT5X5EPyITFADBADxAAxsLMZIJFIIpFEYhoMMJYJZ+QoWm+cQs5FFGBZ9jr8oDeGq8sSRSCrnMc7U0EEnEWodtiRdRFtpIfJzn6YUHwpvsQAMUAMEAPEwM5hgERiGgIhlYLAssbhPXEO/Q/uQ+4mNNCzp49hz6n31L+2hTJV9LHcRpTd8Di6n1qB/8kTaLkmiLxMWUQw5kbFL85J1/WfPIu+J0+gdf+kej6VvK31NwVXvQL/wT2Sfa6Db6s29598ECXZieLGKm2t/Tz/gedeRcdP9sNVnKnm3yqNjTjPWB6KDp5C75Er4bCIrzb/G3FvkYa9qB+PLRzAz9ta0ZiT6EdJJE4OoNrCNpEWHXdO5U6xpFgSA8QAMUAMEAPEwHoZIJG42SKx7YfoOfYsOk8cQ6kjsQG/3qBpr8vIK0JOqRs5pY2ofOActCLRecVL6Dt6G0q89bC3zMPz6LtoD9dIIkqIrJaFauSUVsLeFob3ibNoC1VsmsjSiiRbQblsd9sN6EpDJMr2u5FX24+Ku15D3+Hlizqip41N8mdt/pPPrff/LLMSh2ZvwpG6Qth0hCCJRHo4rJctuo7YIQaIAWKAGCAGvrsM7FiRyFg9frZyAG/e2o7IPZfg7df24cSRHnQ640KNudy44q4IXj19Df7w+0tx7Pp67M5kYMyG4E+vxcpt1WBsF/Y/dQBn76qHjTnxg8cO4Om9rpSFlD32LHqvncXuIyto8MdHuYRIa4rNw3P0dfifewXtByeRa5PtYzXXoOulx+HepbG39Rb0PH8fdiWNFvECzJgT5ffERSK3u/y+c2gOxvedzO7bD89CJzIYz6M8kugdyVHzkn/5S+i7eVgRkTWoevgcvENxm/P3nYL/xkHlvHy9kf2STS4/qu9+Eb3Pv42uOy+D+8DL6kiiqHTY7ivQaSASWa4H5Tceh++5d9H31Ato3rsH2RmKf3TsZ5X70HnyGMoUMV5w7Wn03nQlKu56CX3Pv4mun94Il0vjz7xGOf2nV+A//iy8l/jV6Zis7gC6f3cExbma3zcfQs8LD6BI8X/RoXfjo6FH9yEvSaQxi/yb5Y/7x8p+/pu8ygW8OT2CxqR7q/7l001pJFFlXPiFjt/dhx7FnmJPDBADxAAxQAxYM7DjReLKyUtx/PAofvrQXpxdOYBT1///7L35V1RH2zb6L3zv+f17n1/eb51z6jAumsnFPCzmoZuhmVbT0KgIAgaZVFBRVFAEgyImOOKAGnwURY0G44QGhUQxQWk1CMY8mZ4nmqg45zqr9u69e3fTvXc7RWKKtXrtpmtX1X3fde3addV9V1WoiSR5onzvSowP1+HTLbOwdfdCjBhX4+zyAG5AmdK0BOMHtPB1isWuC/UYPpaFMBKO9sHV2FPo7NCgkxBfhO66AfVMD1ACpmvQivkEkqb/ZD2CkxLgldWA1DM3kFzkz91DSDQiD95CalmwmMeHkrSPim17jCaRRBf4ffg19Jsq4WEjlFOoXyCJTv7ZiDkwgtS5oab6HSOJ9uV3g1/LFeTu34CAxHh45TQh6fhVh0kit9avYRD6XY3wi4uFp7YK6k+NSC7m28dafvqwk+A6pA0cQ9g0nthRkpXb241IvQaeCYWI6TJC31YAF44ku8CnYYCXTx0Pr8w6JJ+8Bk3+NJP+qYg5boTaICHRy/ph2FzK5af1OftSD24YVJU9yLMiiYTI66+kHy1fTn6hc0tKa8RwTqKIEeF34co8icqdoGArdmW2YhhgGGAYYBhgGGAYYBjgMfDek8Sxbi2mUVLgHIb2C80YP5qBYPq/uxoHRprxlUgaVVjc04zxXh2iCIFvRTnG+wxQh2Tg8+5S7D9fgGwPDQ4al2KN2uxdkgMScS2E+twxhPkROOm2IWffcjEUUiA5qeVB4gB/2pphZDfpxf9VNadh2FsLN47UaBBz9DrUM1RiurRua08iTSMBsxB/yIjc3hPQrFwCv3BPMa9Qv+HCTRj6R2EYuAX9tip4iJ46x0iiPfkJiUNUzyg0s9y4Oql31r915CVIYjyie4xI0JltrVp0Boa2QlN5lp5Q4hYG/5Z+GHpWw9PkVaMky7ChiJsUoPZwMuyE4bNWeHP2jEHkQbN8NN2nfgA5a/k1k4Q4wbfxEuc55T2vlLSPIrnIV7ShYH/ngi4bJFFef+rpltOPli0nv1B3tq4Fg1lRk2QS0hlJZC87AQvsyrDAMMAwwDDAMMAwwDDgKAbee5J4fZOwBs8H9cebMf65njsGgARo8ZmxGbevr7H4jPfPgJaSCF0+rl4tQUF2PgY3pmPViQpUpmbjC2M5Kj3NxEXO0CSlDdk9TRxpIZ5lSO7vRrApr0DSBE8eLUcazkn/JyF1SL/Yi7BAAhLbhMzzluGP0rptkUSuDOdp8MytQXTbCej7ziBa42FBslLmqaGKjIe3bhE0x6knMdKU7hhJtCc/IVrE9lqSPFtr8uyFm/L5x8CTWEpkb8Jw4RbyNpdahMuK6RfHkHu0C6FxZhJNSZa+OUckUCRAh5DSHI6o25JPVX1SLJ/azimtHdmnNsPXmfBeyouHEeI7ue1tk0R5/ZX0o/XLyS+0vV63lpHEt7yuWLA1u7IXK8MAwwDDAMMAwwDDwN8FA397kvjNkSK0rZ1h/jTEIYySxNAMnDTOR2NDOc4uD0TZniX4cPls3BjMR5ad9V/WoFEtPIO8izeRc86InHPXYRgYQXw2v8bPIZJIQhHeNQptZSjo2sbcjXPEUEfi5AInZyczAbIKN7WWhYY3elJP3LYKU7ilpSeO3u9SfEDchZWQqUASryJxdgxUkZJPoJcNkhsNVaC36DEUdLcmWcLv9OoISSQueUg4M4TYVCe4lR2FYfcicc2itKxXJ4n29aPly8kv1J+V1YIvs6JFHAi/C1fmSWQvMwEL7MqwwDDAMMAwwDDAMMAw4CgG/r4k0RRuOrQ+nFvjR9eQRaSGQ6fx5j1NznHYfbUOPftq0VXsgqzWOnR3VWD8cAaCHCCJ1LMXsn0UqfMToQqP4j6B64aQtSLVguTY88QJDehecQyGznWI7boBzSxzuKhT/icwHGoUN0vh1jB234KmgPekEecsRO3cieAws+fLaeYeGExHcdgiqVz6wVVcmXTjm7DdY0idK6yRdIbfuhFxXaWt/FJPKB9OaQ7ntBtuGrYc6TY2rhHyq2e4igTI2T8WXkH8Rjy26hdsJlzlSBYlwXLhprQMSqwD2kaQVZ+L4A6682uYKItQB73aJok0nNS+/kr60XLl5Bfqj09twMiMVDGMWfhduDKSyF4GAhbYlWGBYYBhgGGAYYBhgGHAUQz8fUkiUaGyayXGry3Dsa0F2LZ7Ia4amzDQHGIijYFYc2YVvh6sxfpUgtBF83FlYAWub461SRSsDU5c8qE+9wUio80kzaWgC4auOlO442RPnpRkCeUR/xqknr+O3HP7EKQyl0X8y5HcN4SkedPhGaWGX9V+ZJ87gpBA/h5CghG604jsjgb4JcTCM2kO4rqvQ9eQaRGuyR8hEQHP5FLEH/wWupV8Oq3fc+FZGHq2IVCTAC99E7R9Q4jPMpFQG7uLSuWfvHFLM5I/s7Em0WMOki4MQV2YAA/uKI8guHA7zNKNZQZNG8tQ+UuRcPgGUst4ovb6JFF+4xrB/s7TO5HbfQypfacRHiqxP3GDa6Bk45qeVkzj5A+BqyvdPdZ64xpL/YWNa7iNfdST9aP1O0ISnYOLMTBvPoptbE5Ey2Akkb0MBCyzK8MCwwDDAMMAwwDDAMOAoxj425JEaiDiF4GGnTUYutKI64O16GlVI8ZVIFmuqOxqxrhxHhYGEDjnF3O7o55dznvWlAxMNK3Q9XXAz3SkBVcfPe7hwgGO7NkiOVKSJZTPHWXReQuGzXMtdjWlG6u4ZayEpvsr5Jwbga57H6KygkEkXk4SkIPI9pPQnTEi59RFpLZUwct0pINQPz2IPm/gFgxnvkTa+hp4SdZbErcYBK85hizuiIjTUFeli+GWQn45Tyh/BMRF6M+NIKujHmEtlyZvXENc4FW6FxmnbiJvYAx5A32IiDS1gUqNsPUnuCMwck6eR3J9AdyFI0JskFTBZsJViWQR4QiMM0bknuizOAJDKIOo5kDzxRjyTB5W8XduzeWYeAQGtSNvy0uI1Zjk547AsK8/rd+efrQeJfnpPdRjXTWrFQPTMxDlYiaxopzsCAyHJnUEe7Ere3kyDDAMMAwwDDAMMAwwDPx/eG9J4vvSuIQkIurwt0gqNJ93+L7oxvR4M50wcQ3Govw1uFK2BIsl52pS+3KexJoNuLagDVdLZnCbNjG7vxm7MzsyOzIMMAwwDDAMMAwwDLyvGGAkcYrvjMjtatp/AEESD9/7Ckam16t3tDR8NTgwBTk+lt5E4uqNaJ8A/uPlKXqCma1f3dbMdsx2DAMMAwwDDAMMAwwD7zsGGEmc4iTRa8l5cUfS9x2MTD/W4TIMMAwwDDAMMAwwDDAMMAwwDLx7DDCSOMVJIntI3v1DwtqAtQHDAMMAwwDDAMMAwwDDAMPA3wkDjCQyksg29mAYYBhgGGAYYBhgGGAYYBhgGGAYYBgQMcBIIgODCIa/0+wI05XNBjIMMAwwDDAMMAwwDDAMMAwwDNjGwHtHEr292S6gDOy2wc7swuzCMMAwwDDAMMAwwDDAMMAwwDCgjAFGEpknkXkSGQYYBhgGGAYYBhgGGAYYBhgGGAYYBkQMMJLIwCCCgc2qKM+qMBsxGzEMMAwwDDAMMAwwDDAMMAy87xhgJJGRREYSGQYYBhgGGAYYBhgGGAYYBhgGGAYYBkQMMJLIwCCC4X2fEWH6sVk/hgGGAYYBhgGGAYYBhgGGAYYBZQwwkshIIiOJf2EMEOICn+pupK77AO6EvLO2dPWMwzL9IqwKMcsQlVCG3elaJLiaf2OdsnKnzGzEbMQwwDDAMMAwwDDAMPCuMcBI4hQlCMRlDjQXR5HbXgJnQkBIMmKOjMLQ3QDVS5ABkrEJOZ9/DN+XyPMyoHQr7cH0wXHxo60MEYkK8VAjZO0xZJ0yIudkP1IaS6By4QkDIWGI+OcYly9vYBS5J/uR2jRHTH8ZGRy913flJeS0TOfk82u5JsqcN3AAQW4vR2Sk8lP9DX2Xkb6lCX6BLqL+jsr1OvcRokJAyyD0XfXwUmhjqf6vU6d1Xs+APBytbMY+bSrU7mY7unvHYUluA4ZK52KWyulPtYu1jOx/9rJlGGAYYBhgGGAYYBhgGHAcA4wkTmWS2HsW6Z91IsCNgMQ0IuPgWWROMZLopAqAe3AY3IPViNw7BilJ9FlxEbndGxGkiYdnSgUSj9xE2oIYjiwIJCulMhruwZHw1C6A5vgotFURb41MSEmSs28oL7d2LTJfgyTy8odBFZuHiI4ryO1c+E49enKdn1R/ufteJo24RKKtrBVdcdO4yQzrvIR4IDd7NYby0xCgQGKt87L/He/Ima2YrRgGGAYYBhgGGAYYBt4kBhhJtEMSCYnHJ8ZmDLenoXrnYly70oD+rmxk+Jg9JcQvDCs6qnF5qBE3vqxFz4fxCHehXj9nlOxYDePGaBDij6ZTzRjtiIcz8cGyo804XeenSIQ4T2L/J0ho+xIJeleoaj5H6toOZElIIvFIROi6Xuj6biL31Hkk102Hm5PJU6fbipwB3lMn9fTl7a2Fm2mw7rt6CPrWekR0XETuuWFk7lgHPz+Jfio1X/5pI3J6z0KzOAeudgb6hPggdKeZJFK9Q3ePIbnEfG6lW24TEisz4MR5RnlPoqbAXbSF9/KLyF0/y0QiYxB1aAyafLNnzrthEDnrZprS+fxJiyqQ2P01cvouIa1lDjycJfL75SB6+wXoz11D5ralCGv+SvQkCg8RCV+BDDskUda+Jk+oVH4S2YCMgR6EePEyvI59SVwzsr7oQqCHRJ/kNmSf34sAk7cuoO2m2RsqwYWom4L+cvrRMpTkp/eoIisxXFoAtR1c0HuIRyYOVa9ArbdZF0FGdmUvNIYBhgGGAYYBhgGGAYaBqYcBRhIVSKJxoBa9nYXYcbAOo8ZmDH4YaiI5nijfuxLjw3X4dMssbN29ECPG1Ti7PIAjMSlNSzB+QAtfp1jsulCP4WNZCCPhaB9cjT2FziIxsvdQcCRxoBuhs3dBt2Yuwnb3IqxoI3JMZIBbi9YwCP2uRvjFxcJTWwX1p0YkF/P1E49AqCJjoCruRO6pnQik3+knyJeTn9ZLSUBubzci9Rp4JhQipssIfVsBXDgS5wKfhgHk7t+AAHU8vDLrkHzyGjT502zKPpkkusDvw6+h31QJDxuhnIInUSBZTv7ZiDkwgtS5oSYS6BhJ1H+yHsFJCfDKakDqmRtILvI35XeDX8sVXv7EeHjlNCHp+FWHSaKifW2RxOA6pA0cQ9g0M0l8VfsSkoqY40aoDRISvawfhs2lXPvQ9nP2pR7cMKgqe5BnRRIJkddfST8lfAi4TUprxHBOok1MCPcQEoRVH2xARwQLORVswq5T72XI2oS1CcMAwwDDAMMAw4AZA4wkKpDEsW4tplHS5ByG9gvNGD+agWD6v7saB0aa8ZVIGlVY3NOM8V4dogiBb0U5xvsMUIdk4PPuUuw/X4BsDw0OGpdijVrZo8KTxGMICymB5vBFZHbVwyOnQ1yTSD2d0T1GJOjMZakWnYGhrdBiwC63JpGSRMOGIpE0Ohl2wvBZK7w5khiDyIOj0MxyE8vzqR9Azlp+TZ/1Q2RNEmk6CZiF+ENG5PaegGblEviFe4plCSTRcOEmDP2jMAzcgn5bFTwETyhxjCSmlgeJZU5bM4zsJj33PyFxiOoxy0+9u/6tIy9BEuXtK8gvkFziFgb/ln4YelbDU+KpfVX7EuIE38ZLnOeU97xGc+2RXOQr6iu0gXNBlw2SKK+/I/iRw4dQd7auBYNZUZNkEtI5HBAfLJ79MbpizYRXms6+mztkZgtmC4YBhgGGAYYBhgGGgamAAUYSFUji9U3CGjof1B9vxvjnesRSEhWgxWfGZty+vsbiM94/A1qarsvH1aslKMjOx+DGdKw6UYHK1Gx8YSxHpaeZ2NkDAU8SP0dYsCemVXcgNj8SJG+XSAYI0SK2dww8yaJE6yYMF24hb3OpSPpo2UokUd+cIw7wSYAOIaUf9stOAAAgAElEQVQ53Jo6vnwrElp9clL5gvy2SCJXv/M0eObWILrtBPR9ZxCt8TCROD5cNGWeGqrIeHjrFkFznHoSI03pjpFEgaTRuizDUal9LOW3tSbPXripkn0Fkija/+IYco92ITROJdqTC9d8Dfs6pbUj+9Rm+DoTEOqlvHgYIb6TsWObJMrrr6Qftaec/EK763VrHSaJ++L4thfysit7CTIMMAwwDDAMMAwwDDAMTE0MMJL4miTxmyNFaFs7w/xpiEMYJYmhGThpnI/GhnKcXR6Isj1L8OHy2bgxmI8smfVbwoPCk8STCA82kwIyvdOKJF5F4mxTGKkQThroJZIUWtbLkEShbi4fR0ItSZZKQhKJkwucnM3hg/ZIolAmDW/0pJ7ObRWmcNbJaxJdig8g70ADPEyeTEfWJL5dkmjfvgJJ5EluNFSB3hbknOptTbIEWzhiX+4elzwknBlCbKoT3MqOwrB7kc01oa9OEu3rpyS/oEtWVgu+zIq2wJyQJlwJ8cXSYupJNHulhTR2nZovBtYurF0YBhgGGAYYBhgG/t4YYCTxVUmiKdx0aH246YgKN0SkhkOn8eY9cc5x2H21Dj37atFV7IKs1jp0d1Vg/HAGgt4ISaThkKNQz3AVB+jO/rHwCjJvFEMfbpK+0e4RGPIkRj7c1Cn/ExgONYrHcRASjcjuW9AU8J404pyFqJ07ERxmJrlOM/fAIJLAySSRSz+4iiuTbnwTtnsMqXOFNYbO8Fs3Al2DltNXIGn2SSJvHyFc1m64adhypNvYuIYPx7RvX1v1W3emr2Nfru2ICwLaRpBVn4vgDrrza5jY1tK6bJNEef2V9KPly8kv1B+f2oCRGamyO7oSEoHW8jZsDDNPKgj52fXv/QJi7c/an2GAYYBhgGGAYWBqYoCRxFcliUSFyq6VGL+2DMe2FmDb7oW4amzCQHOIiTQGYs2ZVfh6sBbrUwlCF83HlYEVuL451uZA3/oBUfYk0o1lBk0by8TCM6kUCYdvILXMkkhwO25ePI2YrER+4xp/++GQUhn4jU3sb1xD/MuR3DeEpHnT4Rmlhl/VfmSfO4KQQJ4UEhKM0J1GZHc0wC+ByjcHcd3XoWvI5DxuAsnij5CIgGdyKeIPfgvdSj6dyuK58CwMPdsQqEmAl74J2r4hxGeZSKiNjWMsw02tN25pRvJnNtYkesxB0oUhqAsT4MEd5REEF26HWnn7CvJLSarUfvS7HMlSsq9QlvP0TuR2H0Nq32mEh5oJN92YxjVQsnFNTyumcfKHwNWV7rArr7+wcQ2/MZFt/MjJL8oXXIyBefNRbGNzIuEel4DZOL+gGiU27iHEC4YaPRrLQsW1nEI+dp2aLw3WLqxdGAYYBhgGGAYYBt5/DDCS+IokkT4cxC8CDTtrMHSlEdcHa9HTqkaMq0CSXFHZ1Yxx4zwsDCBwzi/mdkc9u5z3jCk9XEokkatfpUbY+hPcERg5J88jub4A7pIjILh7iB/8Go4h+9wod1yCcIQETVMiAUQ4AuOMEbkn+iyOwKAbq7hlrISm+yvknBuBrnsforKCQSReUhKQg8j2k9CdMSLn1EWktlTBy3Skg0Cy6PEceQO3YDjzJdLW18BLsl6TuMUgeM0xZHFHcJyGuipdDLcU8ktJmpQkcrpzR0BchP7cCLI66hHWcmnyxjXEBV6le5Fx6ibyBsaQN9CHiEhTG8rY11b9tE7p53XsK5RDVHOg+WIMeSYPq/i7aU2q9HgT3paXEKsxya+gP21fOfwoyU9loWHGVbNaMTA9A1EuZhIryOnsEY+2Oa04oQ0T205I4/J7JeHQSDP66vldeaVp7Lslnpg9mD0YBhgGGAYYBhgGGAb+LAwwkmg1sP+zDM/qYQ/5+4IB4hqMRflrcKVsCRb7m4liUFQpzla14nhGLPwkkwdSvZ1zCzEyUo2lkrBkaTr7zp4ThgGGAYYBhgGGAYYBhoE/HwOMJDKSaOH9Yg/hn/8Qvg82p+GrwYEpyPExk0T/QA0MPu6TNvSR6qteWYvRg1oE2CGR0nvZd4ZNhgGGAYYBhgGGAYYBhoE/BwOMJDKSyEgiw8A7wQAhKtR0N2J/KTsag73w/pwXHrMzszPDAMMAwwDDAMOAYxhgJJERhHdCENgD6tgDyuzE7MQwwDDAMMAwwDDAMMAwwDDwZ2OAkURGEhlJZBhgGGAYYBhgGGAYYBhgGGAYYBhgGBAxwEgiA4MIhj97hoLVx2bFGAYYBhgGGAYYBhgGGAYYBhgGph4GGElkJJGRRIYBhgGGAYYBhgGGAYYBhgGGAYYBhgERA4wkMjCIYGCzOFNvFoe1CWsThgGGAYYBhgGGAYYBhgGGgT8bA4wkMpLISCLDAMMAwwDDAMMAwwDDAMMAwwDDAMOAiAFGEhkYRDD82TMUrD42K8YwwDDAMMAwwDDAMMAwwDDAMDD1MMBIIiOJjCQyDDAMMAwwDDAMMAwwDDAMMAwwDDAMiBhgJJGBQQQDm8WZerM477pNCHGBT3U3Utd9AHdC3hlWXD3jsEy/CKtC3qwMhLhBXZKFlQujEe7yZst+121H6yfEFTlt/bh0eCEiX6H9Xjf/VLABk4H1awwDDAMMAy+HgaiEMuxO1yLB9f17LzIsOI4FRhKnKEkkJAwR/xzD9MFx7mM4N4T0TY3w9ft7PbBupT2iDagttJUhIlEhHmqErD2GrFNG5JzsR0pjCVSmgb7UfnkDo8g92Y/Upjli+tvoJHxXXkJOy3ROPr+Wa6LceQMHEOT2cu0mlZ/qbei7jPQtTfALdBH1fxs6WJdJiAoBLYPQd9XDS4FkSPW3Lud1/vcMyMPRymbs06ZC7W5px4SGRRg3LkR9pOXvhMTjE2Mzrm+KkbUXIQFYcbge174oQckUfLaIexVOPQFw4yPESexPSDTaRoCzizwU9PNC2aEfcfdaG1Il+Ut6HsD8dx6LPCztJ7QXIbbzi+mFB/Dg133Ik5QtpP0VruQty/+2y/8r2PhVZCSu1Tj7/DkenlwAT0JASCZ23XmO5zc/QvxfFGuvYgelPIREoaDoGZrVURb9gPD7smj5/kGp/Kma/i70i834AR3ZxZydNdn3sLfmOffZU92HTGfb/eer2k9JP6V0R+sVyrHGD83v7h2HJbkNGCqdi1kqJwt8OVo+u89xMjZVbcVI4hQniSmV0XAPDoMqbgaidg0jZ0sZXP9GL0knVQCnv3uwGpF7xyxIos+Ki8jt3oggTTw8UyqQeOQm0hbwpEAgWbz9IuGpXQDN8VFoqyLeWmcnJUnOvqG83Nq1yHwNkii2f2weIjquILdz4Tv16Ml1ZFL95e57mTTiEom2slZ0xU2Dsw3cvy5JfBlZ3sW9ZGYX7t66iZtPB1A3zTwQcZQk2pNZFRCJ6OhoRM/cgTHYJ4n28gu//9VJ0NuW/22XL7TD+3blSOJP3+Lbn3pR7kFAUjZh9NtvMcZIosX7y94gX/idkcQ3N0iXkkQ390j4e0XBP7gDbe8pSaR9CiEeyM1ejaH8NATYeP++b/0O02fy88JIoh2SKHgihtvTUL1zMa5daUB/VzYyfCQDNb8wrOioxuWhRtz4shY9H8ZzIWuEOKNkx2oYN0aDEH80nWrGaEc8nIkPlh1txuk6P4uO3hYwBZKjKXAX7yX6DuSebIev6WElHokIXdcLXd9N5J46j+S66XBzksjnq0dUx3lknxuF4fw3yNyxDn4BknSVms9/2oic3rPQLM4RCSghMYg6NAZNvtlz5d0wiJx1M0V5fFcPQd9aj4iOi8g9N8yXL/HGEI8EhHz4qcnT9wWSGwrhLplxU5JfahdCfBC600wSqV1Dd48hucRblMcttwmJlRlw4maeeU+s1H7eyy8id/0s7n4l/QT7Jy2qQGL318jpu4S0ljnwkMrvl4Po7RegP3cNmduWIqz5K9GTKMhOwlcgww5JlNNfqF8qP4lsQMZAD0K8+DZUtL9c+8Y1I+uLLgRKPEgkuQ3Z5/ciwOStC2i7afaGdjdAZfWSIAr6y+lH7aMkP71HFVmJ4dICqK3qDlk4D7evr5n0GT8/HSlc+/OeROPWDJvPL/WQLjzYLOYfN1agytv8bNC6PZO06Dxah6vfNGH0ygqc6zJgerDjM6oz9/2Ke0fbsP7CHTyc+A13BnaiyBQuK5C8vo/rcOzmXUw8+BnDPTWIswp5TWr/Fr/uq8W6qxM4WuoqYl3If3bDYvQYaf5fMNyzEPGS0KDy49QFafqzM7gm8W24aYckyuUnJT2YEMqWXq+sQQi1f8omjL8YwqpQs02dpn+Cf0+cQLnK/JvwnNi6Eq8U1B28jDv3JvDw7jgudJYjSmIf4p2GlYe/wQ+/TeDBL9/izMYCBAt9o8nTas++SvJTeYiXFg2Hh/HTwyd4fHcM57eVINTUvxJ3PfbceYprbWpTf+OLis/u4n7fYgRR/RXsY0tf69/k8KMkH5ceOAtb+sdw99FzvHh8D7cHdqIkzGx7efupsWkUOFVtxpy+80dMHPlAxKCyfArtJ2df6kl8ego9x3/CkQ/cEN82gks9h/G9BMdkWhaajlzBd3cf4uHd27jQOReRQvsotD9nH5n8XLqPDq1nbuHuwwf47tyHWH3gZ9w7UCjqL4cPml/JPvSe1/0QEoTpBc/QGB9sUZZAEpcnL8Gikn9je9UPWJNdjQDp+MA1FYbsK2ivmsCOilGsSC2Gj6Sfjcv6GVv161Ew8za2V/2KDfnboTa9L0jATmws2Y8PZvyMjpKNiAvdi4+qfsHqpExxMo8olE/c81EycxRb5j3B7nn/QVv+dmgc7RtMHtRlyYtQXfwLtlf9iObsGgSK7Z+I4pJnWBplxm9U+h1s18/h7OSQfTwK8EH+ODqq7qFtxhpMz/qX6EkU2o14t2KdHZKopL9Qhq2rknxCuj39aZnENRnZui/xUcV9bK8YRUN6Gfwk7c/dYwc/UpmIRyYOVa9ArdX7UXoP+/76z/JUtSEjiXY6aoEkGgdq0dtZiB0H6zBqbMbgh6GmQYEnyveuxPhwHT7dMgtbdy/EiHE1zi4P4DqhlKYlGD+gha9TLHZdqMfwsSyEkXC0D67GnkJniw7dFjisSQLxiEBQ2yAMnQvhxg2CXeDTMAj9rkb4xcXCU1sF9adGJBfz9dMyvZddQO7eZkyLjoQqzoDIjsvIrM80dZI0/wBy929AgDoeXpl1SD55DZr8aaZ0x0hibm83IvUaeCYUIqbLCH1bAVwE+eovILd7E+/pS61E4qfXkVoWJqlfXn6pXSaTRBf4ffg19Jsq4WEjlNPafk7+2Yg5MILUuaEO6Sfk13+yHsFJCfDKakDqmRtILvI35XeDX8sV3n6J8fDKaULS8asOk0RurZ9M+wn1W5DE4DqkDRxDmMmjREmWrP1l2zcVMceNUBvMkxDey/ph2FzKtR+1vbNvGO/FruxBnhVJpGv55PRX0o+WLye/0PZJaY0YzknkbC78xuXNzsK29kJ0fdaAcWMDPt9RyP2/rSkBYRz+TOGmg/aeXzdkzp+BtrUzsLd3JaxJIiHT0NDbjPEri7H/o5nY2DEfl6814/puDbwlAympTNbf6SDx0c/92PhBOpIzy9F5bQL3jpVxYbsCybv7zW4szU2BtmgDvvr9Cc4vDRJ1pRMhK798gs/nq5C1/Q5+7NRL0vhw01+/2Y0lNP/stbhw9wkG6vnni8riGRjFeQsT1wwAksG1VE45kiiXn3iFIFGthrquFw/vHkcN/U4/kX6m5z8RG0f/wOXV4aLMOZRknJg3abJBKo/wneJHv+sOntw8gGp9MpKnL0Pv949xeXU0Vx5dK5m7+194bOxClS7ZpP8DnKrm+z8l+yrL7wLDnh/x21ebUJKuQcrM5ej9fgJf1JkH497Fh/DLw37UBhO453bi+0eXsSqaJ2FK5Qt6yl3l8aMsX2bHHTy6shWFyXFISC9Ce/8v+G4XHw6vbD/HSKJ9fCu1n7z8nCcR/Wio7cVP3YuxZmgYa5bux30Tjglxx9xPf8e9L7eiKk+L5NwlOH7nIc4t4Z8fxfZXzO+EjI7beH77CBbrtcia14nBn+6LJJHiUwkfcu0n1+4vk0blyJj+FHXRZjJE8wskYuvsPcgOTEFY6AasqnyIFbGCfVwQk3EH22a1Q+OnRmhwHWpL76M+1oxvShJ3lJ1DcVgaQvzLMLfoPrbmzOUiWTiSWHUOeQEGlBT9jtaMcoRHH8XWqkNINL3/lcqP0I5jR+FmJPrGIshvNopm/oi29Dyxv5Czg6Dfltm7oAtMRljIh2iomEBDnDC+cIwkbp29C9k0f2iblX3cocn+BTuL90Drn4Tw8E1YUXrXYZJI20VJf0f0s99+fJixff1dEJ0+jp0l/0RGQBJCgpZicekDNCZYhyXbxo9UNjoRseqDDeiIcHyCVJqfff9rE0hGEhVI4li3FtNop+cchvYLzRg/msHNVhN3NQ6MNOMrkTSqsLinGeO9OkQRAt+Kcoz3GaAOycDn3aXYf74A2R4aHDQuxRq1eTbX3gMkkATDhZsw9N+EYeAWcnp2ITjSzTRIikd0jxEJOnNZqkVnYGgzz3T6tVxF9ppcjtRa10M9aZEHR6GZxZdH033qB5CzVhhEOEYSDRuKxPKdDDth+KyVG0TTl3Rk9yiSZplJiHteCxLKtCaSrSy/VGZrkkjTSMAsxB8yIrf3BDQrl8Av3FN8wVjab5Szn35bFTzEmUZ5/YT8qeXmQfu0NcPIbuIH6oTEIarHbD/qPfZvHXkJkiivv1C/QBKJWxj8W/ph6FnNrdGh+lOSZd/+Su3rBN/GS5xnmPe8RnN4SC7yFW0o2N+5oMsGSZTXn06yKOFTTn6h7mxdCwazLF9sQhq9KoWb2nt+pWVkrl1mgySGYgN93g+Ynn/igoi0GORn+SmuzRTKpoPEp71VIul2LT+OJz91QscNoniSN9RkJnWzu3/D3X/ynm5aBnErx4lHQ1gVTOBS0oMHI+u5voVLM3lKLq/mJz3ob7od3+PRp3MntZ/HorOvRBIFPWTzy6zpS9xwHS+urDGR9nTsuPMYJ+Z5TZJPqEd6JSQBH998gTM15jVVERXbcWS1nvNUEJKI9m9f4HSNuX/J3vkvPOgp4coXSIKcfWl99sJBCUnG1vEJ9JSY+1fNxzfx9LMKUX66nnXByXv4uXsl2q8+wsiGZNGLIuhir3whXe4qjx9l+YoP3ccv3bNthqcr288xkmgf30rtJy8/TxKHsCpmAc7cvoM7w22IKT2Kp3YmO6gdDXt+kpA45efL2vaW+cPRMgx8uVIgVe6oPvVUUr68/LRsufazrvtN/y+QqKZE8/IKte4utmTlm56PJJTMuY9qiac/ONmIXTnlIr4pSdyVWyli2jniKHbN3cltgMWRxA86uGebhmGuiPUGcavDyuqTSHeia0iVy1dn38UmXaHYP76MDQT9GhPM/V9k2nfYkVNq0s8xkrg60dz/Jup+ldhHg5I5T1AXzfcv9P2erP/9JUiisv5y+gr62W8/niTa1z8es0ueoC7K3H9Oi+hATUK2OF6Tq1+aRsdei2d/jK5Yc18rTWff/9okUKn9GElUIInCxhf0Qak/3ozxz/WIpYO8AC0+M5rD1YTQt/H+GdDSdF0+rl4tQUF2PgY3pmPViQpUpmbjC2M5Kj3NAw97DSSQhJR5aqhiqqDp+wYJOjOhI0SL2N4xiCSSEskLt5C3uVTsBFy0rcjsvw7d/h6om5oRposRO3w+vxXJrD4p5lcKx6Ry00G+vjlHfKmQAB1CSnP4mUZOPsvypbo6Ir/l/ZbhpkIacZ4Gz9waRLedgL7vDKI1fKdoYb/IeHjrFkFznHoSI00vEcdIokDSaH3ScFtb9rO1Js9euKmS/oL8YvteHEPu0S6ExqlEe7+s/VWS9qX6OKW1I/vUZvg6ExDqpbx4GCG+k7FpmyRS/Fm2r1R/Jf1o/XLyC+2r1619LZJo7/kVyqdX2yTRGanLq3HduBpfn6jAJxunY1lJCPwk4cbSMmx9p4NEi/C0sJlYsbKQH2TZ2HjGOpyP5O3Ff8a2IIn2Jz616H/ajyWmcHeBBEk3rqEheTi7SAwZF2SSJXky4aYO5ZchiSRmHYwvvkFTBAHRbsHtx6cxzxQqLZRt70qIHnt/tiRp0nttpUv1t2Ufa/vS8uyROL584PmzJ3jyhP88ffbHJPuSiBUYfPgHXnzXCZ2tiAYZ+0j1sfVdHj/UPvLyec3sxO0nj/GzcQC9+7diVUmiOMGkbD/HSKJ9fDvSfvbl50niCFqivFHYdhidC+JAKnstJjtCCrfg/OgvePDY1D7PIYbDOtL+8vm16LjzHMfLzf1h3l5zuKkj+JBrP1vt/SZ/E0iGdE2iZbhlNsrLnqFzwQR2zRc+T7Fn+kJxjMCFm2YViO8bopqBnPgC+HHjn53YaJMknkIGfZ8Q5fLdg3aibf4DbCzuR23WZuSFJnBRUo7YwZZ+gUlXRfnpJIgj4aby9rmPBRISLV2TKMhoL9zUEf2FMmxdbeln2X48SZTKb6k/tb+l/LbqceQ3gSTuizMTTkfysXveD/LISOJrksRvjhRxIWs0bI37NMTxM+ehGThpnI/GhnKcXR6Isj1L8OHy2bgxmI8sB8LVBJJASQoNXaChfTmb5ogdOD8Iv4rE2TFQRUo+gZYz9c5BaQgobUDsusPQfXEdqRW8V8YWyZGSiFchidJOwVb5k9Pty0+cXODkbA5vsOVJtCzPBZ7Uk7qtwhTuNnlNokvxAeQdaIAHfckprLmU2l+o582TRBn9TbvbcpMEkdFQBXqL5F+Qx5pkCb/Tqy37S9uXu8clDwlnhhCb6gS3sqMw7J5MMOh9r04S7etHy5WTn6bTT1ZWC77M4kMMhd+kVyVP4quSRFoHfe5CUuNRs8yA9o75GLrWhMubYl8q3FQ6iJbK7cggNvGjG8DzJ5iYmMDExGM8++Mhekr4NcK28ktJkrSud0YSSSTWDr/A1x9Ggq6tfHy6xmEvrC0SI9XJVrpUf1v2eXmSeB/Ha01htEI4bbiPOGim8rimb8HogwlM3D2Bcn8zoRBktUdChXS5qzXJkN7L668sn2dkDqpWbkDn4S/xw5PHGGqO5+RXtt/Lk8TJ8imRfPvyCyRxrSl8l5ZNqswkkbgWoee3Bxj8qAhpGr6NFvT84jBJVM6fhu2KJNG+/FReufaT2uptfFcmGZRE3MWimEQE+Ug+KjO+rUmiVE77nkQpSZQvn5bn5qmHNr4NZdkD+Hj+A6xOjLN4vqR1Sr/b0s+SJE0Fkqisv1Qn6Xdb+r07kuiLpcXUk2h2UkhlZd/fDzJorx0ZSXxVkmgKNx1aH84RN7pGKyI1HDqNN+9Jc47D7qt16NlXi65iF2S11qG7qwLjhzO4jQ3sNYjwuzVJcUppg+7CUYSaNobhw/lGoZ5hXovg7B8LryB+IxcaHuGk8oGLZKMHVc0p5HXw4W/K4ab+CNs9htS5who8Z/itG4GuQSt24nKDfKH8pFnm2Sf3/A3QzBM2lqHhiPbld8r/BIZDjeL6JTroi+y+BU0B70kjzlmI2rkTwZKNGJxm7oFBJIGTSSKXfnAVVyZd7yWnn7X9abtYkkRefiFc1264adhypNvYuEa5/SbLL2BDuDpif0E+mkcaTkz/pyQooG0EWfW5CO6gO7+aQ2+EOujVNkmU119JP1qunPxC/fGpDRiZkWozZI7eE7t8IcaNi7Eq1nKATuuXHoFhHQkglE+vNj2J7n7IK1GjUGPCG3FGUUcjxocKYbCa5HH19Ya/h3lCQyhbbpCoRGLomsj6gef4qlWL+Ph47rPg8H/w/Q6daZDPh9O9drhp3HrcsLNxjaCHLMks2I/7MkdgRDQP4cWlXei89gSna8ybTAll06st+wnhkGdqzJ7zqOounFprMPW3joWbSj2tNkmiHfn5cNNnODHPPDDyDNVAG2kOxybOiWi79gg32mdhSd8D/NRTPGkCgdgpX0l/mi6PHxruaF8+2h+5e0+Dl2Qjo4Q2I3BhuWk5gJL9gtA0BHy1Sgi3dMacww8s1sXKy8eXb7/9FOSnG9dgBHZJYmQLrmEAdaJn3QlFB39znCQ6mL+/jidN1J5lxx6JkQGO4EPOPtL2fxvflUkGDYd8jFrT8hUqg5tKjTBPM75fjyTKl0/t6eI6De6SjVSCkq5hz8w6u3291E6CfvbDLfkNfVYlmPGblP0b2tOzTf3nZE+cJQmj8jsSbrrO5sY1fLitvH0FfVzcw+HlYvn+EPSTegot5VMKN01AERduau4//aL2Yqna9vIjQRZbV0Ii0Freho1hljLaupf99v4RRkYSX5UkEhUqu1Zi/NoyHNtagG27F+KqsQkDzSGmQUwg1pxZha8Ha7E+lSB00XxcGViB65tjRZIl90BZkxRC1Ig+Mob0GuGIB37jGn7jmVh4JpUi4fANycYwngjeOgrdplpMi4uCR1QWwjuGoV+TC8J50uQ3rqGyeS48C0PPNgRqEuClb4K2bwjxWeZOR26QTwmId8NFGMSNa+ZDffw6UucKC8sV5PcvR3LfEJLmTYdnlBp+VfuRfe4IQgJ5MkBIMEJ3GpHd0QC/BKr/HMR1X4euIdO05pEnWfwREhHwTC5F/MFvoVvJpyvpZ21/er8lSbTeuKUZyZ/ZWJPoMQdJF4agLkyARzDdCCaII+7UPnTjIfvt97okUbl9qU7O0zuR230MqX2nES4JraGTHq6Bko1reloxjZM/BK6u1BMrr7+SfrRuOfzQdE6+4GIMzJuPYhuhfDRdVViCG8YmDB0t4TeuqY0wnasmTxKJcxAqTd5/fuOaOvS00WiAHBRFEtCjN7YNNmP8q4Xoas/Hx+1l6P+6GWMnsrlwc0E+4qdB99fNGD2TM2kHVrlBoiJJdC3FZxPj2JhsJr9ei87i+fBaRHDPL08S713rwpJcYeOWpxhoEJ4vd/hHREu4YxwAACAASURBVJs3rhnrxEx65EV0BPwkZ00Srxr0PfsVny1OQQyXHgZfrn0dzK/+CKMvrmNXkZbbuCYx1DKSgYSuwtDjx3j8qA81NnbHs2c/ih99p3njmpQZ9fj8h8e4tEqIhHBBbuf33MY1lZKNa04usNy4RpEk2pGf1k83Jnlk/ARVOg2Schfh8O0nuLzavD42etVXePSvLuR5EDjFt2D4yffYbTBPilGMEDvlvz5+5OUjxBtLzj3Dz2fWoDAtHrFJM9B64Tfc655t6h/l7UflS/7oJp6O96BGn4L0D7bi64f/wcEi87pveXwrt5+cfZU9iSU4cn8CX2+fi3RNCmYs7sKFH+45ThJdlfK7IH/fv/Hkm03Q+bnBO6UJZ356KCGJ8van9pOzj9j+xAuGGj0ay0LFUGAh7XWuyiSD31hlB7cxixohgQtRPeehxcYmr0cS5cun+NTNeIyN05uQOC0OAb7TMWvmr9iqK5wUMWPLDoJ+W4v2QheYZNq45hEa4s0TnSF0jeWcQ8gISEZ42GY0V/2E+aE8foX89kmY9cY1m1E/18aaRNdqLF/wMxZHJ/NHYniFcfse0P6DblwjZ1+qF3FfhPp5z9A5ZzMXgSboqiwfTxLt6U/rj0q/jV2mjWtCg5ZjCd24Jt7cfwl1KV1dAmbj/IJqlNh4B9NzdN8GfpVkYul/HhllJPEVSSIFKfGLQMPOGgxdacT1wVr0tKoRY5q5pbvHVXY1Y9w4DwsDCJzzi7ndUc8u5z1zSiC3RVJUC88i71grvIXNV+jM3/oT3BEYOSfPI7m+wOKICafwEsTtvgh9/ygM575G5nY7R2CcMSL3RJ/FERicfm4xCF5zDFncERmnoa5Kt1jvpDTIJyo1QlrMh91POgJDRn5CnOCWsRKa7q+Qc24Euu59iMoK5giuYDsSkIPI9pPQnTEi59RFpLZUwUvYotsUrkkPos8buAXDmS+Rtr4GXpL1oERGP1v2l5JEvv3pERgXoT83gqyOeoS1XJq8cQ1xgVfpXmScuom8gTHkDfQhwnTwO7WPvfazVb+gt3B1xP7cESl22pfTQTUHmi/GkGfysApl8+GqY+IRGNSOvC0vIVZjIurcERj29ZfTj9ajJD8nH/FB1axWDEzPsDj+QJTT2Q/lW6px5esm7jiL8YNafs2MgieRuCRin601xcZ6tGfy+k1Lz8Qnvctx/VoTRr9pwODhIixQmz1LnHxeMdj2xUoMH0xDtJWHUW6QqEgS9Z34+cFhFEvWQHI7kT47j0XelKTzJPHcxuXcERqPHv4bV3tqkSj2P/yaNenpFPz3n9GpNxNP2k9pG05i9N4T/MHdMIqP1LR8R/MHoqRzCL88esHllh6RwLdfEFZd+gNP+hZP8rIp2Y94a7GiZwjf33tkOuLAxhEYR77BD79P4OG/R3HWxhEYiiSR2JefHhGx6tNr+PnhE0zcHUP/zjJEmtqDhCzG+Qd3caxM2A3aFbqOMTwb3Yo0ifeOyJSvpL8cfri8MvLRdNf4Bdh/+Q5+f/ICzx/dxe2BXZOPwLBjP658DzVqu4fwL3rEyM/X0duSyz1bNI1+lOVTbj+79lXwJNL6w0t2YPDOPTx6dBejZ9agbvdth0miUn6aTsLL0DP2GPjjDzy+04PO3n+LJJFLV7C/kn24MryScGikGX315l3J6e+v+1EiGVzdrlrk5XyDjVUT2F4+ivq0uZgm8ey9Dkl0pHxn7/moKriNjvlP0Dnv32jL3/HSR2CsSKnDopJfsKPqJ6zJXowgifzU06/TfYWPK+6jo2wEteocSWSSvCeRk587AuM2Oub9ho9mrsfM7B8mb1xDXBEW34v1FRPYXf0Me6pvYrbg3VawL2+jOaieex9bCxotIsyU2k9Il9XfNRU52ZfwUcUDbC+/ZfMIDCqD3MfZIx5tc1pxQhtmMfYT8pC3hF+hfHaVb58/wz6MJCo8JH9GI7A63v2DwNpg6rYBcQ3Govw1uFK2BIttrPtibTeF246kYtvtp+hbbA5jY+01dduLtY1l2xAndwRGhMLblXCk+Nd95nOC34StnHMLMTJSjaWSZRNvoty/ehkkYBs+EjfUETbWoddepEmI4F9dz6ksf1BUKc5WteJ4RqzF5JBUZoZfy/5Capv35TsjiYwkys4kvS9AZ3r8tTszGj4THJiCHNMsLWvPv0Z7cruaPv0Ci23smsva8K/Rhn/XdqJnMfpH8iHbMeoC7Lr+FJdWmc/9fBN2Ua+sxehBLQKsohDeRNl/5TLocoAA6YY64vdwh9Ys/pV1nyqy+wdqYPBxlw3/Zfh9//twRhIZSWQkkWGAYYBh4K1gQLtlDE+/qIMvGwS/FftOlQHl+ygHIXnY9ysfpP3iyV2Mnm5Cusocqv26OhOiQk13I/aXWq5jfd1yWf73f+A+FdqY4ffvgTNGEtngkA1eGAYYBhgGGAYYBhgGGAYYBhgGGAYYBkQM/G1I4uz/+3/w+z/+L+Af/wv47/8C/pte2YfZgGGAYYBhgGGAYYBhgGGAYYBh4L3AwD/+Fx7+47+w5v/8QyQ7U8H7+leU4W9BEilB/IMRQkaKGQYYBhgGGAYYBhgGGAYYBhgG/gYY+C9s/J//zYjia3hG/xYkceIfzHP4XswOsU79b9Cps5lc9qwyDDAMMAwwDDAMMAy8PgZe/Pd/MZLISKJ5Aam3t/ckQEgftPb/+d8IJP/vpHv+im5gJrO53ZktmC0YBhgGGAYYBhgGGAYYBv7eGND/P/9jMaHO8PDqePhbeBL5dYj8jIQPI4iMIL/GrArrbF69s2G2Y7ZjGGAYYBhgGGAYYBh42xgw7z3CPImvY+u/B0mUhCm+jrFYXtaxMQwwDDAMMAwwDDAMMAwwDDAMTF0MSCMIWTu9ejsxksi8SsyzyDDAMMAwwDDAMMAwwDDAMMAw8F5ggJHEVyeGUlLNSCLrEN6LDkEKavb9zXQO1I6EuMCnuhup6z6A+zs8EN3VMw7L9IuwKuTNHWbN6+cGdUkWVi6MRrjLmy17KuCQEFfktPXj0uGFiHyF9nvd/FPBBkyGN9cfMFsyWzIMTC0M0D46OukcGrNrMO0V+nh77RmVUIbd6VokuP4134uMJL4ZnDKSOEVJIiFhiPjnGKYPjnMfw7khpG9qhK/fX/OBtdcRKf3uVtoj2oDaQlsZIpJa4qFGyNpjyDplRM7JfqQ0lkBlGuhL7Zc3MIrck/1IbZojpivV+yrpvisvIadlOiefX8s1Ue68gQMIcnu5dpPKT/U29F1G+pYm+AW6iPq/iowvm4cQFQJaBqHvqoeXwgtIqv/L1iN3v2dAHo5WNmOfNhVqd0s7JjQswrhxIeojLX8nJB6fGJtxfVOMrL0ICcCKw/W49kUJSqbgs0Xcq3DqCYAbHyFOYn9CotE2Apxd5KGgnxfKDv2Iu9fakCrJX9LzAOa/81jkYWk/oT0IsZ1fTC88gAe/7kOepGwh7a9wJW9Z/rdd/l/Bxq8iI3Gtxtnnz/Hw5AJ4EgJCMrHrznM8v/kR4v+iWHsVOyjlISQKBUXP0KyOsugHhN+XRcv3D0rlv0x6bMYP6Mgu5uTQZN/D3prn3GdPdR8ynW33Ly9TvvTed6GftP6p9J320SnZd7C1aD3CXvLZEOxojR+qn7t3HJbkNmCodC5mqZws8DWV9LcnCyOJjCTaBK3S7qb2ADXVfhdIQkplNNyDw6CKm4GoXcPI2VIG15fsCKaabi8jj5MqgNPfPViNyL1jFiTRZ8VF5HZvRJAmHp4pFUg8chNpC3hSYGm/SHhqF0BzfBTaqgibuHkZmezdKyVJzr6hvNzatch8DZIotn9sHiI6riC3c+E79ejZ053+LtVf7r6XSSMukWgra0VX3DQ428D965LEl5HlXdxLZnbh7q2buPl0AHXTzAMtR0miPZlVAZGIjo5G9MwdGIN9kmgvv/D7X50EvW3533b5Qju8b1eOJP70Lb79qRflHgQkZRNGv/0WY4wkWry/7A3yhd/fFUl0c4+Ev1cU/IM70MZIokWbTaVnVcCJLZJI5STEA7nZqzGUn4YAG+/fqaSLtSyMJDKSaPPBe1MkUfBEDLenoXrnYly70oD+rmxk+EgGan5hWNFRjctDjbjxZS16PoznQtYIcUbJjtUwbowGIf5oOtWM0Y54OBMfLDvajNN1fjZll4JcIDmaAnfxXqLvQO7JdviaHlbikYjQdb3Q9d1E7qnzSK6bDjcniXy+ekR1nEf2uVEYzn+DzB3r4BcgSVep+fynjcjpPQvN4hyRgBISg6hDY9Dkmz1X3g2DyFk3U5THd/UQ9K31iOi4iNxzw3z5Em8M8UhAyIefmjx9XyC5oRDukhlFJfkt7eGD0J1mkkjtGrp7DMkl5iNP3HKbkFiZASdu5pn3xErt5738InLXz+LkV9JPsH/Sogokdn+NnL5LSGuZAw+p/H45iN5+Afpz15C5bSnCmr8SPYmC7CR8BTLskEQ5/YX6pfKTyAZkDPQgxItvQ0X7y7VvXDOyvuhCoMSDRJLbkH1+LwJM3rqAtptmb2h3A1RWLwmioL+cftQ+SvLTe1SRlRguLYDaqu6QhfNw+/qaSZ/x89ORwrU/70k0bs2w+fxSD+nCg81i/nFjBaq8zc8GrdszSYvOo3W4+k0TRq+swLkuA6YHOz6jOnPfr7h3tA3rL9zBw4nfcGdgJ4pM4bICyev7uA7Hbt7FxIOfMdxTgzirkNek9m/x675arLs6gaOlruKzJ+Q/u2Exeow0/y8Y7lmIeEloUPlx6oI0/dkZXJP4Nty0QxLl8pOSHkwIZUuvV9YghNo/ZRPGXwxhVajZpk7TP8G/J06gXGX+TXhObF2JVwrqDl7GnXsTeHh3HBc6yxElsQ/xTsPKw9/gh98m8OCXb3FmYwGChb7R5Gm1Z18l+ak8xEuLhsPD+OnhEzy+O4bz20oQaupfibsee+48xbU2tam/8UXFZ3dxv28xgqj+Cvaxpa/1b3L4UZKPSw+chS39Y7j76DlePL6H2wM7URJmtr28/dTYNAqcqjZjTt/5IyaOfCBiUFk+hfaTsy/1JD49hZ7jP+HIB26IbxvBpZ7D+F6CYzItC01HruC7uw/x8O5tXOici0ihfRTan7OPTH4u3UeH1jO3cPfhA3x37kOsPvAz7h0oFPWXwwfNr2Qfes/rfggJwvSCZ2iMD7YoSxj8L0tehOriX7C96kc0Z9cgULRPIopLnmFplLl9o9LvYLt+DleOkH958hIsKvk3tlf9gDXZ1QiQji88CvBB/jg6qu6hbcYaTM/6l+hJFPQi3q1YZ4ckEtdUGLKvoL1qAjsqRrEitRg+Vv28UI711SH53DIxXX8ZbRW/Y3vFLTSkl8JPUn5c1s/Yql+Pgpm3sb3qV2zI3w616X1IAnZiY8l+fDDjZ3SUbERc6F58VPULVidlipOVxFULQ/YQPq64j46y66hLmQVvsf/hPbz27EemtaNtwVfIk/SFTkF7sLnqM6RK+jhrvYX/CeHbT/DW0mtnbqUlBtzzUTJzFFvmPcHuef9BW/52aCT10bLs4Ueoh7vHIxOHqleg1ur9KL1nKn5nJPH1+xfarizc1E5HLZBE40AtejsLseNgHUaNzRj8MNQ0KPBE+d6VGB+uw6dbZmHr7oUYMa7G2eUB3IOa0rQE4we08HWKxa4L9Rg+loUwEo72wdXYU+hs8TDbesCsSQLxiEBQ2yAMnQvhxg2CXeDTMAj9rkb4xcXCU1sF9adGJBfz9dMyvZddQO7eZkyLjoQqzoDIjsvIrM80vQRo/gHk7t+AAHU8vDLrkHzyGjT500zpjpHE3N5uROo18EwoREyXEfq2ArgI8tVfQG73Jt7Tl1qJxE+vI7UsTFK/vPxSuxBiTRJd4Pfh19BvqoSHjVBOa/s5+Wcj5sAIUueGOqSfkF//yXoEJyXAK6sBqWduILnI35TfDX4tV3j7JcbDK6cJScevOkwSubV+Mu0n1G9BEoPrkDZwDGEmjxIlWbL2l23fVMQcN0JtME9CeC/rh2FzKdd+1PbOvmG8F7uyB3lWJJEQef2V9KPly8kvtH1SWiOGcxI5mwu/cXmzs7CtvRBdnzVg3NiAz3cUcv9va0rgQm6E5/f6oL3n1w2Z82egbe0M7O1dCWuSSMg0NPQ2Y/zKYuz/aCY2dszH5WvNuL5bIw4EpPLY+k4HiY9+7sfGD9KRnFmOzmsTuHesjAvbFUje3W92Y2luCrRFG/DV709wfmmQqCudCFn55RN8Pl+FrO138GOnXpLGh5v++s1uLKH5Z6/FhbtPMFDPP19UHs/AKM5bmLhmAJAMrqWyypFEufzEKwSJajXUdb14ePc4auh3+on0Mz3/idg4+gcurw4XZc6hJOPEvEmTDVJ5hO8UP/pdd/Dk5gFU65ORPH0Zer9/jMuro7ny6Dqc3N3/wmNjF6p0ySb9H+BUNd//KdlXWX4XGPb8iN++2oSSdA1SZi5H7/cT+KLOPBj3Lj6EXx72ozaYwD23E98/uoxV0TwJUypf0FPuKo8fZfkyO+7g0ZWtKEyOQ0J6Edr7f8F3u/hweGX7OUYS7eNbqf3k5ec8iehHQ20vfupejDVDw1izdD/um3BMiDvmfvo77n25FVV5WiTnLsHxOw9xbgn//Ci2v2J+J2R03Mbz20ewWK9F1rxODP50XySJFJ9K+JBrP7l2f5k0KkfG9KeoizaTPZpfIFFbZu+CLjAZYSEfoqFiAg1xwvvXMZK4dfYuZNP8oW1YVfkQK2IF+7pDk/0LdhbvgdY/CeHhm7Ci9K7DJJHKHZNxB9tmtUPjp0ZocB1qS++jPtb8fMnZQdBv6+w9yA5MQVjohknypeTcxdZZm6ENTEVIYC0WffA7VsSY+1dKEneUnUNxWBpC/Mswt+g+tubM5SJ1OJJYdQ55AQaUFP2O1oxyhEcfxdaqQ0jkxjeuiE6/gx3Fezn9efvew9Ioof/hSaJ9+yWguOQpGhPM/SMtb7uhihvfyenOt68rVKoo3lvrFQVN5neTSGKEdhw7Cjcj0TcWQX6zUTTzR7Sl54n9MV+ObfxI66dEctUHG9AR4fgEqTT/u/rOSCIjiRZgF4D4pj2JY91abjEwcQ5D+4VmjB/N4GaribsaB0aa8ZVIGlVY3NOM8V4dogiBb0U5xvsMUIdk4PPuUuw/X4BsDw0OGpdijdo8myvIbX0VSILhwk0Y+m/CMHALOT27EBzpZhokxSO6x4gEnbks1aIzMLSZZzr9Wq4ie00uR2onlx+DyIOj0Mziy6PpPvUDyFkrDCIcI4mGDUVi+U6GnTB81soNoulLOrJ7FEmzzCTEPa8FCWVaE8lWll8qszVJpGkkYBbiDxmR23sCmpVL4BfuKWLC0n6jnP3026rgIc6kyusn5E8tN79Upq0ZRnYTP1AnJA5RPWb7Ue+xf+vIS5BEef2F+gWSSNzC4N/SD0PPam6NDtWfkiz79ldqXyf4Nl7iPMO85zWaw0Nyka9oQ8H+zgVdNkiivP6UpCnhU05+oe5sXQsGsyzX2whp9KoUbmrv+ZWWkbl2mQ2SGIoN9Hk/YHr+iQsi0mKQn+WnuDZTKJsOEp/2Vomk27X8OJ781AkdN8jgSd5Qk5nUze7+DXf/yXu6aRnErRwnHg1hVTCBS0kPHoys5/oWLs3kKbm8mp/0oL/pdnyPR5/OndR+HovOvhJJFPSQzS+zpi9xw3W8uLLGRNrTsePOY5yY5zVJPqEe6ZWQBHx88wXO1JjXVEVUbMeR1XpuJp/OpLd/+wKna8z9S/bOf+FBTwlXvkAS5OxL67MXDkpIMraOT6CnxNy/aj6+iaefVYjy0/WsC07ew8/dK9F+9RFGNiSLXgZBF3vlC+lyV3n8KMtXfOg+fumebTM8Xdl+jpFE+/hWaj95+XmSOIRVMQtw5vYd3BluQ0zpUTy1M9lB7WjY85OExCk/X9a2t8wfjpZh4MuVZlJUfeqppHx5+WnZcu1nXfeb/l8gUY0J5v4hMu077MgpNT0fjpHE1Ynm/ilR9yu2ZOWb8mtQMucJ6qL554++/5L1v78ESUxCyZz7qJZEGgQnG7Erp1x8vuRsIujXlGhePqLW3RXls5U3JuNf2JpVIJZPSeKu3ErxmXWOOIpdc3dyG3xxJPGDDq7vomstV8R6g7jVYWX1SaQ70TWyCSgqMetP64tKuyPqL8hnz370/qDkEewubOIiwwhJQ+kHD1Ab6Vj/aK1fWOqtSSRRnX0Xm3SF4vvHOo+j/9Ox1+LZH6Mr1tzXOpr3Xd7HSCIjieLDLgXimyaJwsYX9EGpP96M8c/1iKWDvAAtPjOaw9WE0Lfx/hnQ0nRdPq5eLUFBdj4GN6Zj1YkKVKZm4wtjOSo9zQMPqezS7wJJSJmnhiqmCpq+b5CgMxM6QrSI7R2DSCIpkbxwC3mbS0XS5qJtRWb/dej290Dd1IwwXYzYIfL5rUhm9Ukxv1I4JpWVDvL1zTliO5AAHUJKc/iZOE4+y/It9VOW3/J+S0+ikEacp8EztwbRbSeg7zuDaA0/qLSwX2Q8vHWLoDlOPYmRnLxK+gn5BZJG65OG29qyn601efbCTZXaT6hfbN+LY8g92oXQOJVo75e1v0rSvlQfp7R2ZJ/aDF9nAkK9lBcPI8R3MjZtk0TafpbtK9VfST9av5z8QvvqdWtfiyTae36F8unVNkl0Ruryalw3rsbXJyrwycbpWFYSAj9JuLG0DFvf6SDRIjwtbCZWrCzkByE2Np6xDucjeXvxn7EtSKL9iU8t+p/2Y4kp3F0gQdKNa2hIHs4uEkPGBZlkSZ5MuKlD+WVIIolZB+OLb9AUQUC0W3D78WnMM4VKC2XbuxKix96fLUma9F5b6VL9bdnH2r60PHskji8feP7sCZ484T9Pn/0xyb4kYgUGH/6BF991QmcrokHGPlJ9bH2Xxw+1j7x8XjM7cfvJY/xsHEDv/q1YVZIoTjAp288xkmgf3460n335eZI4gpYobxS2HUbngjiQyl6LyY6Qwi04P/oLHjw2tc9ziOGwjrS/fH4tOu48x/Fyc3+Yt9ccbuoIPuTaz1Z7v8nfBJIiXZMYmHQVe6YvFCdZHAk3lea3DEfNRnnZfSyQkDzpxjWCLvbCTQmh+Z+hc8EEds0XPk9F+YT89q629JPKR/P5hGzCipIf0THPVP6CZ2I4LU3nwk0lpJGoZiAnvoALSbVPEk8hg74vOfkt9be0L+9JtGc/Wj/xakHLgiFM9yQg0zahbd7nSJMsF7Cnu63fbZFE96CdaJv/ABuL+1GbtRl5oQkOeSmtyxdI4r4484Sd9T1T8X9GEhlJFAfLUoD+2STxmyNFXMgaDVvjPg1x/Mx5aAZOGuejsaEcZ5cHomzPEny4fDZuDOYjSxIXL5Vd+l0gCZSk0NAMGtqYs2mOFcm7isTZMVBFSj6BljNRzkFpCChtQOy6w9B9cR2pFbxXxhbJkZIIJRJFZbUe5FvKP5lETE63Lz9xcoGTszm8wZYn0bI8F3hST+q2ClO42+Q1iS7FB5B3oAEenCfHMU/i2yWJMvqbdrflJgkio6EK9BbJv6D3y9pf2r60DOKSh4QzQ4hNdYJb2VEYdk8mGPS+VyeJ9vWj5crJL+iYldWCL7P4EEPhN+lVyZP4qiSR1kGfu5DUeNQsM6C9Yz6GrjXh8qbYlwo3lQ6ipXI7MohN/OgG8PwJJiYmMDHxGM/+eIieEn6NsK38UpIkreudkUQSibXDL/D1h5Ggaysfn65x2Atri8RIdbKVLtXfln1eniTex/FaUxitEE4b7mPx3nFN34LRBxOYuHsC5f5mQiHIao+ECulyV2uSIb2X119ZPs/IHFSt3IDOw1/ihyePMdQcb5okm0ziLO338iRxsnxKJN++/AJJXGsK36VlkyozSSSuRej57QEGPypCmoZvowU9vzhMEpXzp2G7Ikm0Lz+VV679pLZ6G99tkShLEuOYJ9EeybFFkl6eJN7FophEBPlIPirL58uebWzpJyWJxHk2qivuYWXybISZyk/P/lGWJErr+lNIIolE/uwnaFZHIiT5OnbkVdv0+kvlsvfdFkmk97p56qGNb0NZ9gA+nv8AqxPjLPove+VJfyfEF0uLqSfR7KSQpk/V74wkMpJoE+x/Gkk0hZsOrQ83zcy5ISI1HDqNN+9Jc47D7qt16NlXi65iF2S11qG7qwLjhzO4jQ2UHiwpSaT3OqW0QXfhKEJNG8Pw4XyjUM8wr0Vw9o+FVxC/kQsN/3BS+cBFsghaVXMKeR18+BslgfLhpv4I2z2G1LnCGjxn+K0bga5BK9pdbpAvlJ80yzz75J6/AZp5wsYyNBzRvvxO+Z/AcKhRXL9EB32R3begKeA9acQ5C1E7dyJYshGD08w9MIgkcDJJ5NIPruLKpOu95PSztj9tA0tPIi+/EK5rN9w0bDnSbWxco9x+k+W3xowj9hfko3ml4cT0f0qCAtpGkFWfi+AOuvOrObRIWpdtkiivv5J+tHw5+YX641MbMDIj1e7LM3b5QowbF2NVrOUAndYvPQLDOhJAKJ9ebXoS3f2QV6JGocaEN+KMoo5GjA8VwmA1yePq6w1/D/OEhlC23CBRicTQNZH1A8/xVasW8fHx3GfB4f/g+x060yCfD6d77XDTuPW4YWfjGkEPWZJZsB/3ZY7AiGgewotLu9B57QlO15g3mRLKpldb9hPCIc/UmD3nUdVdOLXWIHpCHAk3lXpabZJEO/Lz4abPcGKeeWDkGaqBNtIcjk2cE9F27RFutM/Ckr4H+KmneNIEArFTvpL+NF0ePzTc0b58tD9y954GL4lnIqHNCFxYbloOoBSuG4SmIeCrVUK4pTPmHH5gsS72/2/v3p+iuBY8gP8Le3/ard2q3bpb+8PWucDA8qaQh+CCvAcQRCzePlExiBEVBAwqiIJXg2jE+IgJXoM3UTFejcao+AreGHwBxhBwk5sbyDkPgAAAIABJREFUk6i5URCN+W51z/S8mJkeYVAeX6uoQXq6OX3Op5v5dp8+x375dNu33X4q5ZcGrkEnbIbEyM3oQBsqDXfWXbDw8M+Oh0QH179UqQstUn0WHe839AxwxIe9+jFt/5H4XglRtrub6ga8qYk3tm9S5s/YkZapP7/YvxMmhNRd1NjdUqof691N37Q6cI1u/Seo0D8+I9WBu5cW4d7G40upFzePKfBxMz+/KvtnM8R6b8IfSy4hU+9fCBdoM+47MSQ61t3UVvmUfQtIuIr98/ahaOFjVEZZPz9a239lfeXVMiRK7eGmCYCHyUBDIUkd+NOcSpt/S5VtWb4KEYH6pQ1oDDdvA8v3jbb/MyQyJBrCiinOlxYShReWNa9Hb8caHN89H3v2r8Ktrlq01U3Wf4gJxqazNbh+pQJbUwTCylbgWts63H47xmq5TfdB+t4ypAihRdRHPUgrVaZ40A1coxt4JgbeSYWIP/qlycAw3gjd3Y2MnRUIiJ0Kz6kzMWXvTWRtyoGQ76TZH7hGKoP3qnPIbdmD4MR4+GTVIrW1HXEzjR/a7H3IlwKIb/VnyDUMXLMC2hO3kbJEeXBepfyTliK5tR1Jy2fBe6oWgcUfIPP8R5gcrAsDQoQi7N0uZO6tRmC8tP+LEXvoNjKq0/XPPOpClm4KiQh4Jxci7vBXyFivW662f5b1L73fPCRaDtxSh+SPrTyT6LkYSZfboc2Ph2eoNBBMiBzcpfqRBh6y3X7DDYnq7Svtk+usJuQcOo6U1jOYYtJ1SBqYRhNsMnBNSz0C5PJPhkYjdbexv/9q+yf9bnt+pOVy+UIXoW35Ciyy0pVPWu6VX4Avu2rRfqxAN3BNRYR+XjX7IVG4hmCZ/u6/buCaSrQ0SL0BsrEwUkCaemPPlTr0fr4KzTvm4q0dRbh0vQ49pzLl7uZK+URgIg5dr0P32exBI7Da+5CoGhI1hfi4rxeNycbw61N2Dr/e3III+fjVhcSHHc1YnaMM3PIUbdXK8eWBSRFRxoFrepowR5ryIioCgSZzTQqfUrQ+u4+Py6chWl4eDn+5fR1cX7sd3c9v472FqfLANQlh5j0ZRFgN2p88wZP+VpRaGR3PVv1JfrKajAPXTJtdhU++e4KrNUpPCDfkNH0rD1yzzGTgmtMrlYEjdPWjGhJtlF/6/dLAJP1d76M4IxFJOWU4encAX2w0Ph8bVfM5+v/WjDxPAZe4zbg58C325xoviklGhI3tD9+P/fIJ4YvV55/h3tlNyJ8eh5ik2ai//DMeHlqgPz/arz+pfMnb7+BpbwtKs6Yh7bXduP74JxxeaHzu275v9fazV7/qdxIL8NEvfbj+zhKkJU7D7PJmXP7uoeMhUaO2vhvmHvwRAzd2IiPQHb7TanH2+8cmIdF+/Uv1Z69+DO0vfJBbmoUNRWGGrsDKsuG8KiFq98IDyAhO0g9c04/qOOOFwMnSM4CLj2BGUDKmhL+NuuLvsSJM177K+rZCjjRwkPnANW+jaomVZxI1JVi78h7Ko5L1g6yEy+MCSMeXNHDNPnngGy0mB69CyeLH2BBvPL6k/RceZaha/gxNi9+We2gpdaJaPpdFKF32C+qmF2KKXzJiow6guvAnJ4ZEN0Sl/Z/qwDW26s+wH17V2Lj8EfYtP4MZJhd0DMtt7L+yXHkdHBJ9kTH7CRpn1SIhIBZB/rMwb8597M7IH9QjSdmGrVe3oAW4sLIEBTb+Btta71X/nCGRIdFq2HpZIVE6AERgBKrfLUX7tQ2QRlFsqdci2nDlSoNlzXXo7VqOVUECrnMXyaOjnluruzOndgBZCyleq84h73g9fJXBV6Qrb1tPyVNgZJ++gOSq+WZTTLhMKUDs/s+QdakbueevI/0dG1NgnO1CzqlWsykw5P1zj0bopuOYKU+RcQba4jSz553UPuQLLy0mbzZOdj9oCgw75Zeu/LnPWI/EQ58j+3wnMg4dxNSZoXLAVepOBGUjcsdpZJztQvannyFlczF8lCGs9d01pYno89q+Ru7Zv2L61lL4mDwPKuzsn7X6Nw2JuvaXpsD4DFnnOzFzbxXCN18dPHCNcINP4QHM+PQO8tp6kNfWigj9xO9S/dhqP2u/X9lv5dWR+penSLHRvvI+eC1G4sUe5OnvsCrbVp4plOrP9Cuv7SpiEvVBXZ4Cw/b+29s/6feolV8un/BD8bx6tM2aYTb9gaGcroFYuqsE167XytNZ9B5O1T1TonInUbgl4KC1Z4q7qrAjXbd/AWnpeP/kWtzuqEX3jWpcOboQK7XGO0ty+Xyisefietw8PB1RFncY7X1IVA2JWU249+goFpk8AymPRPrsAsp8pZCuC0HnG9fKU2j0P/4Rt1oqkGA4/+ieWTOdnUL3/T00ZRmDpzTKZWr1aXQ/HMBv8hu6sV0rbd/R9YNR0NSOH/qfy2ubTpGga78Q1Fz9DQOt5YPusqnVn/BNxbqWdnz7sF8/xYGVKTA+uoHv/tGHxz9245yVKTBUQ6KwXX5pioiav3Tg3uMB9D3owaV3ixCpbw8xuRwXHj3A8SJlNGgNMvb24Fn3brPnioSd7avtvz0/8rp2yict18StxAdffIN/DDzHr/0PcLftvcFTYNioP3n7nlpUHGrH36QpRu7dxsnNOWZTCKiXT739bNavyp1EqXxTCvbhyjcP0d//AN1nN6Fy/12HQ6La+vL+TylCS88T4Lff8OSbFjSd/NEQEuXlKvWvVj/yNnyScKSzDq1VxlHJpZ8P90sJUeumVaKs4AfsK/4emzLLEWJyZ0m6E56R8bl+CodOVGizTXru2L+TKJddngLjLvYu/xnb52zFnMzvDAO3KOWXzi/hcSex9fU+7C95hj+V3MEC5e6vJhV52TfQWNyHd5Z2o2r6EgSYlE/+HZrFKFnyC3bP32DWA0vZP3shLCBsL9a/9hP2Lf8R9bNqkZn2tdNCoq5sqcjNasdby37BO0VfYo2VKTDslU/ehghB7vyneG9WmdU7fMLG/iv1q7zqQqJxUC3p566+K1A8/y72rhhA0/If0TB336ApMJT1bb26esahYXE9TqWGm332s/X+0fRzhsThn0ek9uQUGE44IY+mA4Nlcc6BwXocPfUoNKEom7sJ14pWo9zKc19sq9HTVpZtIUQK9tx9itbywd3ILN/L/4/edpyobSNcPBAcEQZfjZDvDN4/aJwn2Bl14pqTj87OErxh8tiEM7bLbYyNY0mIaShY3I81UUM/P0pdSxMzH2BHmnEQQWe0f8jUQpwrrseJGTFmF4ecse2XsQ2GROccAwyJDInDvmr5Mg54/g7nHPBjtR6l7kmhwdOQrb8KPVb3Y6KVWx7V9OlFlFsZNXei1QX3d2ydw6QulZMidV22o7Xz8d7tp7haY5zXzhntqV1fge7DqQiy6IXgjG1zG6Pfmzyq6YpWzLTS1dRe+wkXX/j5SPMkxiMy4h1sKv4Wr4eYd3W3t74jyyYFJyLXz+OFu6c6su2X8R6GROf4Z0hkSGRIpAEaoIERMZC6qwdPL1bKc4G9jA8G/B3O+WDAepTGBcjDwfu6TtrPBx6g+0wt0ryMXbWHW0dCeKH00AZ8UOjcD/fDLRfXf3nHUHhKN96bs1oecf1F6l14rket3H23H3sK21ESm2q1u+qLbHO8vZch0TmOGRL54XBEPhyOtxMO98c5JxzWI+uRBmiABmiABmhgJA0wJDrHF0MiQyJDIg3QAA3QAA3QAA3QAA2MCwMMiQyJViE7a3TTkbzCwW07By/rkfVIAzRAAzRAAzRAAzRgaoAh0TkeeCeRV42shm3Tg43fO+dgYz2yHmmABmiABmiABmhgZA0wJDqnfhkSGRIZEmmABmiABmiABmiABmhgXBhgSGRItAqZ3U2dA4NXuViPNEADNEADNEADNEADY80AQ6JzzPJOIq8aWQ3bY+2EwPI654TAemQ90gAN0AAN0AANjGUDDInO8cuQaCckCk0KDqxswC35qxLlvs6bI2ksH3wsu3MOPtYj65EGaIAGaIAGaIAGnGuAIdE59cmQaC8kCg+E+gUhKjAbR0qrUGkREqfGF2F/WiriNQyPPME554BkPbIeaYAGaIAGaIAGaGDoBhgSh153pu4YEu2ERKWihGsKmq2ERA/fWKzOqUZ74RLM83Jht00H6lKpU7465wBmPbIeaYAGaIAGaIAGaMBogCHRWBfDccGQ6ECwsRUSpYoXwhM5mRvRPnc6ggTvKA4HI9d1zkHNemQ90gAN0AAN0AANTFQDDInOsT9xQuJ//BMkNEM5YOyFRGl7wjMdR0rWocKiO+pQfhfXcQ5s1iPrkQZogAZogAZogAYmngE5JA7jcz/N6MxMnJD477qQ+L/iv184KKqGRBGCmte2YW8Eu5zywJp4J2O2OducBmiABmiABmhgNBj4nz/8Qb4ppNxNHA1lGqtlmBAh8bk+IOrA/M4Mj4KIr7oQzXpgPdAADdAADdAADdAADYxNA+af88dqQBsN5Z4QIfH9//o3BkOzoMwT39g88bHd2G40QAM0QAM0QAM04IiBK7//lxfuPTgawtloKcOECIlSZX/0n/9qEhTNrzI4Ao3v4QmJBmiABmiABmiABmiABka7gd/h6u//mQHRgcE57QXSCRMS7VWC2jL1ZxIjUL+0AY3hfCZRrS65nM8s0AAN0AAN0AAN0AAN0MDoNsCQ6EDKVguJbkELcGFlCQrcB0+BIYQPckuzsKEoDN6cIoNXdRzwxpPm6D5psn3YPjRAAzRAAzRAA+PdAEOiAx/a7YVEV884NCyux6nUcGishEDhk4QjnXVorQpiQHKgrsf7Acf94x8VGqABGqABGqABGqCB0W6AIdFOcBGaFBxY2YBbK7ehs7QKlRbzIIZMLcS54nqcmBGDQCsBUWp815x8dHaW4I3wwXcZRzsOlo8nMBqgARqgARqgARqgARqYeAYYEu2FROGBUL8gRMlfAfB3MQ96k4ITkevnARcbAVE6oLTrK9B9OBVBdt7DA2/iHXhsc7Y5DdAADdAADdAADdDAaDXAkGgnJA630YTwQumhDfig0JNdTUewnofbTlyfJ2gaoAEaoAEaoAEaoAEaMBpgSGR4YYClARqgARqgARqgARqgARqgAYMBhkRiMGDg1RPj1RPWBeuCBmiABmiABmiABmhgohpgSGRIZEikARqgARqgARqgARqgARqgAYOBcRcSJ2ra537zShcN0AAN0AAN0AAN0AAN0IAzDDAk8oqB4YqBM0BxGzwx0QAN0AAN0AAN0AAN0MDYNsCQyJDIkEgDNEADNEADNEADNEADNEADBgMMicRgwMArPmP7ig/bj+1HAzRAAzRAAzRAAzTgDAMMiQyJDIk0QAM0QAM0QAM0QAM0QAM0YDDAkKiCQQh3aAtmYv2qKExxE4aKc0ZCHw3bEEKD7IZLuHp0FSLFi+/fcNcfDXUwEcqg8Y7Fmqwy1Ew2tvHU+CLsT0tFvMb4M9O6UFtu+l5+z6uWNEADNEADNEADNDB+DIz7kBhfXYberlWoijT/ICxEHN7vqsPtndF2g58QQVh3tAodFwtQEGi+jdFwIAiPYnw6AODL7Yg1CXlCRKGhEzhX5qmyfz4oOvJ3POhoQIrJ+gUtj2D8dwFlntb3XQjr6yt1I/I/xKP7B5Fnsm1l2Wh4FTN2IvuTt+BvpXwi913kHtsMHyvLRkPZHS2Dd1Aeji2rw8HUFGg9jO3o4RuL1TnVaC9cgnleLoOcqC139PfzfePnDwbbkm1JAzRAAzRAAxPDAEOiSkgc7QeCmNOMB1/fwZ2nbagMMAYAR0Oirf3zCopEVFQUoubsQw9sh0Rb6ys/Z0h8tScS4RaJhqJ6NMcGwNVK2BXCEzmZG9E+dzqChrBcaWe+vtp2Zv2z/mmABmiABmiABpxpYNyGxMmrluPu7U2DvnovzMI0IaDcSezaPQMl75aj41o1LjVnYoafLmgJ4YVVh+sM6/d2vY5iX2MIkxrBOykVTccqcetGLbqvrcP55lzMCh18R8ZWg805eB8PjzVg6+Vv8LjvZ3zT9i4W6rsDKiGv9a1KHL/zAH2P7uFmSyliLbq8Ju34CvcPVuDNW304Vqgx3A1S1j+3rRwtXdL6P+BmyyrEmXQtXHpCugWp/3dnO+KshYS4BtyxERLtrS8KWtCnbNv09domTJbqf9pO9D5vR02YsU5dZr2PH/tOYamX8We26k76ufBOwZSd55HZ2oH03asRVncVWXXZxjrwTEDYmyeR0XoHOZ9eQHLlLLi76Ns3Yzey23ow60qv2VfegQq46+tB7U6i8NLqtn+mC9knzyGxPBsakzpULd8wyi/tv//GdmTVVyFi72fIOX8T6fveRKDF3W6vyGW4WTgfWpNyWdap8EzHkZJ1qLDwrbxPbbnyPr7yjxMN0AAN0AAN0AANjA8D4zYk+mfOxJ4d+Wj+uBq9XdX4ZF++/P89tfEINwmJt69U4GRTPvYdrkR3Vx2u/DEMLvJyd6SvmI2GLbNx4OR6WIZEIQJQfbIOvdfK8cH2OWjcuwJfdNTh9v5E+Nr5QG564Eghsf/eJTS+lobk9KVo6ujDw+NFcvdGJeQ9uLEfb+RMQ+rCbfj8HwO48EaIMQSJSVj/1wF8ssILM9/5Bn9vyjJZputuev/GfqyW1l+wBZcfDKCtKtzwHu/gqfLdwoRNbcAQQqK99YXPZCRotdBWnsTjBydQKn0vfUUGwk2u3wQ0dv+GLzZOMZQnu+nv6Du1HF4O1J8QLvCpvITco3sRkqiF7+x6TDt5yxAShXCDX/UVZL23AYGxMfBOLYb2L11IXhQk/z7hGQyvyGh4LWpCzqfvIlj6XvoK8ZfbX2oneyFRt/025HywDUHaOPikVyL5dAcS5wbotq9avuGVXyqfFBJzTh5CZFYivOPzEd3chayG+XL9Ks6Spm/AzewEQx0rPzd9FSIENa9tw94I6xc41Jabbovfj48/DGxHtiMN0AAN0AANTGwD4zYkKrDVnknsOZSKACm0uIZjx+U69B6bgVCLkJK+ZY2VkBiGbdL7P9SvL9wQMT0ac2cGOvwMmxQSn54sNnyo1yw9gYHvm5AhhyhdyGuvNYa6BYd+xoM/zzN84BfuS3Gqvx01oQJuBS141LkVU/VlV0LmFxvDDO/P2Pct+v+yxPB/pY48y84NKSQ6tL6dZxITtt3G82ub9KE9Dfu+eYJTy30GlU/5PaavQoQivLkHKYWT5PdLAwyFNH5lEhLjENXShfgM411Jr7KzyG3IN9v+UJ9JFCIakYe7kTjP3bA9v6o2ZG+ZpS+PWvnUlquXXwqJudsWGkKti/QM5cf1ZhcpMjM248rMqYYymtah8r0Qfihf8BaaYzysvk9tubIdvk7sPyZsf7Y/DdAADdAADYwfAxM+JCoD10gfhKtO1KH3kyzEOBQSXZGytgS3uzbi+qnX8X7jLKwpmIxAV2MoUTtQ5O6mHxpDiwifg3Xr8+VRRpWQZzrwTJZ0p+2j1wwf5EXeAfzUswtJUqj0q8Clp5ew2tBddvDANXG6kWzMukRKZXxVIVFEv4mu5zdQGyEgUnfh7pMzWO7jWP0JkYCoj7qRkGt8v/96Y3dTIVIRc7IHuZfvIPeS/uvy18h7u9AQqqR9H3pIlLZvEUJLThu2r16+4Zdf7m5q2r02KAOTC7PhYeI3K2OLwyHxYKz1QY6UkGhruZpzLh8/fzDYlmxLGqABGqABGpgYBhgS9QPXvGhIlA4Qqcvh5JQ4lK7JxY69K9DeUYsvdsaY3cmxdyBZhkTT9zoSEhO2fwn8OoC+vj709T3Bs98eo6XATX8nawyERBGJLTef4/ofIyE9W/nkTKnDd2GF0CLqmFpIvIWEBfpupEp30mDzO5UjFxLVyqe2XAqh9stvGRJN/Sjfz5y5GX+dGWW4sKD83PRVCH+8sUi6k2i8K/oiy03fy+8nxh8OtjPbmQZogAZogAbGt4FxHxJj1q5Cb1c5amKMd5wk1MrANUO+k+gRiLwCLfITvfShzBUL925Ab3s+ck3u5Ei/S+Pvi0meg5/3Gk5IlJ6JrGr7FZ/XpyIuLk7+Wnn0J3y7L8MsJA67u2nsVnxpY+Aa5eRg907k/A/wi50pMCLq2vH86nto6hjAmVJfq2HGWv0JEY6IP/cgeZEu9AnhiqCGLovupt3QzjYO5uM6KQY+Iea/Q6Q1DmkKDPXupmrlU1sudTe1X35HQmJcSjU6Z6eY3V1U2k15FSIC9Usb0Bg+2Kj0HrXlynb4Or7/WLB92b40QAM0QAM0MHEMjPuQ6JVfgC+7atF+rEA3cE1FBLzlZ/7M50m0vJMoXEOwbIvpwDWVaGmQ/p+NhZEC0tQCe67UoffzVWjeMRdv7SjCpet16DmVadZdVQQm4tD1OnSfzR40wuSwQqKmEB/39aIx2Rh+fcrO4debWxBh8kzjw45mrM5J1g9c8xRt1bpnHIXwwKSIKOPANT1NmCNNeREVgUCTufSETylan93Hx+XTEC0vD4e/Rhod1sH1tdvR/fw23luYKg9ckxBmcScvrAbtT57gSX8rSq2Mrmmr/qS7uFJIynl/A3x9NXCNLkPSyU6TkKgbuEY3sEwMvJMKEX/0S6QUGZ/xlE50IrIaMz47g+iZCbqBaybpQr+8TH7G720EKXch5dcp0Mj7L23f3sA16uUbbvkdCYmuoYvQtnwFFrkbnVie4N2CFuDCyhIU2HiPveXSPJm5pVnYUBQmH1eW2+b/J84fE7Y125oGaIAGaIAGxo+BcR8ShWsglu4qwbXrtfJ0Fr2HUxHoSEh0S8DBLuMUGMp0Gr1dVdiRrvvAHZCWjvdPrsXtjlp036jGlaMLsVJr3mVP+ERjz8X1uHl4OqIs7jAOKyRmNeHeo6NYZPIMpJCmq3h2AWW+UojTdTc937hWnkKj//GPuNVSgQT9FBhCZOHAPdO5KZTv76EpyxgohNAgtfo0uh8O4Df5Ld3YrpW27+j6wShoascP/c/ltU2fqZROJPLImVd/w0BrudVuuvbqTwTPR1zLbeS1fY2cY3sQs63dEBLlbXtpEb71lDwFRvbpC0iumg8Pk/rS/f5ABFYfR+b5bnkqjOw35xjuZsqjm1pMk5HX1oqISF39GKbAONuFnFOtg6fAUCuf2nKV8jsSEqWLH8Xz6tE2awamWkyfIu2/q2ccGhbX41Rq+KBnVR1ZLnyScKSzDq1VulFjpXX4xTqgARqgARqgARqggbFtYNyHRAId3UCFSMGeu0/RWu4/pHAhXNzhHhwMVzehmzdwo6677Whpd7XyqS13xn4ITSjK5m7CtaLVKJ9kvAAQMrUQ54rrcWJGjHzhxPJ3qS2X3u+ak4/OzhK8EW7cruV2+P/RfQyyfdg+NEADNEADNEADlgYYEnnnY0jhzBLSUP8vj2r69CLK/V88ZEjTXmhCwuERGg7PyGxEf/gVUpaEvtL9Ma0HtfKpLTfd1nC/l7rnhgZPQ7Z+9Ftpe5OCE5Hr52E22qvp71FbLr1Xu74C3YdTEWRxl9x0O/yef3hogAZogAZogAZoYGwZYEhkSHyloSp1Vw+eXqyE/xBChhDpiP2kR+4mmnvxOmY0lsHH5HnKV30yUiuf2vJXXX613y+EF0oPbcAHhdanzlBbn8vH1h8LthfbiwZogAZogAYmjgGGRIbEVxoSebKZOCcbtjXbmgZogAZogAZogAbGhgGGRIZEhkQaoAEaoAEaoAEaoAEaoAEaMBhgSCQGAwZe2RkbV3bYTmwnGqABGqABGqABGqCBkTTg9JA4koXltnkw0AAN0AAN0AAN0AAN0AAN0MDIGmBI5J1E3kmkARqgARqgARqgARqgARqgAYMBhkRiMGDgFZmRvSLD+mX90gAN0AAN0AAN0AANjAUDDIkMiQyJNEADNEADNEADNEADNEADNGAwMGIhUQgXVK8JxL3NfmjJcIXXEObBGwspm2Xk1SAaoAEaoAEaoAEaoAEaoIHxZGBEQ2JggBuypnvj611+qAkQhmSqVODU+CLsT0tFvGbwMuU9fOUBRwM0QAM0QAM0QAM0QAM0QAMvz8CIhUSlEYXQoGWnP3aFDw6CHr6xWJ1TjfbCJZjn5TIoRCrb4OvLA8G6Zl3TAA3QAA3QAA3QAA3QwMQ2MPIh0d0DrXv8UGflTqKETwhP5GRuRPvc6Qhil1QGZfYFpwEaoAEaoAEaoAEaoAEaeKUGRj4k+nvi2h4fVHgMvpOoXKEQnuk4UrIOFb6236O8l68T+6oG25/tTwM0QAM0QAM0QAM0QAMja2DkQ6KHO041+uOdSAFXG3cKhQhBzWvbsDeCXU4JfmTBs35ZvzRAAzRAAzRAAzRAAzRg38CIh0SpAaLTffD97kD07wrEoxpPxFuERSH8UL7gLTTHeLzS26rEYh8L64f1QwM0QAM0QAM0QAM0QAPj38CIh0Th5o7DDf44kalBSogrEgJd4W4jJB6M9WRIZP9rGqABGqABGqABGqABGqABGniFBkY+JAZ44PoeH5S7237eUAh/vLFIupPoTgyvEAOvCo3/q0JsY7YxDdAADdAADdAADdCAmoGRD4ke7ri4xw8b/O2FxAjUL21AYzifSVRrMC7nQU0DNEADNEADNEADNEADNDCSBkY+JAoNPnrbHzvDbIdEt6AFuLCyBAV27jaOZCVw2zzIaIAGaIAGaIAGaIAGaIAGaEBnYERDohACPqGeaN/th63B1kOiq2ccGhbX41RqODQWzyqykXig0gAN0AAN0AAN0AAN0AAN0MDLNTBiIVEIF1SvDcCT3QHoLHRHsJUAGDK1EOeK63FiRgwCrSwnhpeLgfXN+qYBGqABGqABGqABGqABGhjRkBjo74owT+t3ECV8k4ITkevnARcGRA7YwwF7aIAGaIAGaIAGaIAGaIAGRoWBEQuJvALBKxA0QAM0QAM0QAM0QAM0QAM0MPYMMCTyasWouFrBk8fYO3ljjG9OAAAA6UlEQVSwzdhmNEADNEADNEADNDA+DTAkMiQyJNIADdAADdAADdAADdAADdCAwQBDIjEYMPBK0Pi8EsR2ZbvSAA3QAA3QAA3QAA28iIFBIfFFVuZ7iY0GaIAGaIAGaIAGaIAGaIAGxpcBhkTeSeSdRBqgARqgARqgARqgARqgARowGGBIJAYDBl4BGl9XgNiebE8aoAEaoAEaoAEaoIGhGGBIZEhkSKQBGqABGqABGqABGqABGqABgwGbIVEIF1SvCcS9zX5oyXCFFye8N1TaUNI41+FVHBqgARqgARqgARqgARqggbFg4P8BalnhzhF0tnsAAAAASUVORK5CYII=;" parent="siei6v41lwWBUSuXyyNT-17" vertex="1">
                    <mxGeometry width="905" height="401" as="geometry"/>
                </mxCell>
                <mxCell id="siei6v41lwWBUSuXyyNT-15" value="这里通过 RNApp 组件包装，针对 bundle.harmony.js 处理识别出 js 内的逻辑（渲染）" style="shape=callout;whiteSpace=wrap;html=1;perimeter=calloutPerimeter;fontSize=16;fontStyle=1;align=center;fillColor=#e51400;fontColor=#ffffff;strokeColor=#B20000;" parent="siei6v41lwWBUSuXyyNT-17" vertex="1">
                    <mxGeometry x="470" y="220" width="660" height="85" as="geometry"/>
                </mxCell>
                <mxCell id="siei6v41lwWBUSuXyyNT-22" value="" style="group" parent="siei6v41lwWBUSuXyyNT-23" vertex="1" connectable="0">
                    <mxGeometry y="420" width="990" height="211" as="geometry"/>
                </mxCell>
                <mxCell id="siei6v41lwWBUSuXyyNT-16" value="" style="shape=image;verticalLabelPosition=bottom;labelBackgroundColor=default;verticalAlign=top;aspect=fixed;imageAspect=0;image=data:image/png,iVBORw0KGgoAAAANSUhEUgAAAhEAAACDCAYAAAAzr0lzAAAgAElEQVR4Ae2du65kN3aG5xEkezxTY3nUkZwIEKDAkdJ5AgMn7WeQMHFBmcMO7ESFSR1VYnSgvIIGDBn1AB10ehJlBuxwvA1eFrlILrJ27VP38wWNfc6+kOvykesnd9Xp36xWq4l/xAAGYAAGYAAGYOBYBn5z7APcD2QwAAMwAAMwAAOOAUQEOzHsRMEADMAADMDAIga6IuLtH343/feXn0/Tm8+myR2/dEf+EQMYgAEYgAEYeAgG3nw2/c+Xn03/8sXfLRIQ3Z0IJyD+D8GAaIIBGIABGICBV8DA59O/ffHbRULC3In4X6B5BdCwkniIlQRjlbEKAzBwAgb++uXnpxMRenL91y9+O33zBz5AwoeIYAAGYAAGYOCRGPjnv/9dIcCW+GbuRITPQYSV6j+ufr9InSwxhmcYoDAAAzAAAzBwOQbyZx7PtBNBMi+XTGJNrGEABmAABi7JgH7zsKRfeydCvV9Z0ijPMAhgAAZgAAZg4PYZQETw3V5eN8EADMAADMDAIgYQEYCzCBxWCLe/QiBH5AgGYODcDCAiEBGICBiAARiAARhYxMBFRcR6u5/2+/hvt5meHipp62krvu3303Z9egXs4rfbPE2r1dO02Z2nj3Or1lH72b/Tx27U77HXLm3n6fqLjL5g7J3OltvO8c0ysd7mOXS/mzZPEkc7t0+bXb5/u15UJFwsct4vM/fk/lbTqXzIOb2MD7k/ydE1jsHX/QvG/CE/Li4iQhE0gmkOjhgAVZz3aiA40JIoifcU7T9tpp07rwNY9KOf307rOFjMNo3nir6SIDoToN6XYONDiojCP4OPFN/D1/QEdGgAHH39hHbO6vuk/dmFZpYdLv4nteVwHmfbdQQbZ2nzYnEJ+bMXKOPc+kKs5s6j4lD4d6b5rcqhNYZf5EPR/mV8OCrGhX2nHBuxhuoaeOK+bkJEBKWpVfXTtNlujBV3GChSvC3QdOJcu7vNetrsdNuSoBBcaUue67bpRYQUcZlQZWdA2nTH8wAafHG7EOfrQ2JwjWPpn47n8T93c3iCwXNKO+fE+dL9jWy6JVtGdl762sXiUhTz48aFs1EvwI6JUenfeea32h5rDL/Eh7L9y/hQ9nlcvu7p2RsQESN1XSc7/C6F3wItBz8/Ww4CSWbZljzXbbMWEa4gWefOIiJcjLQQEt/i6sPvwiiBE21IOypKhYp/fkDG3Ru/snG+bDf+Ncne9bWud3F0X3p3x9nibNPXoy1WfKxzq9o/l6PgY/IhraL6/Wmf0nPOx/js0Pe9jl8vtzPsVO10+xMx42ORd8OEa2FxVcflYI6qmKm8F7FJsZQ4d/Indvpj6/vYv8qWps/s917FLPisriUfQnt6Fe59OpRb8aEb66V2yjzywrhE/ySWOfeSG/Xa0hw787b7daxyHyPfe/5JHpzfkicZO3JNno22+Ry5ayPOKlv27QJtuQ/ZnuC72Gn5kOOe5pDEYH6to8fT9edP279kv8uT8qGZW4vxV7d1+Pfri4jOwCiTHR3xSjwPKnvg6XtVMSuC6O4JINUTd7dNy05vjy7uuV092eVBG22TiW3msR08MuCk79KXp81WvSstrzn/PFxx8vVt7zZREIXYhntc7MIE2cYq9p8mB9emZUsYpDoWvu3Yt8Sl9S8MVin+Zf9j312bvRx2ffd+Zq6kjdx/yJtlp3VO/Or15z8L5HmSmNlcNG37Z+wcuXfjo7yLTU2bSayJLSUv/edijpRI822ropjjV7bZ2iD+l/dJ3kM74ZpmSbezNNb+ucRj2b9uX+JQH617Rrb0cmS1I/77a6lgS+HO4lhsstvoszvyvd9miFEe73qsjnJUP1fGurTFHsOWf+VzZZviQ3sc29LLkWunl9uwoLTHpuQx15rY/4nmz9Y/GU8q96r+WXE81Mbo+l2IiKyoZKILwUkJVQNMJpkyUKEY5g8huedt4LptWiKiXil6URDaFTtGwZ93zWqvPVf6a0AUJ0rvnwJK3nP7QaAKQAA+igjL97i1KnHU/mpb9M/NyrobL9evrG6iL84GJ3Zi3nr9uZg6H/OAzbHo+e4+C7PMTlkFVrZGcdjrT3ywbMxMtDke5ahkO/hc+tQ71/bTPtfeI3EuVjiJiX7+nIDy7df5dTF7AWfLYr3QzphfyaNmcRQXx1nOb5UP57sao3r8pdxa8VFttnnL/bXXxr4HO628G+eiXVY8cr/tc+la5EbHxxrD6f7k8xwfcgxy7Ae2pLbzc7rfLmcuBleZP7Od2b/ynLdfzfn+d2v8Gb732tTn70JEhEEaEq8nXgu04FwLSXtv2557tr0vJsQawJfYiVBw5sS1/mnQgzBQKxa1Whz6NxoECkJvRyoYc2xRO0Jp1afiarZd2e98OIGI0PzkeMpnXI60Mw46F1MRurr9bqyNnY/CFteulXd1LrftJtIorn1Osi16x0naLzjx9h/IX8+W0Vix7Ij5k29kmTFT/om9SeQeEI85HuUEKq9H6kLv219qZ8y7maNRXNxzVp9uTLjzfhysp+12O239OKmKpIvPYPJvc5tj0Vyz7KhyZPvX8jIvR+1zySZvSynErXym+yX+c3yQe4vjwJZRjka5Vexm28PYNOMYfR4LL+FlMC8VfuV8p/Ejor2aY83xN6Mt3a78fH0REUEwB3k9cVSDKCerCt4suAJIetJ3Qem2WfXt7vVQN4O6BVSCveRo29P2kQeYA7dciedrB/yLoOU+1SCo/YzxODgIVA5du3Wec18qh3GA6ZVJjt3I99CG2eYot37w5HZn29kMujL2PTusmGX/Bj6MJqooTDTPOu/Sfnsu+927p+dH77wUFTt/Ks8+fipmxhjzE/B+e3AHqmuL4k/8S8chZwM7Y957ffbOi6Cxc+TisJ3W663fRVtvt9Pa2acnfys+isE2t9mH5toM320/Wl6kSFpc537b59I1wxar73S/+Gw8l3Ir95jHgS0HxpFll+9zNDatvMVz45i5/GVbXd/1/DnHXx83zVEREzX+ivOZnUN9XF9ExMm9VNi9b2eEgMognJPQFAAPnH4dUrYl9w3b1IXUQ2AlNSdd2jx49LbVH36pVGiR4LaPPMACFAk2abvZKq0gGQ2CZmDp2I1siX34tnflhOj86U4CoU3Z3i3jd7i/3qDp5lZie7SdVQzjgD/IZ1eAxvZ6cZmRo17eJYaZE7H9QDx7tgxF2Sh/0q8cw70hZvWEpq/pn+XVR/5cwCi33mc9diXfMV82Z2KfHKv+F8VlNDbdte20iZ9ncja7HYnCNpd/049gY5tbsb1+XefOB3+K9lNcDo/NxFnBfBUjb6/kKFzLz2mbyriEfJULIcdv698BH9IcU8+t820Jc5T4sHARdq75s+tfznuKW1dEVDnTDMz8+SZEhHPUTQKyJZw/tNMmO6xMghgonwnPu8nInlDqYNW/h8D32gz9WjaWCZPBqQeLTODdo5+QatCtQSN9tXHRA0wGYYinm5jy17vs2JTb5/keN7hFeIWBnnKUXkuMbQk+h2eluEoctM1yLh9Du6m/tLsyp7/q2UMCKg2WY+2s+lGvjZwfOY6St/JY5ilPmt24DERE+GCl+sNCviBJ3g07k63jeHZtOehf22fIf3u+LGQ9zqSwxTG420zrOVzH3PZiLeO1x5k+r+1cGpfSDj02Y1xkso9zQjFmTBFhxLPKbeFDuuZYbJ+V/vr+9Z/xY1fmMtdPkaPwnJ4Xiz5EcET73LUuLzN9KOyRuHoexrb0czQY0wfGpuxCpVycYP7s+2fMM8n/Nn+aa99mmg/LdnrXbkZE9Ay8v/MtoMt8cJOpFPB5yVzWzyXatnyxzl3CllEflk3WuVEbL7126f5G9t6SLSM7L33t0ePy6P5dmpeX9veyfBRi7UiBMKemICJOHtRTiYiXgnc7z/vdnaS8b8eueoDci5213fx+u0yRG3LzUgZeNi85AZJ3OV9qi/X8xUVE2s5J2yuPAllIlvint+2swL+Gcx7+uK0pn8q/Rb/vxc5bjB02Pcr8hR+3xvLieUm/Uipe/ZwnxxcVEbeWJOw5D1TElbjCAAzAwOtgABFx8tcZrwMcJgjyDAMwAAMwcD4R8eazyTUOZEAGAzAAAzAAA4/JgBcRL6j3v7HA0Mrkn/7we4QEux0wAAMwAAMw8GAMvFmt/GaB1HxLDxw6Z4qIv34ZdiFCw58XnUhnHHWM+BkeYAAGYAAG7o2Bsr4fEgzWdVNE/Ps//BbhUAipewMDe5nMYAAGYAAG5jPwn3/820U7TaaIcGrjPwohUaoVEjM/McSKWMEADMAADNwuA59P//XHv1kkIJxW6IoIa9uCc/f5wZo33/86fffjzxUkf5m+fvfr9PWfnE9/nr768dfpu3fxX3OvXP+lamM1ffH2U37u3a/Tt2//HO8J7ac234VnvS3f/+L7/u7dp+mrt7/E56Vt6atnS5uD2obU5/d/Gdoy5PlPv/iYffV9iJGz++vvna1jO8e2RN9+/Hn64pufp29jvA/FbGTnTx+ep+fnj9P7H1RcfvowPT8/T6t4/PBTvmbef+A9b/nMT9OH5+fp+cNPDQsjO1c/vJ8+Pj9PH9//kJ7z7X58P/1woP9huzyb4kmcMufE4nKxQES8gknIFzZXuKJYCEUrFPksIKQ4xuKfCrCDUQq73BMAlYIZhIiGNraRxEj+3YsIJx6+aQtq249li+5H/2zbuFrlvsPEUv+u28g/S8zevP00ffv25+nrd79Mb5ywePfJiEdtZ88W8fnT9K3KRxAmtV3179m2YoKMQqEpzs8fph/efywFRrzXCQwtLIr26vEQi/+zFPskBt4HMeEERS1i6jbi70GMPE+urfde/BxhR6fNoe08g8CAgbMzgIh4BZBJQfzCFdQfYwHzK+FP0yquiPNqeDWFQq8Fg1UUB0XOF1vZ5QjFLwiOT6FtVUB9v9GGebZ0imlH6KwGtnz1Ta+tuMOidwycqBIRcTBmVrxcX3LeiagyLkvtXK1+mN5/DIU5rOjzTkHeQYjnnBAwRMeoEAchoop9EiIfpp/82IltP8vv/Zi6fpKQcOJDhMkrGIOjGHNtzAzxue34ICJewQQWCnhYSadVtYiIWGTTKwB5pZG27R3AUvy0sKhX3xn00N8CETHLltxPOblYNubXLXq3RASNFPKyndC+v8eLneCnf352zGxb7Diq/tLrJX0uCw7LTneu2HHwRT683hABUOwURBEwbydCiQ8ZJ4YIyWKllxt3PoqdKDaSbQiJs68Ue9xwfsQr1+bygYiQyfGRj744/zJ9rd/vv3Xv5O2diBYeqyj2dyIsESGvMfzxiJ2I1pbe4LZstEWE2DISEWJn0b+ICGMnorjPFF3ObttG9+woZiM7Q7+h2LtXGr6gS2E2Cn4hOBzz9esKPQ6M5+X+9vWJ+lyG1abRVhAf83Ywyvj2GOA8cYKBSzOAiNCT5qP+nFb4cSeh+L1f2DKM9j2hGJc7DuGZWmDkXQspzsXnM2JRHhXZbEt/krDFQd+WUZtiZ3HPEXbatthxPBSzwoYOo0E8fKw+vFi/aoi/qw9Fph2B5nMN5c5BtqE+3+5WmG2KsEh9t8/lPvo55h5iAwO3xQAiojMpPxSoIhrkg46xGOZvGsRCm15l/Dp95z9YaZz39+TXGqFYqm92yAcyUx/xWjwvxdkSEeGVg9GntHkwV9Wz8lzHllGOvZ3yvPQb25lnp2XLSESs0udT0qulun+xwzrGlf5z89kEERLuA5DGtyqkuMvuhbQt7aWiryeuqs362UNt+g9jOnvYhRgxyDXNHD/fKg+ICJk0OfJuFgZgAAZgAAaOYgARATBHAXOrahi7WKnBAAzAwOUZQEQgIhARMAADMAADMLCIAUQE4CwCB8V/ecVPzIk5DMDArTGAiEBEICJgAAZgAAZgYBEDiAjAWQTOralh7GGFBgMwAAOXZwARgYhARMAADMAADMDAIgYQEYCzCJxbU/xPm9203+/Dv+16pk9P02a3n7ZrW70va9Nu69bidc/2rLf7abd5mplj8nHPucb22+cXEXFnIqIobLFonmJCvezEvJ62UvDjsVfIj51EfHxOJCKk7+PaPMegD2IniaQj837Z3I79P4Utp2hDcstxnC/iQ3wOMYCIuEcRMbtIzh8Al5uYQ0E8hfCx4D6u4I93IqT949qcH3Npf/5xWewul9vDvp/CllO0MT/mh32iLWL0mhlARDyUiKhWrLvN9JT8q67tt9N6tZp8gax2BfyK9wxCxQ+0p8202++mzdNg4llv86uJvd66rnwo/Avt2QW/91w4v13rnZEQFz0pzGrzXPFK+XP+BXtLAebOuXi2PhzObRWXwgfdXnxNFPMmRVy3n3eSqjZjjvS9xY5K6rN6Lp3PfuvnyhgMWCrix32aa36Gh1MwgIi4s0nGLmhhMDxttqo4h0lZJtvRcw4kKQyngGrchhSLjpDwAsK+NvJP+rT87D/X2uLisC8KWBRa1bnyvjLWYsvpj1Y/tQ/tPb3cjnwornnhlz874q854Rlj4mOexEKfQRePF9syaOP08abIEFMYOMQAIuIeRUS1c5BXgSXwuqD6n+PugwVFb3K37j3FuWBPWOGK0LFX2qVPum/tn5y3zsk1OeZ7QsEt4udFTLkbke8XW9wqvbxn5Z4zdkakz9McW4EgMdM+1Pbaue37sFqFXYjcZtmvFxHaVy8yqnjEcfViW4y2bX8kNxxPwxpxJI7zGEBE3KOIqFbFCfa4YtTbvrJadPf4yb/zobxFE3PTn11Ikn1WrKUN71NdvCqI5V4toqpY1EXL9919zhAR/t7Sj6ZNqz1nky6slq/uXPNs2dcwVt3XGXmXwD1f22vmtrEjvrLYbdJrk8SOvzfvDpntib9WuypH5rPWMzGeIV5ljMw2pH+OfGsFBi7KACLizoCrC0QuOqEA51V9W0xG915zYvY+qeKVV8BaRMzzr43P6DlDRBg7Ck2bvuiVhS3HVtt86p/LHYHQZ+tDba+Z2wM+uGe0GNVcme35cTSKdYiF+ezIFuOa2cadjePL8HJq/miPvLUMICLubPKpC0SGOkzgqQD7yTe/t873OQjaYuTbnbOSPnm8gi2y6vV21K8KVIE65F8bn1Fc6gLcxsXFrW2ztLmMbTvITnfdsq/2obXXzu3AB6Nwax/6RXwU6xCXo22pXq3454sP254z3rSt887P8GAxgIg4eVE8L2htQcv9yQQbVpDbaeP+AJPfSo4FY/AaQIRFWn2qLWgLnMXn/GcOylWuCAhps/QjfzujPH/AP+dr9OGY5/KK24iZarOJ11kLm21LsDVcS+JqJHok/ym3bbvivxMKiYX4nL4mP0vO5NiPtXBa9TnDFv95E2W766PXv9jBUeLNERbOywAi4s5EBAPivAOC+MrnNqrXNX53In8ugjjBIQzAgGMAEYGIuOiHcJh47mDi6X1DxXzNdAf+MMYZ4zBwNgYQEcB1NrgQDPdbYNvXGdXOBOOGcQMDMMBOxP1O8hRocgcDMAADMHBtBtiJQE2jpmEABmAABmBgEQOICMBZBM611S/9swKDARiAgeszgIhARCAiYAAGYAAGYGARA4gIwFkEDiuA668AyAE5gAEYuDYDiAhEBCICBmAABmAABhYxgIgAnEXgXFv90j8rMBiAARi4PgOICEQEIgIGYAAGYAAGFjGAiACcReCwArj+CoAckAMYgIFrM4CIQEQgImAABmAABmBgEQOICMBZBM611S/9swKDARiAgeszgIhARCAiYAAGYAAGYGARA4gIwFkEDiuA668AyAE5gAEYuDYDiAhEBCICBmAABmAABhYxgIgAnEXgXFv90j8rMBiAARi4PgOICEQEIgIGYAAGYAAGFjGAiACcReCwArj+CoAckAMYgIFrM4CIQEQgImAABmAABmBgEQOICMBZBM611S/9swKDARiAgeszgIhARCAiYAAGYAAGYGARA4gIwFkEDiuA668AyAE5gAEYuDYDiAhEBCICBmAABmAABhYxgIgAnEXgXFv90j8rMBiAARi4PgOICEQEIgIGYAAGYAAGFjGAiACcReCwArj+CoAckAMYgIFrM4CIQEQgImAABmAABmBgEQOICMBZBM611S/9swKDARiAgeszgIhARCAiYAAGYAAGYGARA4gIwFkEDiuA668AyAE5gAEYuDYDiAhEBCICBmAABmAABhYxgIgAnEXgXFv90j8rMBiAARi4PgOICEQEIgIGYAAGYAAGFjGAiACcReCwArj+CoAckAMYgIFrM4CIQEQgImAABmAABmBgEQOICMBZBM611S/9swKDARiAgeszgIhARCAiYAAGYAAGYGARA4gIwFkEDiuA668AyAE5gAEYuDYDiAhEBCICBmAABmAABhYxcOMiYj1t9/tpv9tMTyR4UYKPUqnr7bR38fb/dtPmSVS+nYenzS7fv12f3z4YIMYwAAMwcFMMHCciukVGis2pj3bxOqowHgVcr794PhbY3ebpppKo47He7qdl9gUft2srh724hHu9mEBE3CwTmg9+tvjmHFzAwFIGZouIsOrUq9OnabN9oB0CL5C208atroudj6dps9OFeVRsrw/iYhHxtJl2++20Pkp0BX8REdfP+9IJgOfIHQzAwEsYmCkiDhXOuFKVrfBUhF0BdsJDX4+FKhbtomipc/2t8kGbvgDqvqyteQuY9bSNNvt+k/2raaVskkDPL5pBgKRXBLrdVXWtKOBHXIs7AEW8JA/uOHeHwPDT+Vu022nLjkflQ/Fsda3w3coP54Q9jrAAAzBwSwzMExGdAhMcCQUhb6HHAuGLhhSLvIPhVsqhsLXCJF/LkLQFqm6z7L9ow6+u95O9RZ/70Anx/eli73zXvzuhYp0zVvBPm636XEFpZ+tXtmd0rfAvCpEc+9XkruvftW/Wz74vLTrk56LoRzFRnZP2LHtHdlr3S1scMwfEgljAAAzcOgMvFxGWwIhb46tY5IoirgpwWUycqMhiQwJX3uOACsVYt5nvqYVJWbilzdHRt1WIhrrN8HsjLAwRUfeT7ZQVvv36wN9nrs5d39UzKp6uv2NFRLLRyqPySduenonX22tjO/v+MWHUseV3mIABGLhlBk4jIoqiu5pWh0SEFEL9Ht4VMWOl2xaokYgI11I7vv1WmIwS4vur/fEFVl6NbKd1x9amXd+/PBePyke/Wo8r/3r3wLxmteeeV/behIiYaae85ql9b+KoxAzXmFBhAAZg4HYYmCciYlHQq/+URGsFG89Zuwblq4AsCFzxs9o/TkSElbgUJ3c8tkCZIqIqYu6ew+2GHQt9X+uLgNDem+K7Utd8HqqdiMq22xERYztN/ypf8j0SJ47EBAZgAAZuiYF5IiJuk+9lB8FP9uHbGStd5OR8+jZDFgnBaVUQpWA4wbHbTTu1mtYBagtv3aZ6Xz+jyOq2rZ8PiYhD13ObwdckjGR1rnYi8r3BJy047GvhvrTTIjFUx/n2VQPREoN1u6btKv7p/sN22v5VNqX2OJ/jRSyIBQzAwO0wMFtEuKTpLfZ98fmFUDDTDkAqNrGYyIf1zJ0BQ1g031zQrwJCm6k4yzcIYp+ljeE5uzjrJLR2el92m/QZjNY3/bz9sy/oyff49VFvp9HfIGalaGifLf2rrqd2bRvTYDRFRNWW+NLzwV1P/bXPBjvb8/mZAzYiKvhbFDAAAzBwUwwcJSJSwZmdxFAwdMFv23Ai4rjPLbRtxOJj7UT4cydqf7bfFMNujojhTU0A5ImxCgMw8BIGri4i/M5BWr2+MJnGajrsBsx9P//C/imQFEgYgAEYgIFXxMDVRER67dD5LMRSZZTala334nMciISlceU52IEBGIABGKgZOLOIIOB1wPkdJmAABmAABh6FAUTEK9p2ehRo8YMJGAZgAAZugwFEBCKC95cwAAMwAAMwsIgBRATgLAKHVcBtrALIA3mAARi4JgOIiNkiIv4tjBN/EPSayadvJh8YgAEYgIGXMDBPRPivTpb/B0T5B45eQxIeW0S4b7W8vpy+Bm7x8SUTJM/CDwyMGThCRKi/tRD/hDNFZxzce4IPEfE4ubwn7rAV7mDgvhlYJiLcK4DiDzvFVbr8bYa05e/+YqX7a5H6uhIj9Z+3PuaPTlW7I1nQ6L70/3A5sKXwJSZUnSv+fHVh46BN/5qkssXHZ85fzwx/6TP9qe0UT2dbda34OxhHXIt+FL5J/twx+Tlq877hZ/IifzAAAzDwMgaWi4j456SlqOUiHouOL0JSgKRwht/lXv+HoapiJdeGifUFXtrUASjbF9tCQaxtif8XiO8/FHv957lL20IfvuAme925us2y/6KNuHuj++j5+LTZTpsn8atss7VB7rP+I6x8rbAl2q1j7a7r38W2UX9yD8ccZ2JBLGAABl4TA8tFhP/fO3fVjkSExxfMbSqyunDmouQKt96ViLsbxarbgrEsqkWy1O5BOj+wRf+35Nku16ezrRUp5T3uvmBL3z/935sP7D7w4U7dr/+5jlt8vn/tcKyHIqLTX4rxAfu5z+KYc3ABAzBw/wwsFxGyE+EKd134B4U7FUR/T/lhTfmfM5+GRandNUggHmlL8Uom2rx2fbt2ih2HkOhke7JvJCLCtdROjFfeYRjAY8VG2eN3FeKrh3r3wLxmteeeV3nriQgXW7PNFIOBH9zD12dhAAZg4KEZWCwiZNVbFGKBJe4IDFfqumjLc7OObeEuRES9ah7YoncitK2uaOrdBWn/OBFRFl8nkOqCL+2WxyCS9L1tv1K423tzW+rajFiPRITZ5qxciZ0ccwyJBbGAARh4HAaWiQhfmKXQqmLlC4vetm8Lfi6I1Ur9iKIkAsbvGhTPHWNLfa+8TtlNO7VC17Bn2wWAgX8zCrduO/8c7EoiRnYR1E5EvlfHWmySo752ONbet47f8/qTfjnmeBELYgEDMPDYDBwhIvSrh/rzAqHwpW8TpBVMPJMAAAEXSURBVII3KLJKcKTnZq/W44cI1bcJ8sp9bMu4L0NYpA9Pav/l2wtj//RrAOk329kHK4gk6W87bTa7+HoligHld3pdYtmZ8uD6ap8tbamu+2erc67fos2+D0wcxAYGYAAGHp+BeSKiWO3fa1BCQUwrfNMnJyJqgbTQX2snwp87Ufum/Qttpa2HfmfJRM64gAEYOBcDiAhVQP3OwalW2vGzGPqVS/81DICfC3DahS0YgAEYOB8DiAj97YODnwk4LhHt64zqK61KwAD5cbElXsQLBmAABq7PwCsSEdcPNsCTAxiAARiAgUdiABHBbsCizwPIB0Wt4yMNEHxhwocBGICBPgOICEQEIgIGFjHAxNqfWIkNsXktDPw/cI9gRaKPOZwAAAAASUVORK5CYII=;" parent="siei6v41lwWBUSuXyyNT-22" vertex="1">
                    <mxGeometry y="80" width="529" height="131" as="geometry"/>
                </mxCell>
                <mxCell id="siei6v41lwWBUSuXyyNT-18" value="bundle.harmony.js 说明&lt;br&gt;&lt;br&gt;在 tester 目录下执行 npm run dev 命令 生成的，里面包含了 tester 应用内引用的所有 React Native 包，然后放入 harmony 的资源目录" style="rounded=0;whiteSpace=wrap;html=1;fillColor=#e51400;fontColor=#ffffff;strokeColor=#B20000;fontStyle=1;align=left;spacingLeft=6;fontSize=16;" parent="siei6v41lwWBUSuXyyNT-22" vertex="1">
                    <mxGeometry width="990" height="80" as="geometry"/>
                </mxCell>
            </root>
        </mxGraphModel>
    </diagram>
</mxfile>